<?xml version="1.0" encoding="UTF-8" standalone="no"?>
<!DOCTYPE svg PUBLIC "-//W3C//DTD SVG 1.1//EN"
 "http://www.w3.org/Graphics/SVG/1.1/DTD/svg11.dtd">
<!-- Generated by graphviz version 2.40.1 (20161225.0304)
 -->
<!-- Title: dependencies Pages: 1 -->
<svg width="504pt" height="211pt"
 viewBox="0.00 0.00 504.00 211.00" xmlns="http://www.w3.org/2000/svg" xmlns:xlink="http://www.w3.org/1999/xlink">
<g id="graph0" class="graph" transform="scale(1 1) rotate(0) translate(4 207)">
<title>dependencies</title>
<polygon fill="#ffffff" stroke="transparent" points="-4,4 -4,-207 500,-207 500,4 -4,4"/>
<text text-anchor="start" x="227.0091" y="-42.4" font-family="sans-serif" font-weight="bold" font-size="14.00" fill="#000000">Legend</text>
<polygon fill="#ffffb3" stroke="transparent" points="14,-10 14,-30 34,-30 34,-10 14,-10"/>
<text text-anchor="start" x="37.629" y="-15.4" font-family="sans-serif" font-size="14.00" fill="#000000"> &#160;Declarations</text>
<polygon fill="#8dd3c7" stroke="transparent" points="127,-10 127,-30 147,-30 147,-10 127,-10"/>
<text text-anchor="start" x="150.7251" y="-15.4" font-family="sans-serif" font-size="14.00" fill="#000000"> &#160;Module</text>
<polygon fill="#80b1d3" stroke="transparent" points="213,-10 213,-30 233,-30 233,-10 213,-10"/>
<text text-anchor="start" x="236.7812" y="-15.4" font-family="sans-serif" font-size="14.00" fill="#000000"> &#160;Bootstrap</text>
<polygon fill="#fdb462" stroke="transparent" points="310,-10 310,-30 330,-30 330,-10 310,-10"/>
<text text-anchor="start" x="333.6732" y="-15.4" font-family="sans-serif" font-size="14.00" fill="#000000"> &#160;Providers</text>
<polygon fill="#fb8072" stroke="transparent" points="406,-10 406,-30 426,-30 426,-10 406,-10"/>
<text text-anchor="start" x="429.7258" y="-15.4" font-family="sans-serif" font-size="14.00" fill="#000000"> &#160;Exports</text>
<g id="clust1" class="cluster">
<title>cluster_PrayersBasicPageModule</title>
<polygon fill="none" stroke="#000000" stroke-dasharray="1,5" points="60,-70 60,-195 436,-195 436,-70 60,-70"/>
</g>
<g id="clust2" class="cluster">
<title>cluster_PrayersBasicPageModule_declarations</title>
<polygon fill="none" stroke="#000000" points="296,-78 296,-130 428,-130 428,-78 296,-78"/>
</g>
<g id="clust4" class="cluster">
<title>cluster_PrayersBasicPageModule_imports</title>
<polygon fill="none" stroke="#000000" points="68,-78 68,-130 288,-130 288,-78 68,-78"/>
</g>
<!-- PrayersBasicPage -->
<g id="node1" class="node">
<title>PrayersBasicPage</title>
<polygon fill="#ffffb3" stroke="#000000" points="420.2908,-122 303.7092,-122 303.7092,-86 420.2908,-86 420.2908,-122"/>
<text text-anchor="middle" x="362" y="-99.8" font-family="Times,serif" font-size="14.00" fill="#000000">PrayersBasicPage</text>
</g>
<!-- PrayersBasicPageModule -->
<g id="node2" class="node">
<title>PrayersBasicPageModule</title>
<polygon fill="#8dd3c7" stroke="#000000" points="342.8403,-187 339.8403,-191 318.8403,-191 315.8403,-187 183.1597,-187 183.1597,-151 342.8403,-151 342.8403,-187"/>
<text text-anchor="middle" x="263" y="-164.8" font-family="Times,serif" font-size="14.00" fill="#000000">PrayersBasicPageModule</text>
</g>
<!-- PrayersBasicPage&#45;&gt;PrayersBasicPageModule -->
<g id="edge1" class="edge">
<title>PrayersBasicPage&#45;&gt;PrayersBasicPageModule</title>
<path fill="none" stroke="#000000" d="M323.3875,-122.1061C323.3875,-122.1061 323.3875,-140.991 323.3875,-140.991"/>
<polygon fill="#000000" stroke="#000000" points="319.8875,-140.9909 323.3875,-150.991 326.8875,-140.991 319.8875,-140.9909"/>
</g>
<!-- PrayersBasicPageRoutingModule -->
<g id="node3" class="node">
<title>PrayersBasicPageRoutingModule</title>
<polygon fill="#8dd3c7" stroke="#000000" points="280.458,-122 277.458,-126 256.458,-126 253.458,-122 75.542,-122 75.542,-86 280.458,-86 280.458,-122"/>
<text text-anchor="middle" x="178" y="-99.8" font-family="Times,serif" font-size="14.00" fill="#000000">PrayersBasicPageRoutingModule</text>
</g>
<!-- PrayersBasicPageRoutingModule&#45;&gt;PrayersBasicPageModule -->
<g id="edge2" class="edge">
<title>PrayersBasicPageRoutingModule&#45;&gt;PrayersBasicPageModule</title>
<path fill="none" stroke="#000000" d="M231.7795,-122.1061C231.7795,-122.1061 231.7795,-140.991 231.7795,-140.991"/>
<polygon fill="#000000" stroke="#000000" points="228.2795,-140.9909 231.7795,-150.991 235.2795,-140.991 228.2795,-140.9909"/>
</g>
</g>
</svg>
