<?xml version="1.0" encoding="UTF-8" standalone="no"?>
<!DOCTYPE svg PUBLIC "-//W3C//DTD SVG 1.1//EN"
 "http://www.w3.org/Graphics/SVG/1.1/DTD/svg11.dtd">
<!-- Generated by graphviz version 2.40.1 (20161225.0304)
 -->
<!-- Title: dependencies Pages: 1 -->
<svg width="504pt" height="211pt"
 viewBox="0.00 0.00 504.00 211.00" xmlns="http://www.w3.org/2000/svg" xmlns:xlink="http://www.w3.org/1999/xlink">
<g id="graph0" class="graph" transform="scale(1 1) rotate(0) translate(4 207)">
<title>dependencies</title>
<polygon fill="#ffffff" stroke="transparent" points="-4,4 -4,-207 500,-207 500,4 -4,4"/>
<text text-anchor="start" x="227.0091" y="-42.4" font-family="sans-serif" font-weight="bold" font-size="14.00" fill="#000000">Legend</text>
<polygon fill="#ffffb3" stroke="transparent" points="14,-10 14,-30 34,-30 34,-10 14,-10"/>
<text text-anchor="start" x="37.629" y="-15.4" font-family="sans-serif" font-size="14.00" fill="#000000"> &#160;Declarations</text>
<polygon fill="#8dd3c7" stroke="transparent" points="127,-10 127,-30 147,-30 147,-10 127,-10"/>
<text text-anchor="start" x="150.7251" y="-15.4" font-family="sans-serif" font-size="14.00" fill="#000000"> &#160;Module</text>
<polygon fill="#80b1d3" stroke="transparent" points="213,-10 213,-30 233,-30 233,-10 213,-10"/>
<text text-anchor="start" x="236.7812" y="-15.4" font-family="sans-serif" font-size="14.00" fill="#000000"> &#160;Bootstrap</text>
<polygon fill="#fdb462" stroke="transparent" points="310,-10 310,-30 330,-30 330,-10 310,-10"/>
<text text-anchor="start" x="333.6732" y="-15.4" font-family="sans-serif" font-size="14.00" fill="#000000"> &#160;Providers</text>
<polygon fill="#fb8072" stroke="transparent" points="406,-10 406,-30 426,-30 426,-10 406,-10"/>
<text text-anchor="start" x="429.7258" y="-15.4" font-family="sans-serif" font-size="14.00" fill="#000000"> &#160;Exports</text>
<g id="clust1" class="cluster">
<title>cluster_PatronCreatePageModule</title>
<polygon fill="none" stroke="#000000" stroke-dasharray="1,5" points="60,-70 60,-195 436,-195 436,-70 60,-70"/>
</g>
<g id="clust2" class="cluster">
<title>cluster_PatronCreatePageModule_declarations</title>
<polygon fill="none" stroke="#000000" points="296,-78 296,-130 428,-130 428,-78 296,-78"/>
</g>
<g id="clust4" class="cluster">
<title>cluster_PatronCreatePageModule_imports</title>
<polygon fill="none" stroke="#000000" points="68,-78 68,-130 288,-130 288,-78 68,-78"/>
</g>
<!-- PatronCreatePage -->
<g id="node1" class="node">
<title>PatronCreatePage</title>
<polygon fill="#ffffb3" stroke="#000000" points="420.2922,-122 303.7078,-122 303.7078,-86 420.2922,-86 420.2922,-122"/>
<text text-anchor="middle" x="362" y="-99.8" font-family="Times,serif" font-size="14.00" fill="#000000">PatronCreatePage</text>
</g>
<!-- PatronCreatePageModule -->
<g id="node2" class="node">
<title>PatronCreatePageModule</title>
<polygon fill="#8dd3c7" stroke="#000000" points="342.8417,-187 339.8417,-191 318.8417,-191 315.8417,-187 183.1583,-187 183.1583,-151 342.8417,-151 342.8417,-187"/>
<text text-anchor="middle" x="263" y="-164.8" font-family="Times,serif" font-size="14.00" fill="#000000">PatronCreatePageModule</text>
</g>
<!-- PatronCreatePage&#45;&gt;PatronCreatePageModule -->
<g id="edge1" class="edge">
<title>PatronCreatePage&#45;&gt;PatronCreatePageModule</title>
<path fill="none" stroke="#000000" d="M323.3875,-122.1061C323.3875,-122.1061 323.3875,-140.991 323.3875,-140.991"/>
<polygon fill="#000000" stroke="#000000" points="319.8875,-140.9909 323.3875,-150.991 326.8875,-140.991 319.8875,-140.9909"/>
</g>
<!-- PatronCreatePageRoutingModule -->
<g id="node3" class="node">
<title>PatronCreatePageRoutingModule</title>
<polygon fill="#8dd3c7" stroke="#000000" points="280.4594,-122 277.4594,-126 256.4594,-126 253.4594,-122 75.5406,-122 75.5406,-86 280.4594,-86 280.4594,-122"/>
<text text-anchor="middle" x="178" y="-99.8" font-family="Times,serif" font-size="14.00" fill="#000000">PatronCreatePageRoutingModule</text>
</g>
<!-- PatronCreatePageRoutingModule&#45;&gt;PatronCreatePageModule -->
<g id="edge2" class="edge">
<title>PatronCreatePageRoutingModule&#45;&gt;PatronCreatePageModule</title>
<path fill="none" stroke="#000000" d="M231.7795,-122.1061C231.7795,-122.1061 231.7795,-140.991 231.7795,-140.991"/>
<polygon fill="#000000" stroke="#000000" points="228.2795,-140.9909 231.7795,-150.991 235.2795,-140.991 228.2795,-140.9909"/>
</g>
</g>
</svg>
