<?xml version="1.0" encoding="UTF-8" standalone="no"?>
<!DOCTYPE svg PUBLIC "-//W3C//DTD SVG 1.1//EN"
 "http://www.w3.org/Graphics/SVG/1.1/DTD/svg11.dtd">
<!-- Generated by graphviz version 2.40.1 (20161225.0304)
 -->
<!-- Title: dependencies Pages: 1 -->
<svg width="504pt" height="211pt"
 viewBox="0.00 0.00 504.00 211.00" xmlns="http://www.w3.org/2000/svg" xmlns:xlink="http://www.w3.org/1999/xlink">
<g id="graph0" class="graph" transform="scale(1 1) rotate(0) translate(4 207)">
<title>dependencies</title>
<polygon fill="#ffffff" stroke="transparent" points="-4,4 -4,-207 500,-207 500,4 -4,4"/>
<text text-anchor="start" x="227.0091" y="-42.4" font-family="sans-serif" font-weight="bold" font-size="14.00" fill="#000000">Legend</text>
<polygon fill="#ffffb3" stroke="transparent" points="14,-10 14,-30 34,-30 34,-10 14,-10"/>
<text text-anchor="start" x="37.629" y="-15.4" font-family="sans-serif" font-size="14.00" fill="#000000"> &#160;Declarations</text>
<polygon fill="#8dd3c7" stroke="transparent" points="127,-10 127,-30 147,-30 147,-10 127,-10"/>
<text text-anchor="start" x="150.7251" y="-15.4" font-family="sans-serif" font-size="14.00" fill="#000000"> &#160;Module</text>
<polygon fill="#80b1d3" stroke="transparent" points="213,-10 213,-30 233,-30 233,-10 213,-10"/>
<text text-anchor="start" x="236.7812" y="-15.4" font-family="sans-serif" font-size="14.00" fill="#000000"> &#160;Bootstrap</text>
<polygon fill="#fdb462" stroke="transparent" points="310,-10 310,-30 330,-30 330,-10 310,-10"/>
<text text-anchor="start" x="333.6732" y="-15.4" font-family="sans-serif" font-size="14.00" fill="#000000"> &#160;Providers</text>
<polygon fill="#fb8072" stroke="transparent" points="406,-10 406,-30 426,-30 426,-10 406,-10"/>
<text text-anchor="start" x="429.7258" y="-15.4" font-family="sans-serif" font-size="14.00" fill="#000000"> &#160;Exports</text>
<g id="clust1" class="cluster">
<title>cluster_TagCreatePageModule</title>
<polygon fill="none" stroke="#000000" stroke-dasharray="1,5" points="74,-70 74,-195 422,-195 422,-70 74,-70"/>
</g>
<g id="clust2" class="cluster">
<title>cluster_TagCreatePageModule_declarations</title>
<polygon fill="none" stroke="#000000" points="296,-78 296,-130 414,-130 414,-78 296,-78"/>
</g>
<g id="clust4" class="cluster">
<title>cluster_TagCreatePageModule_imports</title>
<polygon fill="none" stroke="#000000" points="82,-78 82,-130 288,-130 288,-78 82,-78"/>
</g>
<!-- TagCreatePage -->
<g id="node1" class="node">
<title>TagCreatePage</title>
<polygon fill="#ffffb3" stroke="#000000" points="405.5118,-122 304.4882,-122 304.4882,-86 405.5118,-86 405.5118,-122"/>
<text text-anchor="middle" x="355" y="-99.8" font-family="Times,serif" font-size="14.00" fill="#000000">TagCreatePage</text>
</g>
<!-- TagCreatePageModule -->
<g id="node2" class="node">
<title>TagCreatePageModule</title>
<polygon fill="#8dd3c7" stroke="#000000" points="335.5604,-187 332.5604,-191 311.5604,-191 308.5604,-187 190.4396,-187 190.4396,-151 335.5604,-151 335.5604,-187"/>
<text text-anchor="middle" x="263" y="-164.8" font-family="Times,serif" font-size="14.00" fill="#000000">TagCreatePageModule</text>
</g>
<!-- TagCreatePage&#45;&gt;TagCreatePageModule -->
<g id="edge1" class="edge">
<title>TagCreatePage&#45;&gt;TagCreatePageModule</title>
<path fill="none" stroke="#000000" d="M319.8875,-122.1061C319.8875,-122.1061 319.8875,-140.991 319.8875,-140.991"/>
<polygon fill="#000000" stroke="#000000" points="316.3875,-140.9909 319.8875,-150.991 323.3875,-140.991 316.3875,-140.9909"/>
</g>
<!-- TagCreatePageRoutingModule -->
<g id="node3" class="node">
<title>TagCreatePageRoutingModule</title>
<polygon fill="#8dd3c7" stroke="#000000" points="280.1783,-122 277.1783,-126 256.1783,-126 253.1783,-122 89.8217,-122 89.8217,-86 280.1783,-86 280.1783,-122"/>
<text text-anchor="middle" x="185" y="-99.8" font-family="Times,serif" font-size="14.00" fill="#000000">TagCreatePageRoutingModule</text>
</g>
<!-- TagCreatePageRoutingModule&#45;&gt;TagCreatePageModule -->
<g id="edge2" class="edge">
<title>TagCreatePageRoutingModule&#45;&gt;TagCreatePageModule</title>
<path fill="none" stroke="#000000" d="M235.2795,-122.1061C235.2795,-122.1061 235.2795,-140.991 235.2795,-140.991"/>
<polygon fill="#000000" stroke="#000000" points="231.7795,-140.9909 235.2795,-150.991 238.7795,-140.991 231.7795,-140.9909"/>
</g>
</g>
</svg>
