<?xml version="1.0" encoding="UTF-8" standalone="no"?>
<!DOCTYPE svg PUBLIC "-//W3C//DTD SVG 1.1//EN"
 "http://www.w3.org/Graphics/SVG/1.1/DTD/svg11.dtd">
<!-- Generated by graphviz version 2.40.1 (20161225.0304)
 -->
<!-- Title: dependencies Pages: 1 -->
<svg width="504pt" height="211pt"
 viewBox="0.00 0.00 504.00 211.00" xmlns="http://www.w3.org/2000/svg" xmlns:xlink="http://www.w3.org/1999/xlink">
<g id="graph0" class="graph" transform="scale(1 1) rotate(0) translate(4 207)">
<title>dependencies</title>
<polygon fill="#ffffff" stroke="transparent" points="-4,4 -4,-207 500,-207 500,4 -4,4"/>
<text text-anchor="start" x="227.0091" y="-42.4" font-family="sans-serif" font-weight="bold" font-size="14.00" fill="#000000">Legend</text>
<polygon fill="#ffffb3" stroke="transparent" points="14,-10 14,-30 34,-30 34,-10 14,-10"/>
<text text-anchor="start" x="37.629" y="-15.4" font-family="sans-serif" font-size="14.00" fill="#000000"> &#160;Declarations</text>
<polygon fill="#8dd3c7" stroke="transparent" points="127,-10 127,-30 147,-30 147,-10 127,-10"/>
<text text-anchor="start" x="150.7251" y="-15.4" font-family="sans-serif" font-size="14.00" fill="#000000"> &#160;Module</text>
<polygon fill="#80b1d3" stroke="transparent" points="213,-10 213,-30 233,-30 233,-10 213,-10"/>
<text text-anchor="start" x="236.7812" y="-15.4" font-family="sans-serif" font-size="14.00" fill="#000000"> &#160;Bootstrap</text>
<polygon fill="#fdb462" stroke="transparent" points="310,-10 310,-30 330,-30 330,-10 310,-10"/>
<text text-anchor="start" x="333.6732" y="-15.4" font-family="sans-serif" font-size="14.00" fill="#000000"> &#160;Providers</text>
<polygon fill="#fb8072" stroke="transparent" points="406,-10 406,-30 426,-30 426,-10 406,-10"/>
<text text-anchor="start" x="429.7258" y="-15.4" font-family="sans-serif" font-size="14.00" fill="#000000"> &#160;Exports</text>
<g id="clust1" class="cluster">
<title>cluster_NotFoundPageModule</title>
<polygon fill="none" stroke="#000000" stroke-dasharray="1,5" points="76,-70 76,-195 420,-195 420,-70 76,-70"/>
</g>
<g id="clust2" class="cluster">
<title>cluster_NotFoundPageModule_declarations</title>
<polygon fill="none" stroke="#000000" points="296,-78 296,-130 412,-130 412,-78 296,-78"/>
</g>
<g id="clust4" class="cluster">
<title>cluster_NotFoundPageModule_imports</title>
<polygon fill="none" stroke="#000000" points="84,-78 84,-130 288,-130 288,-78 84,-78"/>
</g>
<!-- NotFoundPage -->
<g id="node1" class="node">
<title>NotFoundPage</title>
<polygon fill="#ffffb3" stroke="#000000" points="403.9916,-122 304.0084,-122 304.0084,-86 403.9916,-86 403.9916,-122"/>
<text text-anchor="middle" x="354" y="-99.8" font-family="Times,serif" font-size="14.00" fill="#000000">NotFoundPage</text>
</g>
<!-- NotFoundPageModule -->
<g id="node2" class="node">
<title>NotFoundPageModule</title>
<polygon fill="#8dd3c7" stroke="#000000" points="334.5421,-187 331.5421,-191 310.5421,-191 307.5421,-187 191.4579,-187 191.4579,-151 334.5421,-151 334.5421,-187"/>
<text text-anchor="middle" x="263" y="-164.8" font-family="Times,serif" font-size="14.00" fill="#000000">NotFoundPageModule</text>
</g>
<!-- NotFoundPage&#45;&gt;NotFoundPageModule -->
<g id="edge1" class="edge">
<title>NotFoundPage&#45;&gt;NotFoundPageModule</title>
<path fill="none" stroke="#000000" d="M319.3875,-122.1061C319.3875,-122.1061 319.3875,-140.991 319.3875,-140.991"/>
<polygon fill="#000000" stroke="#000000" points="315.8875,-140.9909 319.3875,-150.991 322.8875,-140.991 315.8875,-140.9909"/>
</g>
<!-- NotFoundPageRoutingModule -->
<g id="node3" class="node">
<title>NotFoundPageRoutingModule</title>
<polygon fill="#8dd3c7" stroke="#000000" points="280.1595,-122 277.1595,-126 256.1595,-126 253.1595,-122 91.8405,-122 91.8405,-86 280.1595,-86 280.1595,-122"/>
<text text-anchor="middle" x="186" y="-99.8" font-family="Times,serif" font-size="14.00" fill="#000000">NotFoundPageRoutingModule</text>
</g>
<!-- NotFoundPageRoutingModule&#45;&gt;NotFoundPageModule -->
<g id="edge2" class="edge">
<title>NotFoundPageRoutingModule&#45;&gt;NotFoundPageModule</title>
<path fill="none" stroke="#000000" d="M235.7795,-122.1061C235.7795,-122.1061 235.7795,-140.991 235.7795,-140.991"/>
<polygon fill="#000000" stroke="#000000" points="232.2795,-140.9909 235.7795,-150.991 239.2795,-140.991 232.2795,-140.9909"/>
</g>
</g>
</svg>
