<?xml version="1.0" encoding="UTF-8" standalone="no"?>
<!DOCTYPE svg PUBLIC "-//W3C//DTD SVG 1.1//EN"
 "http://www.w3.org/Graphics/SVG/1.1/DTD/svg11.dtd">
<!-- Generated by graphviz version 2.40.1 (20161225.0304)
 -->
<!-- Title: dependencies Pages: 1 -->
<svg width="504pt" height="211pt"
 viewBox="0.00 0.00 504.00 211.00" xmlns="http://www.w3.org/2000/svg" xmlns:xlink="http://www.w3.org/1999/xlink">
<g id="graph0" class="graph" transform="scale(1 1) rotate(0) translate(4 207)">
<title>dependencies</title>
<polygon fill="#ffffff" stroke="transparent" points="-4,4 -4,-207 500,-207 500,4 -4,4"/>
<text text-anchor="start" x="227.0091" y="-42.4" font-family="sans-serif" font-weight="bold" font-size="14.00" fill="#000000">Legend</text>
<polygon fill="#ffffb3" stroke="transparent" points="14,-10 14,-30 34,-30 34,-10 14,-10"/>
<text text-anchor="start" x="37.629" y="-15.4" font-family="sans-serif" font-size="14.00" fill="#000000"> &#160;Declarations</text>
<polygon fill="#8dd3c7" stroke="transparent" points="127,-10 127,-30 147,-30 147,-10 127,-10"/>
<text text-anchor="start" x="150.7251" y="-15.4" font-family="sans-serif" font-size="14.00" fill="#000000"> &#160;Module</text>
<polygon fill="#80b1d3" stroke="transparent" points="213,-10 213,-30 233,-30 233,-10 213,-10"/>
<text text-anchor="start" x="236.7812" y="-15.4" font-family="sans-serif" font-size="14.00" fill="#000000"> &#160;Bootstrap</text>
<polygon fill="#fdb462" stroke="transparent" points="310,-10 310,-30 330,-30 330,-10 310,-10"/>
<text text-anchor="start" x="333.6732" y="-15.4" font-family="sans-serif" font-size="14.00" fill="#000000"> &#160;Providers</text>
<polygon fill="#fb8072" stroke="transparent" points="406,-10 406,-30 426,-30 426,-10 406,-10"/>
<text text-anchor="start" x="429.7258" y="-15.4" font-family="sans-serif" font-size="14.00" fill="#000000"> &#160;Exports</text>
<g id="clust1" class="cluster">
<title>cluster_PatronDetailsPageModule</title>
<polygon fill="none" stroke="#000000" stroke-dasharray="1,5" points="56,-70 56,-195 440,-195 440,-70 56,-70"/>
</g>
<g id="clust2" class="cluster">
<title>cluster_PatronDetailsPageModule_declarations</title>
<polygon fill="none" stroke="#000000" points="296,-78 296,-130 432,-130 432,-78 296,-78"/>
</g>
<g id="clust4" class="cluster">
<title>cluster_PatronDetailsPageModule_imports</title>
<polygon fill="none" stroke="#000000" points="64,-78 64,-130 288,-130 288,-78 64,-78"/>
</g>
<!-- PatronDetailsPage -->
<g id="node1" class="node">
<title>PatronDetailsPage</title>
<polygon fill="#ffffb3" stroke="#000000" points="423.9131,-122 304.0869,-122 304.0869,-86 423.9131,-86 423.9131,-122"/>
<text text-anchor="middle" x="364" y="-99.8" font-family="Times,serif" font-size="14.00" fill="#000000">PatronDetailsPage</text>
</g>
<!-- PatronDetailsPageModule -->
<g id="node2" class="node">
<title>PatronDetailsPageModule</title>
<polygon fill="#8dd3c7" stroke="#000000" points="344.4622,-187 341.4622,-191 320.4622,-191 317.4622,-187 181.5378,-187 181.5378,-151 344.4622,-151 344.4622,-187"/>
<text text-anchor="middle" x="263" y="-164.8" font-family="Times,serif" font-size="14.00" fill="#000000">PatronDetailsPageModule</text>
</g>
<!-- PatronDetailsPage&#45;&gt;PatronDetailsPageModule -->
<g id="edge1" class="edge">
<title>PatronDetailsPage&#45;&gt;PatronDetailsPageModule</title>
<path fill="none" stroke="#000000" d="M324.3875,-122.1061C324.3875,-122.1061 324.3875,-140.991 324.3875,-140.991"/>
<polygon fill="#000000" stroke="#000000" points="320.8875,-140.9909 324.3875,-150.991 327.8875,-140.991 320.8875,-140.9909"/>
</g>
<!-- PatronDetailsPageRoutingModule -->
<g id="node3" class="node">
<title>PatronDetailsPageRoutingModule</title>
<polygon fill="#8dd3c7" stroke="#000000" points="280.08,-122 277.08,-126 256.08,-126 253.08,-122 71.92,-122 71.92,-86 280.08,-86 280.08,-122"/>
<text text-anchor="middle" x="176" y="-99.8" font-family="Times,serif" font-size="14.00" fill="#000000">PatronDetailsPageRoutingModule</text>
</g>
<!-- PatronDetailsPageRoutingModule&#45;&gt;PatronDetailsPageModule -->
<g id="edge2" class="edge">
<title>PatronDetailsPageRoutingModule&#45;&gt;PatronDetailsPageModule</title>
<path fill="none" stroke="#000000" d="M230.7795,-122.1061C230.7795,-122.1061 230.7795,-140.991 230.7795,-140.991"/>
<polygon fill="#000000" stroke="#000000" points="227.2795,-140.9909 230.7795,-150.991 234.2795,-140.991 227.2795,-140.9909"/>
</g>
</g>
</svg>
