<?xml version="1.0" standalone="no"?>
<!DOCTYPE svg PUBLIC "-//W3C//DTD SVG 20010904//EN"
 "http://www.w3.org/TR/2001/REC-SVG-20010904/DTD/svg10.dtd">
<svg version="1.0" xmlns="http://www.w3.org/2000/svg"
 width="512.000000pt" height="512.000000pt" viewBox="0 0 512.000000 512.000000"
 preserveAspectRatio="xMidYMid meet">
<metadata>
Created by potrace 1.11, written by Peter Selinger 2001-2013
</metadata>
<g transform="translate(0.000000,512.000000) scale(0.100000,-0.100000)"
fill="#000000" stroke="none">
<path d="M2375 4824 c-542 -57 -1015 -271 -1384 -628 -205 -199 -343 -387
-467 -639 -311 -634 -311 -1358 0 -1994 228 -465 595 -827 1069 -1053 203 -97
399 -157 642 -197 154 -25 506 -25 660 0 576 94 1059 367 1423 802 328 392
522 928 522 1445 0 517 -194 1053 -522 1445 -358 428 -838 702 -1393 796 -116
20 -448 33 -550 23z m155 -544 c225 -10 442 -29 458 -39 7 -4 8 -29 2 -76 -5
-39 -9 -129 -10 -201 0 -102 -3 -134 -14 -144 -15 -12 -11 -44 4 -35 5 3 12
-4 15 -16 5 -13 2 -25 -6 -29 -10 -7 -10 -11 1 -25 10 -13 12 -53 7 -199 -6
-162 -5 -185 9 -190 9 -3 64 -6 122 -6 142 0 180 -7 189 -34 3 -11 5 -55 4
-96 -2 -41 1 -71 5 -67 8 8 12 40 17 137 l3 55 155 -3 c200 -5 439 -18 446
-26 13 -12 -25 -738 -39 -752 -2 -1 -21 1 -43 6 -22 5 -92 10 -156 10 -91 0
-119 3 -129 15 -12 15 -35 11 -25 -5 3 -4 -3 -11 -12 -14 -9 -4 -20 -1 -24 6
-6 9 -11 9 -23 -1 -12 -10 -55 -12 -200 -6 -102 4 -214 4 -250 1 l-64 -7 -12
-113 c-11 -100 -10 -117 4 -144 19 -36 21 -68 4 -78 -6 -4 -8 -3 -5 4 5 6 0 8
-13 5 -19 -5 -19 -6 2 -34 23 -30 36 -125 23 -156 -5 -10 -7 -22 -5 -28 5 -14
-1 -389 -6 -394 -2 -2 -10 2 -19 9 -13 10 -15 9 -15 -9 0 -17 5 -22 23 -19 29
4 37 -37 10 -57 -16 -13 -17 -14 -1 -15 16 0 17 -19 18 -217 0 -120 1 -227 3
-238 1 -12 -3 -19 -10 -18 -19 4 -16 -14 3 -25 19 -11 11 -31 -10 -28 -8 1
-23 11 -33 23 -24 28 -69 42 -60 19 8 -21 4 -20 -43 4 -47 24 -50 19 -12 -17
25 -24 25 -25 3 -13 -19 10 -25 10 -32 -1 -7 -11 -9 -10 -9 4 0 16 -12 17
-142 16 -87 -1 -135 -4 -122 -9 23 -9 54 -47 54 -65 0 -5 -5 -2 -11 8 -5 9
-15 17 -20 17 -14 0 -40 -26 -33 -33 3 -3 -1 -15 -8 -27 -11 -18 -11 -23 6
-36 17 -12 17 -14 3 -14 -13 0 -16 -10 -15 -50 1 -28 5 -53 10 -56 4 -3 4 -14
-2 -24 -18 -33 -12 -42 27 -38 31 3 38 9 44 32 5 16 4 37 -2 48 -6 12 -6 18 1
18 5 0 10 -7 10 -15 0 -9 9 -15 22 -15 19 0 20 2 6 18 -9 9 -13 23 -11 30 7
20 32 14 58 -14 23 -25 45 -25 45 -1 0 8 23 12 72 11 74 -1 98 7 98 32 0 10
-7 13 -24 8 -13 -3 -27 -1 -30 5 -4 6 -12 11 -18 11 -6 0 -3 -9 6 -19 31 -34
-3 -36 -36 -2 -17 17 -25 31 -18 31 7 0 10 7 6 17 -6 16 -6 16 11 0 20 -17 63
-13 63 7 -1 13 -25 46 -34 46 -4 0 -5 -14 -2 -31 3 -20 1 -29 -7 -26 -7 2 -12
13 -12 25 0 12 -6 27 -13 34 -7 7 -12 17 -12 22 0 6 5 5 12 -2 19 -19 32 -14
17 6 -13 16 -13 16 7 0 16 -14 23 -15 33 -5 7 7 40 12 82 12 l69 0 6 -33 c8
-40 0 -115 -15 -156 -10 -26 -15 -28 -46 -23 -19 3 -35 2 -35 -4 0 -5 -16 -9
-35 -9 -19 0 -35 -4 -35 -9 0 -5 -30 -14 -67 -21 -51 -9 -76 -20 -99 -42 -29
-27 -33 -28 -42 -13 -6 12 -16 15 -31 10 -11 -3 -21 -11 -21 -16 0 -25 -140 0
-216 39 -33 17 -42 27 -40 46 l1 25 25 -22 c13 -12 19 -15 12 -6 -7 9 -9 24
-6 33 4 9 0 25 -7 35 -8 9 3 -1 23 -23 23 -25 33 -43 27 -47 -8 -5 -8 -9 0
-13 17 -11 24 20 10 46 -7 13 -12 26 -11 30 1 5 -3 7 -10 5 -7 -1 -17 8 -23
20 -5 13 -14 23 -19 23 -6 0 -30 19 -53 42 -41 40 -43 41 -43 17 0 -13 -9 -30
-19 -36 -17 -11 -19 -9 -17 30 0 27 5 41 13 40 7 -2 23 1 37 6 21 8 28 5 56
-30 18 -22 35 -38 38 -35 3 4 -5 17 -18 31 -14 15 -18 25 -11 25 8 0 11 6 7
17 -5 13 0 11 18 -6 34 -32 33 -15 -1 21 -35 37 -47 35 -39 -4 l6 -33 -30 35
c-16 19 -29 46 -29 60 0 24 0 24 15 5 8 -11 25 -20 37 -20 13 -1 28 -4 34 -8
7 -5 9 0 6 14 -7 26 -32 36 -44 18 -7 -11 -12 -9 -25 9 -19 28 -39 24 -39 -9
0 -15 -7 -25 -17 -27 -16 -3 -18 6 -18 75 l0 78 20 -25 c11 -14 20 -31 20 -37
0 -8 13 -13 31 -13 l31 0 -26 31 c-14 17 -26 34 -26 39 0 5 -10 10 -22 12 -26
3 -38 46 -16 59 10 6 10 11 0 21 -14 14 -16 48 -2 48 6 0 10 5 10 11 0 5 -4 8
-9 5 -17 -11 -22 51 -11 116 8 42 10 113 5 216 -5 117 -4 152 6 152 9 0 10 66
6 297 -4 164 -7 333 -7 376 l0 77 -32 0 c-29 0 -30 1 -15 18 21 23 21 32 1 32
-10 0 -14 -6 -11 -14 4 -9 -2 -18 -16 -23 -21 -7 -298 -5 -306 3 -2 2 2 10 9
19 10 12 10 15 -4 15 -14 0 -21 -12 -17 -33 3 -18 -33 -19 -45 -2 -13 17 -14
17 -14 2 0 -15 -13 -18 -107 -18 -231 -2 -268 0 -265 10 3 15 -15 14 -21 -1
-4 -10 -8 -9 -16 2 -7 11 -5 20 11 37 12 13 18 23 14 23 -4 0 -2 9 4 20 9 16
8 18 -5 13 -15 -5 -15 -2 -1 32 19 44 19 45 7 45 -5 0 -11 -8 -13 -17 -3 -13
-6 -10 -10 9 -3 15 -2 25 2 23 13 -8 19 88 11 185 -5 52 -9 89 -9 81 -2 -18
-31 -51 -45 -51 -5 0 -4 6 2 14 12 14 5 46 -9 46 -5 0 -12 -4 -15 -10 -3 -5
-11 -10 -17 -10 -7 0 -6 5 1 14 9 11 9 16 0 21 -6 4 -15 1 -20 -6 -7 -10 -11
-11 -16 -3 -9 13 -61 13 -81 0 -7 -4 -19 -3 -28 5 -8 6 -18 9 -21 5 -4 -4 -1
-11 7 -16 8 -6 10 -10 4 -10 -7 0 -11 -11 -10 -24 0 -13 4 -22 8 -20 11 7 48
-38 41 -50 -4 -6 1 -5 10 2 36 29 51 -14 16 -49 -16 -16 -18 -23 -9 -35 7 -7
17 -11 24 -7 8 5 8 3 1 -8 -6 -8 -8 -32 -5 -54 4 -30 7 -35 12 -22 5 10 12 15
18 12 5 -3 10 1 10 9 0 8 4 17 9 20 5 3 8 -2 7 -11 -1 -21 32 -24 55 -6 29 24
16 -44 -16 -77 -17 -17 -25 -35 -22 -44 7 -18 27 -22 27 -6 0 6 5 9 11 8 6 -2
14 3 17 11 2 8 0 11 -6 7 -6 -4 -8 2 -5 14 10 36 18 10 18 -56 0 -44 -4 -65
-13 -69 -24 -9 -96 -4 -127 8 -28 12 -29 16 -32 82 -1 38 -6 71 -11 74 -5 3
-14 37 -20 75 -6 38 -15 72 -19 75 -27 20 -34 40 -22 60 11 16 10 25 0 45 -30
54 21 265 62 258 9 -2 17 2 17 8 0 9 -14 14 -32 11 -11 -2 -10 37 1 43 5 3 7
15 4 26 -4 15 -2 19 10 15 8 -4 17 1 20 9 9 23 27 20 27 -4 0 -15 7 -20 25
-20 14 0 26 -3 26 -7 8 -43 4 -55 -21 -73 -15 -11 -37 -21 -49 -23 -12 -2 -27
-9 -34 -17 -10 -10 -9 -11 2 -5 8 5 25 9 38 10 20 1 21 -1 6 -17 -9 -10 -18
-16 -22 -14 -3 2 -15 -2 -25 -10 -18 -12 -18 -14 -2 -20 10 -4 24 0 33 9 15
15 18 15 30 -1 12 -15 14 -16 26 -1 6 9 20 15 29 13 10 -1 21 2 24 8 3 5 -2 9
-12 8 -11 -1 -30 -2 -44 -1 -23 2 -24 3 -7 15 9 7 17 18 17 23 0 6 9 22 21 37
11 14 17 26 12 26 -4 0 1 7 11 15 19 15 19 15 -1 15 -11 0 -23 6 -26 14 -7 18
28 28 56 16 12 -5 16 -9 10 -9 -7 -1 -13 -13 -13 -27 0 -24 2 -25 17 -13 15
13 15 12 6 -6 -6 -11 -23 -31 -37 -44 -14 -14 -26 -29 -26 -35 1 -6 9 -1 19
11 16 20 20 20 25 7 4 -9 1 -23 -5 -30 -22 -27 2 -14 26 13 27 32 23 47 -8 37
-20 -6 -19 -3 7 25 34 35 84 47 52 12 -21 -23 -31 -84 -13 -78 7 2 12 17 12
34 0 16 8 37 18 47 16 17 17 16 17 -8 0 -14 3 -26 6 -26 11 0 63 61 66 78 4
23 48 29 48 6 0 -16 2 -16 20 1 16 14 37 19 85 19 35 0 69 -5 77 -11 9 -7 52
-8 137 -1 88 6 126 6 131 -2 5 -8 35 -8 109 -1 56 6 107 10 114 8 8 -1 14 20
17 68 6 83 -2 79 148 83 35 1 51 6 46 13 -3 6 -17 8 -30 5 -14 -4 -34 -1 -45
5 -15 8 -24 8 -32 0 -7 -7 -14 -5 -23 7 -8 9 -14 12 -14 6 0 -10 -35 -13 -44
-3 -5 6 12 641 20 707 l5 52 42 0 c23 0 134 -5 247 -10z m-1313 -936 c-3 -3
-12 -4 -19 -1 -8 3 -5 6 6 6 11 1 17 -2 13 -5z m243 -5 c0 -12 -46 -29 -75
-27 -16 1 -38 10 -48 20 -18 18 -17 19 52 16 39 -2 71 -6 71 -9z m-205 -358
c3 -5 1 -12 -5 -16 -5 -3 -10 1 -10 9 0 18 6 21 15 7z m-85 -25 c0 -2 -7 -7
-16 -10 -8 -3 -12 -2 -9 4 6 10 25 14 25 6z m170 -5 c0 -5 -7 -12 -16 -15 -14
-5 -15 -4 -4 9 14 17 20 19 20 6z m-78 -28 c-3 -16 -7 -22 -10 -15 -4 13 4 42
11 42 2 0 2 -12 -1 -27z m-8 -59 c-13 -10 -13 -14 1 -27 20 -21 19 -51 -2 -68
-15 -11 -16 -11 -6 0 15 18 5 41 -18 41 -24 0 -24 17 -1 43 12 15 14 21 5 24
-7 3 -13 11 -13 19 0 12 5 12 24 -3 21 -15 23 -20 10 -29z m62 -17 c1 -56 -15
-83 -17 -29 -1 15 -2 42 -3 59 0 18 4 31 9 30 6 -2 11 -29 11 -60z m1274
-1853 c0 -14 -3 -14 -15 -4 -8 7 -15 14 -15 16 0 2 7 4 15 4 8 0 15 -7 15 -16z
m-397 -14 c3 -11 1 -18 -4 -14 -5 3 -9 12 -9 20 0 20 7 17 13 -6z m52 -10 c3
-5 1 -10 -4 -10 -6 0 -11 5 -11 10 0 6 2 10 4 10 3 0 8 -4 11 -10z m453 -2 c9
-9 12 -9 12 0 0 7 7 12 15 12 27 0 15 -19 -17 -28 -21 -6 -38 -5 -45 1 -9 6
-18 5 -28 -3 -12 -10 -15 -10 -15 2 0 8 3 18 7 21 11 11 58 8 71 -5z m-165
-65 c-5 -12 -2 -15 10 -10 9 3 17 2 17 -3 0 -14 -24 -12 -38 2 -16 16 -15 28
3 28 9 0 12 -6 8 -17z m57 7 c0 -5 6 -7 14 -4 8 3 17 1 20 -4 3 -5 -2 -12 -13
-15 -11 -2 -23 3 -30 14 -7 12 -7 19 -1 19 5 0 10 -4 10 -10z m142 -2 c-7 -7
-12 -22 -12 -34 0 -33 -18 -39 -44 -15 -16 15 -25 18 -33 10 -22 -22 -28 -4
-6 19 l22 24 16 -29 c11 -20 15 -23 12 -8 -3 25 12 44 38 45 15 0 16 -3 7 -12z
m-481 -15 c13 -16 12 -17 -3 -4 -17 13 -22 21 -14 21 2 0 10 -8 17 -17z m26
-35 c6 -5 9 -16 6 -24 -3 -8 4 -24 16 -35 41 -39 20 -30 -26 10 -25 23 -47 40
-48 39 -10 -12 -14 -78 -5 -78 5 0 10 9 10 20 0 24 17 26 41 4 14 -13 15 -21
7 -45 -10 -28 -48 -43 -48 -18 0 5 -5 7 -10 4 -6 -4 -18 -4 -28 0 -14 5 -14 7
-2 15 12 8 12 10 -3 16 -23 9 -22 31 3 39 11 4 17 11 14 17 -4 5 -1 21 7 34
13 24 37 25 66 2z m-87 -24 c0 -8 -4 -12 -10 -9 -5 3 -10 10 -10 16 0 5 5 9
10 9 6 0 10 -7 10 -16z"/>
<path d="M1150 3311 c0 -6 6 -11 14 -11 17 0 29 -27 16 -35 -6 -3 -15 -15 -21
-27 -9 -16 -8 -19 3 -12 7 5 17 9 22 9 5 0 10 7 12 15 2 8 6 25 10 38 5 16 2
22 -9 22 -8 0 -22 3 -31 6 -9 3 -16 1 -16 -5z"/>
<path d="M1517 3290 c6 -24 26 -21 31 3 2 11 -3 17 -16 17 -15 0 -19 -5 -15
-20z"/>
<path d="M1643 3295 c-3 -9 -3 -18 0 -21 9 -9 27 6 27 22 0 19 -19 18 -27 -1z"/>
<path d="M1530 3180 c0 -11 2 -20 4 -20 2 0 6 9 9 20 3 11 1 20 -4 20 -5 0 -9
-9 -9 -20z"/>
<path d="M1562 3178 c-17 -17 4 -51 28 -43 10 3 22 0 26 -6 4 -8 3 -9 -4 -5
-17 10 -15 -15 4 -52 8 -17 16 -41 17 -52 1 -12 6 -19 14 -16 7 3 13 -1 13 -9
0 -8 -7 -15 -15 -15 -8 0 -15 -6 -15 -14 0 -9 7 -12 19 -9 15 4 20 0 18 -16
-1 -13 -8 -21 -19 -21 -10 0 -18 -7 -18 -15 0 -8 5 -15 10 -15 6 0 10 5 10 10
0 21 18 9 22 -14 4 -19 0 -26 -19 -30 -12 -4 -23 -10 -23 -15 0 -5 9 -7 21 -4
12 3 25 0 29 -7 5 -9 9 -9 14 -1 4 6 2 11 -4 11 -6 0 -5 11 5 30 10 19 20 27
30 24 11 -5 13 -2 9 10 -3 9 -10 13 -15 10 -8 -5 -14 26 -10 50 1 4 -3 14 -10
22 -6 8 -9 20 -6 29 4 8 2 17 -3 20 -10 6 -50 87 -50 100 0 7 -52 54 -60 55
-4 0 -11 -5 -18 -12z"/>
<path d="M1533 3053 c-19 -7 -16 -32 4 -29 18 3 29 21 16 29 -4 2 -14 2 -20 0z"/>
<path d="M1415 3020 c-16 -31 -20 -60 -7 -60 4 0 8 -9 9 -20 1 -11 -2 -20 -8
-20 -5 0 -9 -34 -8 -75 1 -41 5 -75 9 -75 8 0 23 67 19 86 -1 5 -1 11 0 14 1
3 4 29 7 57 5 48 3 52 -13 46 -15 -6 -16 -4 -6 9 7 8 11 17 8 20 -3 3 1 11 10
18 17 14 20 30 5 30 -5 0 -16 -13 -25 -30z"/>
<path d="M1460 3030 c0 -11 4 -20 9 -20 6 0 9 9 8 20 -1 11 -5 20 -9 20 -4 0
-8 -9 -8 -20z"/>
<path d="M1470 2975 c-18 -33 -10 -39 13 -10 9 13 13 26 9 29 -5 3 -15 -6 -22
-19z"/>
<path d="M1520 2964 c0 -14 4 -23 10 -19 26 16 5 -24 -30 -59 -43 -43 -56 -85
-20 -66 11 6 21 15 21 20 1 6 2 14 3 19 0 5 12 19 25 30 15 13 24 33 26 55 1
20 -2 33 -7 30 -4 -3 -8 0 -8 5 0 6 -4 11 -10 11 -5 0 -10 -12 -10 -26z"/>
<path d="M1457 2915 c-4 -8 -2 -17 4 -20 5 -4 7 -11 4 -16 -4 -5 -2 -9 2 -9
13 0 34 40 28 50 -9 15 -32 12 -38 -5z"/>
<path d="M1570 2893 c1 -27 1 -27 15 -9 19 25 19 36 0 36 -10 0 -15 -10 -15
-27z"/>
<path d="M1517 2853 c-10 -10 -8 -25 2 -18 5 3 11 -3 13 -12 3 -13 6 -10 10
10 5 26 -9 37 -25 20z"/>
<path d="M1577 2853 c-4 -3 -7 -15 -7 -26 0 -16 3 -17 15 -7 8 7 15 19 15 26
0 15 -12 19 -23 7z"/>
<path d="M1460 2775 c0 -27 9 -32 28 -13 18 18 14 38 -8 38 -15 0 -20 -7 -20
-25z"/>
<path d="M1640 2785 c-10 -13 -9 -15 9 -15 12 0 21 6 21 15 0 8 -4 15 -9 15
-5 0 -14 -7 -21 -15z"/>
<path d="M1737 2779 c-3 -13 -3 -42 0 -66 5 -41 7 -43 23 -28 16 15 16 20 4
62 -17 57 -20 60 -27 32z"/>
<path d="M2022 2768 c2 -12 9 -23 17 -26 8 -3 11 0 7 6 -3 6 -2 13 4 17 17 11
11 25 -11 25 -15 0 -20 -5 -17 -22z"/>
<path d="M1397 2736 c-3 -7 -1 -19 3 -26 5 -8 5 -21 1 -29 -5 -9 -5 -24 -2
-34 6 -18 8 -18 21 -2 11 13 11 18 1 25 -9 5 -10 10 -2 14 15 10 14 35 -3 51
-11 12 -15 12 -19 1z"/>
<path d="M1238 2718 c5 -21 23 -23 40 -6 19 19 14 27 -16 25 -22 -2 -28 -6
-24 -19z"/>
<path d="M1205 2720 c-4 -6 -11 -8 -16 -5 -15 10 -10 -42 6 -55 8 -7 15 -11
16 -9 2 10 4 79 2 79 -1 0 -5 -5 -8 -10z"/>
<path d="M1462 2675 c0 -30 4 -55 9 -55 9 0 22 40 17 56 -1 5 3 19 10 32 7 12
8 22 3 22 -5 0 -12 -6 -14 -12 -4 -10 -6 -10 -6 0 -1 6 -5 12 -10 12 -5 0 -9
-25 -9 -55z"/>
<path d="M1513 2714 c-3 -8 -1 -20 6 -27 13 -13 16 -10 25 21 6 16 3 22 -9 22
-8 0 -18 -7 -22 -16z"/>
<path d="M1591 2722 c-1 -7 -5 -10 -11 -7 -5 3 -10 -1 -10 -9 0 -8 5 -18 10
-21 12 -7 24 19 17 37 -4 10 -6 10 -6 0z"/>
<path d="M2020 2709 c0 -18 2 -19 15 -9 15 12 12 30 -6 30 -5 0 -9 -10 -9 -21z"/>
<path d="M1515 2652 c-3 -8 -3 -17 -1 -20 9 -8 36 7 36 21 0 18 -28 17 -35 -1z"/>
<path d="M1595 2660 c-16 -7 -17 -9 -3 -9 9 -1 20 4 23 9 7 11 7 11 -20 0z"/>
<path d="M1650 2650 c0 -19 3 -21 12 -12 9 9 9 15 0 24 -9 9 -12 7 -12 -12z"/>
<path d="M1233 2590 c-1 -10 5 -21 13 -24 9 -3 14 1 14 13 0 25 -25 34 -27 11z"/>
<path d="M1575 2590 c3 -5 12 -7 20 -3 21 7 19 13 -6 13 -11 0 -18 -4 -14 -10z"/>
<path d="M2025 2580 c-3 -5 -1 -10 4 -10 6 0 11 5 11 10 0 6 -2 10 -4 10 -3 0
-8 -4 -11 -10z"/>
<path d="M2857 2533 c-4 -3 -7 -13 -7 -22 0 -12 2 -13 8 -3 5 8 16 10 28 5 17
-6 17 -5 5 10 -14 18 -24 21 -34 10z"/>
<path d="M2930 2031 c0 -12 6 -21 15 -21 8 0 15 4 15 9 0 5 -7 14 -15 21 -13
10 -15 9 -15 -9z"/>
<path d="M2739 1888 c9 -25 41 -37 41 -16 0 17 -20 38 -37 38 -9 0 -10 -7 -4
-22z"/>
<path d="M2940 1885 c0 -8 4 -15 10 -15 5 0 7 7 4 15 -4 8 -8 15 -10 15 -2 0
-4 -7 -4 -15z"/>
<path d="M2755 1530 c-30 -14 -35 -19 -18 -19 12 -1 23 -6 25 -12 3 -8 14 -6
36 5 18 9 37 14 42 11 14 -9 12 9 -2 23 -16 16 -35 14 -83 -8z"/>
<path d="M2621 1501 c-7 -5 -11 -13 -8 -18 3 -5 -2 -9 -11 -10 -20 -2 -41 -7
-64 -17 -9 -4 -21 -5 -27 -2 -5 4 -13 0 -18 -7 -4 -8 -32 -26 -61 -42 -63 -34
-99 -84 -82 -114 10 -19 12 -19 30 -4 13 12 17 24 13 45 -4 18 -1 28 6 28 7 0
10 -4 6 -9 -12 -21 32 -16 59 7 17 13 37 21 48 19 15 -4 18 -1 13 14 -4 13 -2
19 8 19 10 0 13 -7 10 -20 -4 -16 0 -20 18 -20 17 0 20 3 12 11 -16 16 -5 39
18 39 14 0 19 -7 19 -25 0 -16 6 -25 15 -25 17 0 20 16 5 25 -16 10 -11 21 15
33 24 11 25 10 25 -23 0 -24 5 -35 15 -35 17 0 19 12 5 26 -12 12 -2 47 11 38
5 -3 9 -1 9 5 0 15 -18 23 -22 10 -3 -8 -13 -6 -31 6 -20 12 -26 23 -22 36 7
21 6 22 -14 10z"/>
<path d="M2730 1422 c0 -17 12 -42 20 -42 12 0 6 43 -7 48 -7 2 -13 -1 -13 -6z"/>
<path d="M2220 1412 c0 -4 5 -13 12 -20 16 -16 28 -15 28 2 0 8 -7 17 -16 20
-21 8 -24 8 -24 -2z"/>
<path d="M2860 1410 c0 -5 7 -10 15 -10 8 0 15 5 15 10 0 6 -7 10 -15 10 -8 0
-15 -4 -15 -10z"/>
<path d="M2861 1360 c0 -8 4 -24 9 -35 l9 -20 0 20 c0 11 -4 27 -9 35 -9 13
-10 13 -9 0z"/>
<path d="M2931 1329 c-1 -16 4 -26 14 -26 9 0 11 4 6 11 -4 6 -11 18 -14 26
-3 9 -6 5 -6 -11z"/>
<path d="M2606 1324 c-9 -23 -8 -24 25 -24 32 0 32 13 -1 30 -13 7 -19 6 -24
-6z"/>
<path d="M2670 1322 c0 -22 21 -34 39 -23 9 6 9 10 -1 18 -30 23 -38 24 -38 5z"/>
<path d="M2800 1320 c0 -13 7 -20 18 -20 26 0 34 11 21 27 -17 20 -39 16 -39
-7z"/>
<path d="M2477 1274 c-9 -9 11 -44 25 -44 7 0 6 5 -2 15 -9 11 -9 15 -1 15 7
0 9 5 6 10 -7 11 -19 13 -28 4z"/>
<path d="M2546 1264 c-10 -25 -7 -29 18 -30 17 -1 23 2 19 12 -8 21 11 17 33
-7 14 -16 16 -23 6 -26 -6 -3 -10 -9 -6 -14 3 -5 0 -9 -5 -9 -13 0 -15 -27 -3
-34 5 -3 18 -2 31 1 21 5 21 7 5 31 -14 21 -14 24 -1 19 11 -4 13 0 10 14 -3
10 -9 19 -13 19 -5 0 -10 7 -12 16 -4 23 -74 29 -82 8z"/>
<path d="M2800 1258 c0 -31 17 -45 33 -29 8 8 5 17 -11 33 l-22 22 0 -26z"/>
<path d="M2220 1247 c0 -20 4 -24 19 -20 23 6 21 37 -2 41 -12 3 -17 -4 -17
-21z"/>
<path d="M2330 1259 c0 -5 9 -9 20 -9 11 0 20 2 20 4 0 2 -9 6 -20 9 -11 3
-20 1 -20 -4z"/>
<path d="M2669 1251 c13 -23 26 -27 36 -10 8 13 6 15 -23 24 -22 6 -23 5 -13
-14z"/>
<path d="M2863 1250 c-1 -14 4 -20 18 -20 23 0 26 25 3 34 -9 3 -17 6 -18 6
-1 0 -2 -9 -3 -20z"/>
<path d="M2667 1205 c-9 -23 3 -45 24 -45 24 0 24 22 0 44 -16 15 -19 15 -24
1z m24 -22 c13 -16 12 -17 -3 -4 -10 7 -18 15 -18 17 0 8 8 3 21 -13z"/>
<path d="M2729 1183 c8 -30 19 -37 40 -24 18 12 -3 51 -28 51 -16 0 -18 -5
-12 -27z"/>
<path d="M2803 1204 c3 -4 2 -16 -4 -27 -10 -18 -8 -19 25 -15 20 2 36 1 36
-3 0 -9 39 1 45 12 9 14 -35 32 -49 20 -10 -8 -17 -7 -26 4 -7 8 -17 15 -23
15 -6 0 -7 -3 -4 -6z"/>
<path d="M2510 1185 c-7 -8 -16 -12 -21 -9 -5 3 -9 0 -9 -5 0 -6 9 -11 20 -11
12 0 20 7 20 16 0 15 2 15 25 0 32 -21 38 -20 25 4 -13 24 -42 26 -60 5z"/>
<path d="M2482 1128 c2 -7 19 -21 38 -30 30 -15 37 -15 68 -2 25 10 32 11 24
1 -8 -10 -2 -13 29 -14 21 -1 39 0 39 3 0 13 -35 42 -46 37 -7 -2 -28 0 -48 5
-38 11 -44 5 -23 -18 10 -12 9 -12 -6 0 -15 11 -20 11 -27 1 -6 -11 -11 -9
-19 8 -12 22 -35 30 -29 9z"/>
<path d="M2686 1107 c7 -19 54 -31 67 -18 8 8 16 6 29 -6 17 -15 19 -15 36 0
17 15 19 15 35 0 11 -11 17 -13 17 -5 0 7 8 12 18 12 15 1 15 2 -3 16 -11 8
-21 10 -23 5 -2 -6 -12 -6 -27 1 -18 8 -28 8 -39 -1 -10 -8 -16 -9 -21 -1 -3
5 -11 10 -16 10 -6 0 -7 -5 -3 -12 5 -7 1 -9 -12 -5 -64 20 -64 20 -58 4z"/>
<path d="M2845 960 c-4 -6 -11 -8 -16 -5 -5 4 -9 1 -9 -4 0 -6 4 -11 8 -11 5
0 14 -11 20 -25 12 -26 37 -33 45 -12 2 6 -5 21 -17 32 -12 11 -17 16 -10 12
7 -4 15 -4 18 1 3 6 -1 13 -10 16 -21 8 -22 8 -29 -4z"/>
<path d="M2348 890 c-4 -24 -1 -40 10 -52 22 -26 37 -22 19 5 -8 13 -17 37
-19 53 -3 29 -4 29 -10 -6z"/>
<path d="M2940 902 c-22 -10 -22 -28 1 -29 13 -1 19 5 19 18 0 10 -1 19 -2 18
-2 0 -10 -3 -18 -7z"/>
</g>
</svg>
