<?xml version="1.0" encoding="UTF-8" standalone="no"?>
<!DOCTYPE svg PUBLIC "-//W3C//DTD SVG 1.1//EN"
 "http://www.w3.org/Graphics/SVG/1.1/DTD/svg11.dtd">
<!-- Generated by graphviz version 2.40.1 (20161225.0304)
 -->
<!-- Title: dependencies Pages: 1 -->
<svg width="546pt" height="211pt"
 viewBox="0.00 0.00 546.00 211.00" xmlns="http://www.w3.org/2000/svg" xmlns:xlink="http://www.w3.org/1999/xlink">
<g id="graph0" class="graph" transform="scale(1 1) rotate(0) translate(4 207)">
<title>dependencies</title>
<polygon fill="#ffffff" stroke="transparent" points="-4,4 -4,-207 542,-207 542,4 -4,4"/>
<text text-anchor="start" x="248.0091" y="-42.4" font-family="sans-serif" font-weight="bold" font-size="14.00" fill="#000000">Legend</text>
<polygon fill="#ffffb3" stroke="transparent" points="35,-10 35,-30 55,-30 55,-10 35,-10"/>
<text text-anchor="start" x="58.629" y="-15.4" font-family="sans-serif" font-size="14.00" fill="#000000"> &#160;Declarations</text>
<polygon fill="#8dd3c7" stroke="transparent" points="148,-10 148,-30 168,-30 168,-10 148,-10"/>
<text text-anchor="start" x="171.7251" y="-15.4" font-family="sans-serif" font-size="14.00" fill="#000000"> &#160;Module</text>
<polygon fill="#80b1d3" stroke="transparent" points="234,-10 234,-30 254,-30 254,-10 234,-10"/>
<text text-anchor="start" x="257.7812" y="-15.4" font-family="sans-serif" font-size="14.00" fill="#000000"> &#160;Bootstrap</text>
<polygon fill="#fdb462" stroke="transparent" points="331,-10 331,-30 351,-30 351,-10 331,-10"/>
<text text-anchor="start" x="354.6732" y="-15.4" font-family="sans-serif" font-size="14.00" fill="#000000"> &#160;Providers</text>
<polygon fill="#fb8072" stroke="transparent" points="427,-10 427,-30 447,-30 447,-10 427,-10"/>
<text text-anchor="start" x="450.7258" y="-15.4" font-family="sans-serif" font-size="14.00" fill="#000000"> &#160;Exports</text>
<g id="clust1" class="cluster">
<title>cluster_SettingsPushNotificationsPageModule</title>
<polygon fill="none" stroke="#000000" stroke-dasharray="1,5" points="8,-70 8,-195 530,-195 530,-70 8,-70"/>
</g>
<g id="clust2" class="cluster">
<title>cluster_SettingsPushNotificationsPageModule_declarations</title>
<polygon fill="none" stroke="#000000" points="318,-78 318,-130 522,-130 522,-78 318,-78"/>
</g>
<g id="clust4" class="cluster">
<title>cluster_SettingsPushNotificationsPageModule_imports</title>
<polygon fill="none" stroke="#000000" points="16,-78 16,-130 310,-130 310,-78 16,-78"/>
</g>
<!-- SettingsPushNotificationsPage -->
<g id="node1" class="node">
<title>SettingsPushNotificationsPage</title>
<polygon fill="#ffffb3" stroke="#000000" points="514.1469,-122 325.8531,-122 325.8531,-86 514.1469,-86 514.1469,-122"/>
<text text-anchor="middle" x="420" y="-99.8" font-family="Times,serif" font-size="14.00" fill="#000000">SettingsPushNotificationsPage</text>
</g>
<!-- SettingsPushNotificationsPageModule -->
<g id="node2" class="node">
<title>SettingsPushNotificationsPageModule</title>
<polygon fill="#8dd3c7" stroke="#000000" points="400.1965,-187 397.1965,-191 376.1965,-191 373.1965,-187 167.8035,-187 167.8035,-151 400.1965,-151 400.1965,-187"/>
<text text-anchor="middle" x="284" y="-164.8" font-family="Times,serif" font-size="14.00" fill="#000000">SettingsPushNotificationsPageModule</text>
</g>
<!-- SettingsPushNotificationsPage&#45;&gt;SettingsPushNotificationsPageModule -->
<g id="edge1" class="edge">
<title>SettingsPushNotificationsPage&#45;&gt;SettingsPushNotificationsPageModule</title>
<path fill="none" stroke="#000000" d="M362.8875,-122.1061C362.8875,-122.1061 362.8875,-140.991 362.8875,-140.991"/>
<polygon fill="#000000" stroke="#000000" points="359.3875,-140.9909 362.8875,-150.991 366.3875,-140.991 359.3875,-140.9909"/>
</g>
<!-- SettingsPushNotificationsPageRoutingModule -->
<g id="node3" class="node">
<title>SettingsPushNotificationsPageRoutingModule</title>
<polygon fill="#8dd3c7" stroke="#000000" points="301.8144,-122 298.8144,-126 277.8144,-126 274.8144,-122 24.1856,-122 24.1856,-86 301.8144,-86 301.8144,-122"/>
<text text-anchor="middle" x="163" y="-99.8" font-family="Times,serif" font-size="14.00" fill="#000000">SettingsPushNotificationsPageRoutingModule</text>
</g>
<!-- SettingsPushNotificationsPageRoutingModule&#45;&gt;SettingsPushNotificationsPageModule -->
<g id="edge2" class="edge">
<title>SettingsPushNotificationsPageRoutingModule&#45;&gt;SettingsPushNotificationsPageModule</title>
<path fill="none" stroke="#000000" d="M234.7795,-122.1061C234.7795,-122.1061 234.7795,-140.991 234.7795,-140.991"/>
<polygon fill="#000000" stroke="#000000" points="231.2795,-140.9909 234.7795,-150.991 238.2795,-140.991 231.2795,-140.9909"/>
</g>
</g>
</svg>
