<?xml version="1.0" encoding="UTF-8" standalone="no"?>
<!DOCTYPE svg PUBLIC "-//W3C//DTD SVG 1.1//EN"
 "http://www.w3.org/Graphics/SVG/1.1/DTD/svg11.dtd">
<!-- Generated by graphviz version 2.40.1 (20161225.0304)
 -->
<!-- Title: dependencies Pages: 1 -->
<svg width="504pt" height="211pt"
 viewBox="0.00 0.00 504.00 211.00" xmlns="http://www.w3.org/2000/svg" xmlns:xlink="http://www.w3.org/1999/xlink">
<g id="graph0" class="graph" transform="scale(1 1) rotate(0) translate(4 207)">
<title>dependencies</title>
<polygon fill="#ffffff" stroke="transparent" points="-4,4 -4,-207 500,-207 500,4 -4,4"/>
<text text-anchor="start" x="227.0091" y="-42.4" font-family="sans-serif" font-weight="bold" font-size="14.00" fill="#000000">Legend</text>
<polygon fill="#ffffb3" stroke="transparent" points="14,-10 14,-30 34,-30 34,-10 14,-10"/>
<text text-anchor="start" x="37.629" y="-15.4" font-family="sans-serif" font-size="14.00" fill="#000000"> &#160;Declarations</text>
<polygon fill="#8dd3c7" stroke="transparent" points="127,-10 127,-30 147,-30 147,-10 127,-10"/>
<text text-anchor="start" x="150.7251" y="-15.4" font-family="sans-serif" font-size="14.00" fill="#000000"> &#160;Module</text>
<polygon fill="#80b1d3" stroke="transparent" points="213,-10 213,-30 233,-30 233,-10 213,-10"/>
<text text-anchor="start" x="236.7812" y="-15.4" font-family="sans-serif" font-size="14.00" fill="#000000"> &#160;Bootstrap</text>
<polygon fill="#fdb462" stroke="transparent" points="310,-10 310,-30 330,-30 330,-10 310,-10"/>
<text text-anchor="start" x="333.6732" y="-15.4" font-family="sans-serif" font-size="14.00" fill="#000000"> &#160;Providers</text>
<polygon fill="#fb8072" stroke="transparent" points="406,-10 406,-30 426,-30 426,-10 406,-10"/>
<text text-anchor="start" x="429.7258" y="-15.4" font-family="sans-serif" font-size="14.00" fill="#000000"> &#160;Exports</text>
<g id="clust1" class="cluster">
<title>cluster_RadioPageModule</title>
<polygon fill="none" stroke="#000000" stroke-dasharray="1,5" points="113,-70 113,-195 383,-195 383,-70 113,-70"/>
</g>
<g id="clust2" class="cluster">
<title>cluster_RadioPageModule_declarations</title>
<polygon fill="none" stroke="#000000" points="283,-78 283,-130 375,-130 375,-78 283,-78"/>
</g>
<g id="clust4" class="cluster">
<title>cluster_RadioPageModule_imports</title>
<polygon fill="none" stroke="#000000" points="121,-78 121,-130 275,-130 275,-78 121,-78"/>
</g>
<!-- RadioPage -->
<g id="node1" class="node">
<title>RadioPage</title>
<polygon fill="#ffffb3" stroke="#000000" points="367.1544,-122 290.8456,-122 290.8456,-86 367.1544,-86 367.1544,-122"/>
<text text-anchor="middle" x="329" y="-99.8" font-family="Times,serif" font-size="14.00" fill="#000000">RadioPage</text>
</g>
<!-- RadioPageModule -->
<g id="node2" class="node">
<title>RadioPageModule</title>
<polygon fill="#8dd3c7" stroke="#000000" points="316.2036,-187 313.2036,-191 292.2036,-191 289.2036,-187 195.7964,-187 195.7964,-151 316.2036,-151 316.2036,-187"/>
<text text-anchor="middle" x="256" y="-164.8" font-family="Times,serif" font-size="14.00" fill="#000000">RadioPageModule</text>
</g>
<!-- RadioPage&#45;&gt;RadioPageModule -->
<g id="edge1" class="edge">
<title>RadioPage&#45;&gt;RadioPageModule</title>
<path fill="none" stroke="#000000" d="M303.3875,-122.1061C303.3875,-122.1061 303.3875,-140.991 303.3875,-140.991"/>
<polygon fill="#000000" stroke="#000000" points="299.8875,-140.9909 303.3875,-150.991 306.8875,-140.991 299.8875,-140.9909"/>
</g>
<!-- RadioRoutingModule -->
<g id="node3" class="node">
<title>RadioRoutingModule</title>
<polygon fill="#8dd3c7" stroke="#000000" points="267.1094,-122 264.1094,-126 243.1094,-126 240.1094,-122 128.8906,-122 128.8906,-86 267.1094,-86 267.1094,-122"/>
<text text-anchor="middle" x="198" y="-99.8" font-family="Times,serif" font-size="14.00" fill="#000000">RadioRoutingModule</text>
</g>
<!-- RadioRoutingModule&#45;&gt;RadioPageModule -->
<g id="edge2" class="edge">
<title>RadioRoutingModule&#45;&gt;RadioPageModule</title>
<path fill="none" stroke="#000000" d="M231.4765,-122.1061C231.4765,-122.1061 231.4765,-140.991 231.4765,-140.991"/>
<polygon fill="#000000" stroke="#000000" points="227.9766,-140.9909 231.4765,-150.991 234.9766,-140.991 227.9766,-140.9909"/>
</g>
</g>
</svg>
