<?xml version="1.0" encoding="UTF-8" standalone="no"?>
<!DOCTYPE svg PUBLIC "-//W3C//DTD SVG 1.1//EN"
 "http://www.w3.org/Graphics/SVG/1.1/DTD/svg11.dtd">
<!-- Generated by graphviz version 2.40.1 (20161225.0304)
 -->
<!-- Title: dependencies Pages: 1 -->
<svg width="504pt" height="211pt"
 viewBox="0.00 0.00 504.00 211.00" xmlns="http://www.w3.org/2000/svg" xmlns:xlink="http://www.w3.org/1999/xlink">
<g id="graph0" class="graph" transform="scale(1 1) rotate(0) translate(4 207)">
<title>dependencies</title>
<polygon fill="#ffffff" stroke="transparent" points="-4,4 -4,-207 500,-207 500,4 -4,4"/>
<text text-anchor="start" x="227.0091" y="-42.4" font-family="sans-serif" font-weight="bold" font-size="14.00" fill="#000000">Legend</text>
<polygon fill="#ffffb3" stroke="transparent" points="14,-10 14,-30 34,-30 34,-10 14,-10"/>
<text text-anchor="start" x="37.629" y="-15.4" font-family="sans-serif" font-size="14.00" fill="#000000"> &#160;Declarations</text>
<polygon fill="#8dd3c7" stroke="transparent" points="127,-10 127,-30 147,-30 147,-10 127,-10"/>
<text text-anchor="start" x="150.7251" y="-15.4" font-family="sans-serif" font-size="14.00" fill="#000000"> &#160;Module</text>
<polygon fill="#80b1d3" stroke="transparent" points="213,-10 213,-30 233,-30 233,-10 213,-10"/>
<text text-anchor="start" x="236.7812" y="-15.4" font-family="sans-serif" font-size="14.00" fill="#000000"> &#160;Bootstrap</text>
<polygon fill="#fdb462" stroke="transparent" points="310,-10 310,-30 330,-30 330,-10 310,-10"/>
<text text-anchor="start" x="333.6732" y="-15.4" font-family="sans-serif" font-size="14.00" fill="#000000"> &#160;Providers</text>
<polygon fill="#fb8072" stroke="transparent" points="406,-10 406,-30 426,-30 426,-10 406,-10"/>
<text text-anchor="start" x="429.7258" y="-15.4" font-family="sans-serif" font-size="14.00" fill="#000000"> &#160;Exports</text>
<g id="clust1" class="cluster">
<title>cluster_ArticleEditDetailsPageModule</title>
<polygon fill="none" stroke="#000000" stroke-dasharray="1,5" points="30,-70 30,-195 466,-195 466,-70 30,-70"/>
</g>
<g id="clust2" class="cluster">
<title>cluster_ArticleEditDetailsPageModule_declarations</title>
<polygon fill="none" stroke="#000000" points="296,-78 296,-130 458,-130 458,-78 296,-78"/>
</g>
<g id="clust4" class="cluster">
<title>cluster_ArticleEditDetailsPageModule_imports</title>
<polygon fill="none" stroke="#000000" points="38,-78 38,-130 288,-130 288,-78 38,-78"/>
</g>
<!-- ArticleEditDetailsPage -->
<g id="node1" class="node">
<title>ArticleEditDetailsPage</title>
<polygon fill="#ffffb3" stroke="#000000" points="449.566,-122 304.434,-122 304.434,-86 449.566,-86 449.566,-122"/>
<text text-anchor="middle" x="377" y="-99.8" font-family="Times,serif" font-size="14.00" fill="#000000">ArticleEditDetailsPage</text>
</g>
<!-- ArticleEditDetailsPageModule -->
<g id="node2" class="node">
<title>ArticleEditDetailsPageModule</title>
<polygon fill="#8dd3c7" stroke="#000000" points="357.1162,-187 354.1162,-191 333.1162,-191 330.1162,-187 168.8838,-187 168.8838,-151 357.1162,-151 357.1162,-187"/>
<text text-anchor="middle" x="263" y="-164.8" font-family="Times,serif" font-size="14.00" fill="#000000">ArticleEditDetailsPageModule</text>
</g>
<!-- ArticleEditDetailsPage&#45;&gt;ArticleEditDetailsPageModule -->
<g id="edge1" class="edge">
<title>ArticleEditDetailsPage&#45;&gt;ArticleEditDetailsPageModule</title>
<path fill="none" stroke="#000000" d="M330.8875,-122.1061C330.8875,-122.1061 330.8875,-140.991 330.8875,-140.991"/>
<polygon fill="#000000" stroke="#000000" points="327.3875,-140.9909 330.8875,-150.991 334.3875,-140.991 327.3875,-140.9909"/>
</g>
<!-- ArticleEditDetailsPageRoutingModule -->
<g id="node3" class="node">
<title>ArticleEditDetailsPageRoutingModule</title>
<polygon fill="#8dd3c7" stroke="#000000" points="279.7338,-122 276.7338,-126 255.7338,-126 252.7338,-122 46.2662,-122 46.2662,-86 279.7338,-86 279.7338,-122"/>
<text text-anchor="middle" x="163" y="-99.8" font-family="Times,serif" font-size="14.00" fill="#000000">ArticleEditDetailsPageRoutingModule</text>
</g>
<!-- ArticleEditDetailsPageRoutingModule&#45;&gt;ArticleEditDetailsPageModule -->
<g id="edge2" class="edge">
<title>ArticleEditDetailsPageRoutingModule&#45;&gt;ArticleEditDetailsPageModule</title>
<path fill="none" stroke="#000000" d="M224.2795,-122.1061C224.2795,-122.1061 224.2795,-140.991 224.2795,-140.991"/>
<polygon fill="#000000" stroke="#000000" points="220.7795,-140.9909 224.2795,-150.991 227.7795,-140.991 220.7795,-140.9909"/>
</g>
</g>
</svg>
