<?xml version="1.0" encoding="UTF-8" standalone="no"?>
<!DOCTYPE svg PUBLIC "-//W3C//DTD SVG 1.1//EN"
 "http://www.w3.org/Graphics/SVG/1.1/DTD/svg11.dtd">
<!-- Generated by graphviz version 2.40.1 (20161225.0304)
 -->
<!-- Title: dependencies Pages: 1 -->
<svg width="504pt" height="211pt"
 viewBox="0.00 0.00 504.00 211.00" xmlns="http://www.w3.org/2000/svg" xmlns:xlink="http://www.w3.org/1999/xlink">
<g id="graph0" class="graph" transform="scale(1 1) rotate(0) translate(4 207)">
<title>dependencies</title>
<polygon fill="#ffffff" stroke="transparent" points="-4,4 -4,-207 500,-207 500,4 -4,4"/>
<text text-anchor="start" x="227.0091" y="-42.4" font-family="sans-serif" font-weight="bold" font-size="14.00" fill="#000000">Legend</text>
<polygon fill="#ffffb3" stroke="transparent" points="14,-10 14,-30 34,-30 34,-10 14,-10"/>
<text text-anchor="start" x="37.629" y="-15.4" font-family="sans-serif" font-size="14.00" fill="#000000"> &#160;Declarations</text>
<polygon fill="#8dd3c7" stroke="transparent" points="127,-10 127,-30 147,-30 147,-10 127,-10"/>
<text text-anchor="start" x="150.7251" y="-15.4" font-family="sans-serif" font-size="14.00" fill="#000000"> &#160;Module</text>
<polygon fill="#80b1d3" stroke="transparent" points="213,-10 213,-30 233,-30 233,-10 213,-10"/>
<text text-anchor="start" x="236.7812" y="-15.4" font-family="sans-serif" font-size="14.00" fill="#000000"> &#160;Bootstrap</text>
<polygon fill="#fdb462" stroke="transparent" points="310,-10 310,-30 330,-30 330,-10 310,-10"/>
<text text-anchor="start" x="333.6732" y="-15.4" font-family="sans-serif" font-size="14.00" fill="#000000"> &#160;Providers</text>
<polygon fill="#fb8072" stroke="transparent" points="406,-10 406,-30 426,-30 426,-10 406,-10"/>
<text text-anchor="start" x="429.7258" y="-15.4" font-family="sans-serif" font-size="14.00" fill="#000000"> &#160;Exports</text>
<g id="clust1" class="cluster">
<title>cluster_BlogCreatePageModule</title>
<polygon fill="none" stroke="#000000" stroke-dasharray="1,5" points="69,-70 69,-195 427,-195 427,-70 69,-70"/>
</g>
<g id="clust2" class="cluster">
<title>cluster_BlogCreatePageModule_declarations</title>
<polygon fill="none" stroke="#000000" points="297,-78 297,-130 419,-130 419,-78 297,-78"/>
</g>
<g id="clust4" class="cluster">
<title>cluster_BlogCreatePageModule_imports</title>
<polygon fill="none" stroke="#000000" points="77,-78 77,-130 289,-130 289,-78 77,-78"/>
</g>
<!-- BlogCreatePage -->
<g id="node1" class="node">
<title>BlogCreatePage</title>
<polygon fill="#ffffb3" stroke="#000000" points="411.4706,-122 304.5294,-122 304.5294,-86 411.4706,-86 411.4706,-122"/>
<text text-anchor="middle" x="358" y="-99.8" font-family="Times,serif" font-size="14.00" fill="#000000">BlogCreatePage</text>
</g>
<!-- BlogCreatePageModule -->
<g id="node2" class="node">
<title>BlogCreatePageModule</title>
<polygon fill="#8dd3c7" stroke="#000000" points="338.0212,-187 335.0212,-191 314.0212,-191 311.0212,-187 187.9788,-187 187.9788,-151 338.0212,-151 338.0212,-187"/>
<text text-anchor="middle" x="263" y="-164.8" font-family="Times,serif" font-size="14.00" fill="#000000">BlogCreatePageModule</text>
</g>
<!-- BlogCreatePage&#45;&gt;BlogCreatePageModule -->
<g id="edge1" class="edge">
<title>BlogCreatePage&#45;&gt;BlogCreatePageModule</title>
<path fill="none" stroke="#000000" d="M321.3875,-122.1061C321.3875,-122.1061 321.3875,-140.991 321.3875,-140.991"/>
<polygon fill="#000000" stroke="#000000" points="317.8875,-140.9909 321.3875,-150.991 324.8875,-140.991 317.8875,-140.9909"/>
</g>
<!-- BlogCreatePageRoutingModule -->
<g id="node3" class="node">
<title>BlogCreatePageRoutingModule</title>
<polygon fill="#8dd3c7" stroke="#000000" points="280.6385,-122 277.6385,-126 256.6385,-126 253.6385,-122 85.3615,-122 85.3615,-86 280.6385,-86 280.6385,-122"/>
<text text-anchor="middle" x="183" y="-99.8" font-family="Times,serif" font-size="14.00" fill="#000000">BlogCreatePageRoutingModule</text>
</g>
<!-- BlogCreatePageRoutingModule&#45;&gt;BlogCreatePageModule -->
<g id="edge2" class="edge">
<title>BlogCreatePageRoutingModule&#45;&gt;BlogCreatePageModule</title>
<path fill="none" stroke="#000000" d="M234.2795,-122.1061C234.2795,-122.1061 234.2795,-140.991 234.2795,-140.991"/>
<polygon fill="#000000" stroke="#000000" points="230.7795,-140.9909 234.2795,-150.991 237.7795,-140.991 230.7795,-140.9909"/>
</g>
</g>
</svg>
