<?xml version="1.0" encoding="UTF-8" standalone="no"?>
<!DOCTYPE svg PUBLIC "-//W3C//DTD SVG 1.1//EN"
 "http://www.w3.org/Graphics/SVG/1.1/DTD/svg11.dtd">
<!-- Generated by graphviz version 2.40.1 (20161225.0304)
 -->
<!-- Title: dependencies Pages: 1 -->
<svg width="558pt" height="211pt"
 viewBox="0.00 0.00 558.00 211.00" xmlns="http://www.w3.org/2000/svg" xmlns:xlink="http://www.w3.org/1999/xlink">
<g id="graph0" class="graph" transform="scale(1 1) rotate(0) translate(4 207)">
<title>dependencies</title>
<polygon fill="#ffffff" stroke="transparent" points="-4,4 -4,-207 554,-207 554,4 -4,4"/>
<text text-anchor="start" x="254.0091" y="-42.4" font-family="sans-serif" font-weight="bold" font-size="14.00" fill="#000000">Legend</text>
<polygon fill="#ffffb3" stroke="transparent" points="41,-10 41,-30 61,-30 61,-10 41,-10"/>
<text text-anchor="start" x="64.629" y="-15.4" font-family="sans-serif" font-size="14.00" fill="#000000"> &#160;Declarations</text>
<polygon fill="#8dd3c7" stroke="transparent" points="154,-10 154,-30 174,-30 174,-10 154,-10"/>
<text text-anchor="start" x="177.7251" y="-15.4" font-family="sans-serif" font-size="14.00" fill="#000000"> &#160;Module</text>
<polygon fill="#80b1d3" stroke="transparent" points="240,-10 240,-30 260,-30 260,-10 240,-10"/>
<text text-anchor="start" x="263.7812" y="-15.4" font-family="sans-serif" font-size="14.00" fill="#000000"> &#160;Bootstrap</text>
<polygon fill="#fdb462" stroke="transparent" points="337,-10 337,-30 357,-30 357,-10 337,-10"/>
<text text-anchor="start" x="360.6732" y="-15.4" font-family="sans-serif" font-size="14.00" fill="#000000"> &#160;Providers</text>
<polygon fill="#fb8072" stroke="transparent" points="433,-10 433,-30 453,-30 453,-10 433,-10"/>
<text text-anchor="start" x="456.7258" y="-15.4" font-family="sans-serif" font-size="14.00" fill="#000000"> &#160;Exports</text>
<g id="clust1" class="cluster">
<title>cluster_SettingsEmailNotificationsPageModule</title>
<polygon fill="none" stroke="#000000" stroke-dasharray="1,5" points="8,-70 8,-195 542,-195 542,-70 8,-70"/>
</g>
<g id="clust2" class="cluster">
<title>cluster_SettingsEmailNotificationsPageModule_declarations</title>
<polygon fill="none" stroke="#000000" points="324,-78 324,-130 534,-130 534,-78 324,-78"/>
</g>
<g id="clust4" class="cluster">
<title>cluster_SettingsEmailNotificationsPageModule_imports</title>
<polygon fill="none" stroke="#000000" points="16,-78 16,-130 316,-130 316,-78 16,-78"/>
</g>
<!-- SettingsEmailNotificationsPage -->
<g id="node1" class="node">
<title>SettingsEmailNotificationsPage</title>
<polygon fill="#ffffb3" stroke="#000000" points="526.3585,-122 331.6415,-122 331.6415,-86 526.3585,-86 526.3585,-122"/>
<text text-anchor="middle" x="429" y="-99.8" font-family="Times,serif" font-size="14.00" fill="#000000">SettingsEmailNotificationsPage</text>
</g>
<!-- SettingsEmailNotificationsPageModule -->
<g id="node2" class="node">
<title>SettingsEmailNotificationsPageModule</title>
<polygon fill="#8dd3c7" stroke="#000000" points="409.4086,-187 406.4086,-191 385.4086,-191 382.4086,-187 170.5914,-187 170.5914,-151 409.4086,-151 409.4086,-187"/>
<text text-anchor="middle" x="290" y="-164.8" font-family="Times,serif" font-size="14.00" fill="#000000">SettingsEmailNotificationsPageModule</text>
</g>
<!-- SettingsEmailNotificationsPage&#45;&gt;SettingsEmailNotificationsPageModule -->
<g id="edge1" class="edge">
<title>SettingsEmailNotificationsPage&#45;&gt;SettingsEmailNotificationsPageModule</title>
<path fill="none" stroke="#000000" d="M370.3875,-122.1061C370.3875,-122.1061 370.3875,-140.991 370.3875,-140.991"/>
<polygon fill="#000000" stroke="#000000" points="366.8875,-140.9909 370.3875,-150.991 373.8875,-140.991 366.8875,-140.9909"/>
</g>
<!-- SettingsEmailNotificationsPageRoutingModule -->
<g id="node3" class="node">
<title>SettingsEmailNotificationsPageRoutingModule</title>
<polygon fill="#8dd3c7" stroke="#000000" points="307.5264,-122 304.5264,-126 283.5264,-126 280.5264,-122 24.4736,-122 24.4736,-86 307.5264,-86 307.5264,-122"/>
<text text-anchor="middle" x="166" y="-99.8" font-family="Times,serif" font-size="14.00" fill="#000000">SettingsEmailNotificationsPageRoutingModule</text>
</g>
<!-- SettingsEmailNotificationsPageRoutingModule&#45;&gt;SettingsEmailNotificationsPageModule -->
<g id="edge2" class="edge">
<title>SettingsEmailNotificationsPageRoutingModule&#45;&gt;SettingsEmailNotificationsPageModule</title>
<path fill="none" stroke="#000000" d="M239.2795,-122.1061C239.2795,-122.1061 239.2795,-140.991 239.2795,-140.991"/>
<polygon fill="#000000" stroke="#000000" points="235.7795,-140.9909 239.2795,-150.991 242.7795,-140.991 235.7795,-140.9909"/>
</g>
</g>
</svg>
