<?xml version="1.0" encoding="UTF-8" standalone="no"?>
<!DOCTYPE svg PUBLIC "-//W3C//DTD SVG 1.1//EN"
 "http://www.w3.org/Graphics/SVG/1.1/DTD/svg11.dtd">
<!-- Generated by graphviz version 2.40.1 (20161225.0304)
 -->
<!-- Title: dependencies Pages: 1 -->
<svg width="504pt" height="211pt"
 viewBox="0.00 0.00 504.00 211.00" xmlns="http://www.w3.org/2000/svg" xmlns:xlink="http://www.w3.org/1999/xlink">
<g id="graph0" class="graph" transform="scale(1 1) rotate(0) translate(4 207)">
<title>dependencies</title>
<polygon fill="#ffffff" stroke="transparent" points="-4,4 -4,-207 500,-207 500,4 -4,4"/>
<text text-anchor="start" x="227.0091" y="-42.4" font-family="sans-serif" font-weight="bold" font-size="14.00" fill="#000000">Legend</text>
<polygon fill="#ffffb3" stroke="transparent" points="14,-10 14,-30 34,-30 34,-10 14,-10"/>
<text text-anchor="start" x="37.629" y="-15.4" font-family="sans-serif" font-size="14.00" fill="#000000"> &#160;Declarations</text>
<polygon fill="#8dd3c7" stroke="transparent" points="127,-10 127,-30 147,-30 147,-10 127,-10"/>
<text text-anchor="start" x="150.7251" y="-15.4" font-family="sans-serif" font-size="14.00" fill="#000000"> &#160;Module</text>
<polygon fill="#80b1d3" stroke="transparent" points="213,-10 213,-30 233,-30 233,-10 213,-10"/>
<text text-anchor="start" x="236.7812" y="-15.4" font-family="sans-serif" font-size="14.00" fill="#000000"> &#160;Bootstrap</text>
<polygon fill="#fdb462" stroke="transparent" points="310,-10 310,-30 330,-30 330,-10 310,-10"/>
<text text-anchor="start" x="333.6732" y="-15.4" font-family="sans-serif" font-size="14.00" fill="#000000"> &#160;Providers</text>
<polygon fill="#fb8072" stroke="transparent" points="406,-10 406,-30 426,-30 426,-10 406,-10"/>
<text text-anchor="start" x="429.7258" y="-15.4" font-family="sans-serif" font-size="14.00" fill="#000000"> &#160;Exports</text>
<g id="clust1" class="cluster">
<title>cluster_PatronsEditPageModule</title>
<polygon fill="none" stroke="#000000" stroke-dasharray="1,5" points="67,-70 67,-195 429,-195 429,-70 67,-70"/>
</g>
<g id="clust2" class="cluster">
<title>cluster_PatronsEditPageModule_declarations</title>
<polygon fill="none" stroke="#000000" points="297,-78 297,-130 421,-130 421,-78 297,-78"/>
</g>
<g id="clust4" class="cluster">
<title>cluster_PatronsEditPageModule_imports</title>
<polygon fill="none" stroke="#000000" points="75,-78 75,-130 289,-130 289,-78 75,-78"/>
</g>
<!-- PatronsEditPage -->
<g id="node1" class="node">
<title>PatronsEditPage</title>
<polygon fill="#ffffb3" stroke="#000000" points="413.0396,-122 304.9604,-122 304.9604,-86 413.0396,-86 413.0396,-122"/>
<text text-anchor="middle" x="359" y="-99.8" font-family="Times,serif" font-size="14.00" fill="#000000">PatronsEditPage</text>
</g>
<!-- PatronsEditPageModule -->
<g id="node2" class="node">
<title>PatronsEditPageModule</title>
<polygon fill="#8dd3c7" stroke="#000000" points="339.0884,-187 336.0884,-191 315.0884,-191 312.0884,-187 186.9116,-187 186.9116,-151 339.0884,-151 339.0884,-187"/>
<text text-anchor="middle" x="263" y="-164.8" font-family="Times,serif" font-size="14.00" fill="#000000">PatronsEditPageModule</text>
</g>
<!-- PatronsEditPage&#45;&gt;PatronsEditPageModule -->
<g id="edge1" class="edge">
<title>PatronsEditPage&#45;&gt;PatronsEditPageModule</title>
<path fill="none" stroke="#000000" d="M321.8875,-122.1061C321.8875,-122.1061 321.8875,-140.991 321.8875,-140.991"/>
<polygon fill="#000000" stroke="#000000" points="318.3875,-140.9909 321.8875,-150.991 325.3875,-140.991 318.3875,-140.9909"/>
</g>
<!-- PatronsEditPageRoutingModule -->
<g id="node3" class="node">
<title>PatronsEditPageRoutingModule</title>
<polygon fill="#8dd3c7" stroke="#000000" points="280.7063,-122 277.7063,-126 256.7063,-126 253.7063,-122 83.2937,-122 83.2937,-86 280.7063,-86 280.7063,-122"/>
<text text-anchor="middle" x="182" y="-99.8" font-family="Times,serif" font-size="14.00" fill="#000000">PatronsEditPageRoutingModule</text>
</g>
<!-- PatronsEditPageRoutingModule&#45;&gt;PatronsEditPageModule -->
<g id="edge2" class="edge">
<title>PatronsEditPageRoutingModule&#45;&gt;PatronsEditPageModule</title>
<path fill="none" stroke="#000000" d="M233.7795,-122.1061C233.7795,-122.1061 233.7795,-140.991 233.7795,-140.991"/>
<polygon fill="#000000" stroke="#000000" points="230.2795,-140.9909 233.7795,-150.991 237.2795,-140.991 230.2795,-140.9909"/>
</g>
</g>
</svg>
