<?xml version="1.0" encoding="UTF-8" standalone="no"?>
<!DOCTYPE svg PUBLIC "-//W3C//DTD SVG 1.1//EN"
 "http://www.w3.org/Graphics/SVG/1.1/DTD/svg11.dtd">
<!-- Generated by graphviz version 2.40.1 (20161225.0304)
 -->
<!-- Title: dependencies Pages: 1 -->
<svg width="504pt" height="211pt"
 viewBox="0.00 0.00 504.00 211.00" xmlns="http://www.w3.org/2000/svg" xmlns:xlink="http://www.w3.org/1999/xlink">
<g id="graph0" class="graph" transform="scale(1 1) rotate(0) translate(4 207)">
<title>dependencies</title>
<polygon fill="#ffffff" stroke="transparent" points="-4,4 -4,-207 500,-207 500,4 -4,4"/>
<text text-anchor="start" x="227.0091" y="-42.4" font-family="sans-serif" font-weight="bold" font-size="14.00" fill="#000000">Legend</text>
<polygon fill="#ffffb3" stroke="transparent" points="14,-10 14,-30 34,-30 34,-10 14,-10"/>
<text text-anchor="start" x="37.629" y="-15.4" font-family="sans-serif" font-size="14.00" fill="#000000"> &#160;Declarations</text>
<polygon fill="#8dd3c7" stroke="transparent" points="127,-10 127,-30 147,-30 147,-10 127,-10"/>
<text text-anchor="start" x="150.7251" y="-15.4" font-family="sans-serif" font-size="14.00" fill="#000000"> &#160;Module</text>
<polygon fill="#80b1d3" stroke="transparent" points="213,-10 213,-30 233,-30 233,-10 213,-10"/>
<text text-anchor="start" x="236.7812" y="-15.4" font-family="sans-serif" font-size="14.00" fill="#000000"> &#160;Bootstrap</text>
<polygon fill="#fdb462" stroke="transparent" points="310,-10 310,-30 330,-30 330,-10 310,-10"/>
<text text-anchor="start" x="333.6732" y="-15.4" font-family="sans-serif" font-size="14.00" fill="#000000"> &#160;Providers</text>
<polygon fill="#fb8072" stroke="transparent" points="406,-10 406,-30 426,-30 426,-10 406,-10"/>
<text text-anchor="start" x="429.7258" y="-15.4" font-family="sans-serif" font-size="14.00" fill="#000000"> &#160;Exports</text>
<g id="clust1" class="cluster">
<title>cluster_PatronsPageModule</title>
<polygon fill="none" stroke="#000000" stroke-dasharray="1,5" points="90,-70 90,-195 406,-195 406,-70 90,-70"/>
</g>
<g id="clust2" class="cluster">
<title>cluster_PatronsPageModule_declarations</title>
<polygon fill="none" stroke="#000000" points="296,-78 296,-130 398,-130 398,-78 296,-78"/>
</g>
<g id="clust4" class="cluster">
<title>cluster_PatronsPageModule_imports</title>
<polygon fill="none" stroke="#000000" points="98,-78 98,-130 288,-130 288,-78 98,-78"/>
</g>
<!-- PatronsPage -->
<g id="node1" class="node">
<title>PatronsPage</title>
<polygon fill="#ffffb3" stroke="#000000" points="389.705,-122 304.295,-122 304.295,-86 389.705,-86 389.705,-122"/>
<text text-anchor="middle" x="347" y="-99.8" font-family="Times,serif" font-size="14.00" fill="#000000">PatronsPage</text>
</g>
<!-- PatronsPageModule -->
<g id="node2" class="node">
<title>PatronsPageModule</title>
<polygon fill="#8dd3c7" stroke="#000000" points="327.2548,-187 324.2548,-191 303.2548,-191 300.2548,-187 198.7452,-187 198.7452,-151 327.2548,-151 327.2548,-187"/>
<text text-anchor="middle" x="263" y="-164.8" font-family="Times,serif" font-size="14.00" fill="#000000">PatronsPageModule</text>
</g>
<!-- PatronsPage&#45;&gt;PatronsPageModule -->
<g id="edge1" class="edge">
<title>PatronsPage&#45;&gt;PatronsPageModule</title>
<path fill="none" stroke="#000000" d="M315.8875,-122.1061C315.8875,-122.1061 315.8875,-140.991 315.8875,-140.991"/>
<polygon fill="#000000" stroke="#000000" points="312.3875,-140.9909 315.8875,-150.991 319.3875,-140.991 312.3875,-140.9909"/>
</g>
<!-- PatronsPageRoutingModule -->
<g id="node3" class="node">
<title>PatronsPageRoutingModule</title>
<polygon fill="#8dd3c7" stroke="#000000" points="279.8724,-122 276.8724,-126 255.8724,-126 252.8724,-122 106.1276,-122 106.1276,-86 279.8724,-86 279.8724,-122"/>
<text text-anchor="middle" x="193" y="-99.8" font-family="Times,serif" font-size="14.00" fill="#000000">PatronsPageRoutingModule</text>
</g>
<!-- PatronsPageRoutingModule&#45;&gt;PatronsPageModule -->
<g id="edge2" class="edge">
<title>PatronsPageRoutingModule&#45;&gt;PatronsPageModule</title>
<path fill="none" stroke="#000000" d="M239.2795,-122.1061C239.2795,-122.1061 239.2795,-140.991 239.2795,-140.991"/>
<polygon fill="#000000" stroke="#000000" points="235.7795,-140.9909 239.2795,-150.991 242.7795,-140.991 235.7795,-140.9909"/>
</g>
</g>
</svg>
