<?xml version="1.0" encoding="UTF-8" standalone="no"?>
<!DOCTYPE svg PUBLIC "-//W3C//DTD SVG 1.1//EN"
 "http://www.w3.org/Graphics/SVG/1.1/DTD/svg11.dtd">
<!-- Generated by graphviz version 2.40.1 (20161225.0304)
 -->
<!-- Title: dependencies Pages: 1 -->
<svg width="504pt" height="211pt"
 viewBox="0.00 0.00 504.00 211.00" xmlns="http://www.w3.org/2000/svg" xmlns:xlink="http://www.w3.org/1999/xlink">
<g id="graph0" class="graph" transform="scale(1 1) rotate(0) translate(4 207)">
<title>dependencies</title>
<polygon fill="#ffffff" stroke="transparent" points="-4,4 -4,-207 500,-207 500,4 -4,4"/>
<text text-anchor="start" x="227.0091" y="-42.4" font-family="sans-serif" font-weight="bold" font-size="14.00" fill="#000000">Legend</text>
<polygon fill="#ffffb3" stroke="transparent" points="14,-10 14,-30 34,-30 34,-10 14,-10"/>
<text text-anchor="start" x="37.629" y="-15.4" font-family="sans-serif" font-size="14.00" fill="#000000"> &#160;Declarations</text>
<polygon fill="#8dd3c7" stroke="transparent" points="127,-10 127,-30 147,-30 147,-10 127,-10"/>
<text text-anchor="start" x="150.7251" y="-15.4" font-family="sans-serif" font-size="14.00" fill="#000000"> &#160;Module</text>
<polygon fill="#80b1d3" stroke="transparent" points="213,-10 213,-30 233,-30 233,-10 213,-10"/>
<text text-anchor="start" x="236.7812" y="-15.4" font-family="sans-serif" font-size="14.00" fill="#000000"> &#160;Bootstrap</text>
<polygon fill="#fdb462" stroke="transparent" points="310,-10 310,-30 330,-30 330,-10 310,-10"/>
<text text-anchor="start" x="333.6732" y="-15.4" font-family="sans-serif" font-size="14.00" fill="#000000"> &#160;Providers</text>
<polygon fill="#fb8072" stroke="transparent" points="406,-10 406,-30 426,-30 426,-10 406,-10"/>
<text text-anchor="start" x="429.7258" y="-15.4" font-family="sans-serif" font-size="14.00" fill="#000000"> &#160;Exports</text>
<g id="clust1" class="cluster">
<title>cluster_BlogPageModule</title>
<polygon fill="none" stroke="#000000" stroke-dasharray="1,5" points="119,-70 119,-195 377,-195 377,-70 119,-70"/>
</g>
<g id="clust2" class="cluster">
<title>cluster_BlogPageModule_declarations</title>
<polygon fill="none" stroke="#000000" points="283,-78 283,-130 369,-130 369,-78 283,-78"/>
</g>
<g id="clust4" class="cluster">
<title>cluster_BlogPageModule_imports</title>
<polygon fill="none" stroke="#000000" points="127,-78 127,-130 275,-130 275,-78 127,-78"/>
</g>
<!-- BlogPage -->
<g id="node1" class="node">
<title>BlogPage</title>
<polygon fill="#ffffb3" stroke="#000000" points="361.4404,-122 290.5596,-122 290.5596,-86 361.4404,-86 361.4404,-122"/>
<text text-anchor="middle" x="326" y="-99.8" font-family="Times,serif" font-size="14.00" fill="#000000">BlogPage</text>
</g>
<!-- BlogPageModule -->
<g id="node2" class="node">
<title>BlogPageModule</title>
<polygon fill="#8dd3c7" stroke="#000000" points="312.9888,-187 309.9888,-191 288.9888,-191 285.9888,-187 199.0112,-187 199.0112,-151 312.9888,-151 312.9888,-187"/>
<text text-anchor="middle" x="256" y="-164.8" font-family="Times,serif" font-size="14.00" fill="#000000">BlogPageModule</text>
</g>
<!-- BlogPage&#45;&gt;BlogPageModule -->
<g id="edge1" class="edge">
<title>BlogPage&#45;&gt;BlogPageModule</title>
<path fill="none" stroke="#000000" d="M301.8875,-122.1061C301.8875,-122.1061 301.8875,-140.991 301.8875,-140.991"/>
<polygon fill="#000000" stroke="#000000" points="298.3875,-140.9909 301.8875,-150.991 305.3875,-140.991 298.3875,-140.9909"/>
</g>
<!-- BlogRoutingModule -->
<g id="node3" class="node">
<title>BlogRoutingModule</title>
<polygon fill="#8dd3c7" stroke="#000000" points="266.8948,-122 263.8948,-126 242.8948,-126 239.8948,-122 135.1052,-122 135.1052,-86 266.8948,-86 266.8948,-122"/>
<text text-anchor="middle" x="201" y="-99.8" font-family="Times,serif" font-size="14.00" fill="#000000">BlogRoutingModule</text>
</g>
<!-- BlogRoutingModule&#45;&gt;BlogPageModule -->
<g id="edge2" class="edge">
<title>BlogRoutingModule&#45;&gt;BlogPageModule</title>
<path fill="none" stroke="#000000" d="M232.9765,-122.1061C232.9765,-122.1061 232.9765,-140.991 232.9765,-140.991"/>
<polygon fill="#000000" stroke="#000000" points="229.4766,-140.9909 232.9765,-150.991 236.4766,-140.991 229.4766,-140.9909"/>
</g>
</g>
</svg>
