<?xml version="1.0" encoding="UTF-8" standalone="no"?>
<!DOCTYPE svg PUBLIC "-//W3C//DTD SVG 1.1//EN"
 "http://www.w3.org/Graphics/SVG/1.1/DTD/svg11.dtd">
<!-- Generated by graphviz version 2.40.1 (20161225.0304)
 -->
<!-- Title: dependencies Pages: 1 -->
<svg width="504pt" height="211pt"
 viewBox="0.00 0.00 504.00 211.00" xmlns="http://www.w3.org/2000/svg" xmlns:xlink="http://www.w3.org/1999/xlink">
<g id="graph0" class="graph" transform="scale(1 1) rotate(0) translate(4 207)">
<title>dependencies</title>
<polygon fill="#ffffff" stroke="transparent" points="-4,4 -4,-207 500,-207 500,4 -4,4"/>
<text text-anchor="start" x="227.0091" y="-42.4" font-family="sans-serif" font-weight="bold" font-size="14.00" fill="#000000">Legend</text>
<polygon fill="#ffffb3" stroke="transparent" points="14,-10 14,-30 34,-30 34,-10 14,-10"/>
<text text-anchor="start" x="37.629" y="-15.4" font-family="sans-serif" font-size="14.00" fill="#000000"> &#160;Declarations</text>
<polygon fill="#8dd3c7" stroke="transparent" points="127,-10 127,-30 147,-30 147,-10 127,-10"/>
<text text-anchor="start" x="150.7251" y="-15.4" font-family="sans-serif" font-size="14.00" fill="#000000"> &#160;Module</text>
<polygon fill="#80b1d3" stroke="transparent" points="213,-10 213,-30 233,-30 233,-10 213,-10"/>
<text text-anchor="start" x="236.7812" y="-15.4" font-family="sans-serif" font-size="14.00" fill="#000000"> &#160;Bootstrap</text>
<polygon fill="#fdb462" stroke="transparent" points="310,-10 310,-30 330,-30 330,-10 310,-10"/>
<text text-anchor="start" x="333.6732" y="-15.4" font-family="sans-serif" font-size="14.00" fill="#000000"> &#160;Providers</text>
<polygon fill="#fb8072" stroke="transparent" points="406,-10 406,-30 426,-30 426,-10 406,-10"/>
<text text-anchor="start" x="429.7258" y="-15.4" font-family="sans-serif" font-size="14.00" fill="#000000"> &#160;Exports</text>
<g id="clust1" class="cluster">
<title>cluster_TestimonyEditDetailsPageModule</title>
<polygon fill="none" stroke="#000000" stroke-dasharray="1,5" points="10,-70 10,-195 486,-195 486,-70 10,-70"/>
</g>
<g id="clust2" class="cluster">
<title>cluster_TestimonyEditDetailsPageModule_declarations</title>
<polygon fill="none" stroke="#000000" points="296,-78 296,-130 478,-130 478,-78 296,-78"/>
</g>
<g id="clust4" class="cluster">
<title>cluster_TestimonyEditDetailsPageModule_imports</title>
<polygon fill="none" stroke="#000000" points="18,-78 18,-130 288,-130 288,-78 18,-78"/>
</g>
<!-- TestimonyEditDetailsPage -->
<g id="node1" class="node">
<title>TestimonyEditDetailsPage</title>
<polygon fill="#ffffb3" stroke="#000000" points="470.0814,-122 303.9186,-122 303.9186,-86 470.0814,-86 470.0814,-122"/>
<text text-anchor="middle" x="387" y="-99.8" font-family="Times,serif" font-size="14.00" fill="#000000">TestimonyEditDetailsPage</text>
</g>
<!-- TestimonyEditDetailsPageModule -->
<g id="node2" class="node">
<title>TestimonyEditDetailsPageModule</title>
<polygon fill="#8dd3c7" stroke="#000000" points="367.6315,-187 364.6315,-191 343.6315,-191 340.6315,-187 158.3685,-187 158.3685,-151 367.6315,-151 367.6315,-187"/>
<text text-anchor="middle" x="263" y="-164.8" font-family="Times,serif" font-size="14.00" fill="#000000">TestimonyEditDetailsPageModule</text>
</g>
<!-- TestimonyEditDetailsPage&#45;&gt;TestimonyEditDetailsPageModule -->
<g id="edge1" class="edge">
<title>TestimonyEditDetailsPage&#45;&gt;TestimonyEditDetailsPageModule</title>
<path fill="none" stroke="#000000" d="M335.8875,-122.1061C335.8875,-122.1061 335.8875,-140.991 335.8875,-140.991"/>
<polygon fill="#000000" stroke="#000000" points="332.3875,-140.9909 335.8875,-150.991 339.3875,-140.991 332.3875,-140.9909"/>
</g>
<!-- TestimonyEditDetailsPageRoutingModule -->
<g id="node3" class="node">
<title>TestimonyEditDetailsPageRoutingModule</title>
<polygon fill="#8dd3c7" stroke="#000000" points="280.2491,-122 277.2491,-126 256.2491,-126 253.2491,-122 25.7509,-122 25.7509,-86 280.2491,-86 280.2491,-122"/>
<text text-anchor="middle" x="153" y="-99.8" font-family="Times,serif" font-size="14.00" fill="#000000">TestimonyEditDetailsPageRoutingModule</text>
</g>
<!-- TestimonyEditDetailsPageRoutingModule&#45;&gt;TestimonyEditDetailsPageModule -->
<g id="edge2" class="edge">
<title>TestimonyEditDetailsPageRoutingModule&#45;&gt;TestimonyEditDetailsPageModule</title>
<path fill="none" stroke="#000000" d="M219.2795,-122.1061C219.2795,-122.1061 219.2795,-140.991 219.2795,-140.991"/>
<polygon fill="#000000" stroke="#000000" points="215.7795,-140.9909 219.2795,-150.991 222.7795,-140.991 215.7795,-140.9909"/>
</g>
</g>
</svg>
