<?xml version="1.0" encoding="UTF-8" standalone="no"?>
<!DOCTYPE svg PUBLIC "-//W3C//DTD SVG 1.1//EN"
 "http://www.w3.org/Graphics/SVG/1.1/DTD/svg11.dtd">
<!-- Generated by graphviz version 2.40.1 (20161225.0304)
 -->
<!-- Title: dependencies Pages: 1 -->
<svg width="504pt" height="211pt"
 viewBox="0.00 0.00 504.00 211.00" xmlns="http://www.w3.org/2000/svg" xmlns:xlink="http://www.w3.org/1999/xlink">
<g id="graph0" class="graph" transform="scale(1 1) rotate(0) translate(4 207)">
<title>dependencies</title>
<polygon fill="#ffffff" stroke="transparent" points="-4,4 -4,-207 500,-207 500,4 -4,4"/>
<text text-anchor="start" x="227.0091" y="-42.4" font-family="sans-serif" font-weight="bold" font-size="14.00" fill="#000000">Legend</text>
<polygon fill="#ffffb3" stroke="transparent" points="14,-10 14,-30 34,-30 34,-10 14,-10"/>
<text text-anchor="start" x="37.629" y="-15.4" font-family="sans-serif" font-size="14.00" fill="#000000"> &#160;Declarations</text>
<polygon fill="#8dd3c7" stroke="transparent" points="127,-10 127,-30 147,-30 147,-10 127,-10"/>
<text text-anchor="start" x="150.7251" y="-15.4" font-family="sans-serif" font-size="14.00" fill="#000000"> &#160;Module</text>
<polygon fill="#80b1d3" stroke="transparent" points="213,-10 213,-30 233,-30 233,-10 213,-10"/>
<text text-anchor="start" x="236.7812" y="-15.4" font-family="sans-serif" font-size="14.00" fill="#000000"> &#160;Bootstrap</text>
<polygon fill="#fdb462" stroke="transparent" points="310,-10 310,-30 330,-30 330,-10 310,-10"/>
<text text-anchor="start" x="333.6732" y="-15.4" font-family="sans-serif" font-size="14.00" fill="#000000"> &#160;Providers</text>
<polygon fill="#fb8072" stroke="transparent" points="406,-10 406,-30 426,-30 426,-10 406,-10"/>
<text text-anchor="start" x="429.7258" y="-15.4" font-family="sans-serif" font-size="14.00" fill="#000000"> &#160;Exports</text>
<g id="clust1" class="cluster">
<title>cluster_AboutTheProjectPageModule</title>
<polygon fill="none" stroke="#000000" stroke-dasharray="1,5" points="36,-70 36,-195 460,-195 460,-70 36,-70"/>
</g>
<g id="clust2" class="cluster">
<title>cluster_AboutTheProjectPageModule_declarations</title>
<polygon fill="none" stroke="#000000" points="296,-78 296,-130 452,-130 452,-78 296,-78"/>
</g>
<g id="clust4" class="cluster">
<title>cluster_AboutTheProjectPageModule_imports</title>
<polygon fill="none" stroke="#000000" points="44,-78 44,-130 288,-130 288,-78 44,-78"/>
</g>
<!-- AboutTheProjectPage -->
<g id="node1" class="node">
<title>AboutTheProjectPage</title>
<polygon fill="#ffffb3" stroke="#000000" points="443.6303,-122 304.3697,-122 304.3697,-86 443.6303,-86 443.6303,-122"/>
<text text-anchor="middle" x="374" y="-99.8" font-family="Times,serif" font-size="14.00" fill="#000000">AboutTheProjectPage</text>
</g>
<!-- AboutTheProjectPageModule -->
<g id="node2" class="node">
<title>AboutTheProjectPageModule</title>
<polygon fill="#8dd3c7" stroke="#000000" points="354.6797,-187 351.6797,-191 330.6797,-191 327.6797,-187 171.3203,-187 171.3203,-151 354.6797,-151 354.6797,-187"/>
<text text-anchor="middle" x="263" y="-164.8" font-family="Times,serif" font-size="14.00" fill="#000000">AboutTheProjectPageModule</text>
</g>
<!-- AboutTheProjectPage&#45;&gt;AboutTheProjectPageModule -->
<g id="edge1" class="edge">
<title>AboutTheProjectPage&#45;&gt;AboutTheProjectPageModule</title>
<path fill="none" stroke="#000000" d="M329.3875,-122.1061C329.3875,-122.1061 329.3875,-140.991 329.3875,-140.991"/>
<polygon fill="#000000" stroke="#000000" points="325.8875,-140.9909 329.3875,-150.991 332.8875,-140.991 325.8875,-140.9909"/>
</g>
<!-- AboutTheProjectPageRoutingModule -->
<g id="node3" class="node">
<title>AboutTheProjectPageRoutingModule</title>
<polygon fill="#8dd3c7" stroke="#000000" points="280.2976,-122 277.2976,-126 256.2976,-126 253.2976,-122 51.7024,-122 51.7024,-86 280.2976,-86 280.2976,-122"/>
<text text-anchor="middle" x="166" y="-99.8" font-family="Times,serif" font-size="14.00" fill="#000000">AboutTheProjectPageRoutingModule</text>
</g>
<!-- AboutTheProjectPageRoutingModule&#45;&gt;AboutTheProjectPageModule -->
<g id="edge2" class="edge">
<title>AboutTheProjectPageRoutingModule&#45;&gt;AboutTheProjectPageModule</title>
<path fill="none" stroke="#000000" d="M225.7795,-122.1061C225.7795,-122.1061 225.7795,-140.991 225.7795,-140.991"/>
<polygon fill="#000000" stroke="#000000" points="222.2795,-140.9909 225.7795,-150.991 229.2795,-140.991 222.2795,-140.9909"/>
</g>
</g>
</svg>
