<?xml version="1.0" encoding="UTF-8" standalone="no"?>
<!DOCTYPE svg PUBLIC "-//W3C//DTD SVG 1.1//EN"
 "http://www.w3.org/Graphics/SVG/1.1/DTD/svg11.dtd">
<!-- Generated by graphviz version 2.40.1 (20161225.0304)
 -->
<!-- Title: dependencies Pages: 1 -->
<svg width="504pt" height="211pt"
 viewBox="0.00 0.00 504.00 211.00" xmlns="http://www.w3.org/2000/svg" xmlns:xlink="http://www.w3.org/1999/xlink">
<g id="graph0" class="graph" transform="scale(1 1) rotate(0) translate(4 207)">
<title>dependencies</title>
<polygon fill="#ffffff" stroke="transparent" points="-4,4 -4,-207 500,-207 500,4 -4,4"/>
<text text-anchor="start" x="227.0091" y="-42.4" font-family="sans-serif" font-weight="bold" font-size="14.00" fill="#000000">Legend</text>
<polygon fill="#ffffb3" stroke="transparent" points="14,-10 14,-30 34,-30 34,-10 14,-10"/>
<text text-anchor="start" x="37.629" y="-15.4" font-family="sans-serif" font-size="14.00" fill="#000000"> &#160;Declarations</text>
<polygon fill="#8dd3c7" stroke="transparent" points="127,-10 127,-30 147,-30 147,-10 127,-10"/>
<text text-anchor="start" x="150.7251" y="-15.4" font-family="sans-serif" font-size="14.00" fill="#000000"> &#160;Module</text>
<polygon fill="#80b1d3" stroke="transparent" points="213,-10 213,-30 233,-30 233,-10 213,-10"/>
<text text-anchor="start" x="236.7812" y="-15.4" font-family="sans-serif" font-size="14.00" fill="#000000"> &#160;Bootstrap</text>
<polygon fill="#fdb462" stroke="transparent" points="310,-10 310,-30 330,-30 330,-10 310,-10"/>
<text text-anchor="start" x="333.6732" y="-15.4" font-family="sans-serif" font-size="14.00" fill="#000000"> &#160;Providers</text>
<polygon fill="#fb8072" stroke="transparent" points="406,-10 406,-30 426,-30 426,-10 406,-10"/>
<text text-anchor="start" x="429.7258" y="-15.4" font-family="sans-serif" font-size="14.00" fill="#000000"> &#160;Exports</text>
<g id="clust1" class="cluster">
<title>cluster_ParishEditDetailsPageModule</title>
<polygon fill="none" stroke="#000000" stroke-dasharray="1,5" points="34,-70 34,-195 462,-195 462,-70 34,-70"/>
</g>
<g id="clust2" class="cluster">
<title>cluster_ParishEditDetailsPageModule_declarations</title>
<polygon fill="none" stroke="#000000" points="296,-78 296,-130 454,-130 454,-78 296,-78"/>
</g>
<g id="clust4" class="cluster">
<title>cluster_ParishEditDetailsPageModule_imports</title>
<polygon fill="none" stroke="#000000" points="42,-78 42,-130 288,-130 288,-78 42,-78"/>
</g>
<!-- ParishEditDetailsPage -->
<g id="node1" class="node">
<title>ParishEditDetailsPage</title>
<polygon fill="#ffffb3" stroke="#000000" points="445.6909,-122 304.3091,-122 304.3091,-86 445.6909,-86 445.6909,-122"/>
<text text-anchor="middle" x="375" y="-99.8" font-family="Times,serif" font-size="14.00" fill="#000000">ParishEditDetailsPage</text>
</g>
<!-- ParishEditDetailsPageModule -->
<g id="node2" class="node">
<title>ParishEditDetailsPageModule</title>
<polygon fill="#8dd3c7" stroke="#000000" points="355.2408,-187 352.2408,-191 331.2408,-191 328.2408,-187 170.7592,-187 170.7592,-151 355.2408,-151 355.2408,-187"/>
<text text-anchor="middle" x="263" y="-164.8" font-family="Times,serif" font-size="14.00" fill="#000000">ParishEditDetailsPageModule</text>
</g>
<!-- ParishEditDetailsPage&#45;&gt;ParishEditDetailsPageModule -->
<g id="edge1" class="edge">
<title>ParishEditDetailsPage&#45;&gt;ParishEditDetailsPageModule</title>
<path fill="none" stroke="#000000" d="M329.8875,-122.1061C329.8875,-122.1061 329.8875,-140.991 329.8875,-140.991"/>
<polygon fill="#000000" stroke="#000000" points="326.3875,-140.9909 329.8875,-150.991 333.3875,-140.991 326.3875,-140.9909"/>
</g>
<!-- ParishEditDetailsPageRoutingModule -->
<g id="node3" class="node">
<title>ParishEditDetailsPageRoutingModule</title>
<polygon fill="#8dd3c7" stroke="#000000" points="279.8584,-122 276.8584,-126 255.8584,-126 252.8584,-122 50.1416,-122 50.1416,-86 279.8584,-86 279.8584,-122"/>
<text text-anchor="middle" x="165" y="-99.8" font-family="Times,serif" font-size="14.00" fill="#000000">ParishEditDetailsPageRoutingModule</text>
</g>
<!-- ParishEditDetailsPageRoutingModule&#45;&gt;ParishEditDetailsPageModule -->
<g id="edge2" class="edge">
<title>ParishEditDetailsPageRoutingModule&#45;&gt;ParishEditDetailsPageModule</title>
<path fill="none" stroke="#000000" d="M225.2795,-122.1061C225.2795,-122.1061 225.2795,-140.991 225.2795,-140.991"/>
<polygon fill="#000000" stroke="#000000" points="221.7795,-140.9909 225.2795,-150.991 228.7795,-140.991 221.7795,-140.9909"/>
</g>
</g>
</svg>
