<?xml version="1.0" encoding="UTF-8" standalone="no"?>
<!DOCTYPE svg PUBLIC "-//W3C//DTD SVG 1.1//EN"
 "http://www.w3.org/Graphics/SVG/1.1/DTD/svg11.dtd">
<!-- Generated by graphviz version 2.40.1 (20161225.0304)
 -->
<!-- Title: dependencies Pages: 1 -->
<svg width="504pt" height="211pt"
 viewBox="0.00 0.00 504.00 211.00" xmlns="http://www.w3.org/2000/svg" xmlns:xlink="http://www.w3.org/1999/xlink">
<g id="graph0" class="graph" transform="scale(1 1) rotate(0) translate(4 207)">
<title>dependencies</title>
<polygon fill="#ffffff" stroke="transparent" points="-4,4 -4,-207 500,-207 500,4 -4,4"/>
<text text-anchor="start" x="227.0091" y="-42.4" font-family="sans-serif" font-weight="bold" font-size="14.00" fill="#000000">Legend</text>
<polygon fill="#ffffb3" stroke="transparent" points="14,-10 14,-30 34,-30 34,-10 14,-10"/>
<text text-anchor="start" x="37.629" y="-15.4" font-family="sans-serif" font-size="14.00" fill="#000000"> &#160;Declarations</text>
<polygon fill="#8dd3c7" stroke="transparent" points="127,-10 127,-30 147,-30 147,-10 127,-10"/>
<text text-anchor="start" x="150.7251" y="-15.4" font-family="sans-serif" font-size="14.00" fill="#000000"> &#160;Module</text>
<polygon fill="#80b1d3" stroke="transparent" points="213,-10 213,-30 233,-30 233,-10 213,-10"/>
<text text-anchor="start" x="236.7812" y="-15.4" font-family="sans-serif" font-size="14.00" fill="#000000"> &#160;Bootstrap</text>
<polygon fill="#fdb462" stroke="transparent" points="310,-10 310,-30 330,-30 330,-10 310,-10"/>
<text text-anchor="start" x="333.6732" y="-15.4" font-family="sans-serif" font-size="14.00" fill="#000000"> &#160;Providers</text>
<polygon fill="#fb8072" stroke="transparent" points="406,-10 406,-30 426,-30 426,-10 406,-10"/>
<text text-anchor="start" x="429.7258" y="-15.4" font-family="sans-serif" font-size="14.00" fill="#000000"> &#160;Exports</text>
<g id="clust1" class="cluster">
<title>cluster_BlogDetailsPageModule</title>
<polygon fill="none" stroke="#000000" stroke-dasharray="1,5" points="66,-70 66,-195 430,-195 430,-70 66,-70"/>
</g>
<g id="clust2" class="cluster">
<title>cluster_BlogDetailsPageModule_declarations</title>
<polygon fill="none" stroke="#000000" points="296,-78 296,-130 422,-130 422,-78 296,-78"/>
</g>
<g id="clust4" class="cluster">
<title>cluster_BlogDetailsPageModule_imports</title>
<polygon fill="none" stroke="#000000" points="74,-78 74,-130 288,-130 288,-78 74,-78"/>
</g>
<!-- BlogDetailsPage -->
<g id="node1" class="node">
<title>BlogDetailsPage</title>
<polygon fill="#ffffb3" stroke="#000000" points="414.0912,-122 303.9088,-122 303.9088,-86 414.0912,-86 414.0912,-122"/>
<text text-anchor="middle" x="359" y="-99.8" font-family="Times,serif" font-size="14.00" fill="#000000">BlogDetailsPage</text>
</g>
<!-- BlogDetailsPageModule -->
<g id="node2" class="node">
<title>BlogDetailsPageModule</title>
<polygon fill="#8dd3c7" stroke="#000000" points="339.6414,-187 336.6414,-191 315.6414,-191 312.6414,-187 186.3586,-187 186.3586,-151 339.6414,-151 339.6414,-187"/>
<text text-anchor="middle" x="263" y="-164.8" font-family="Times,serif" font-size="14.00" fill="#000000">BlogDetailsPageModule</text>
</g>
<!-- BlogDetailsPage&#45;&gt;BlogDetailsPageModule -->
<g id="edge1" class="edge">
<title>BlogDetailsPage&#45;&gt;BlogDetailsPageModule</title>
<path fill="none" stroke="#000000" d="M321.8875,-122.1061C321.8875,-122.1061 321.8875,-140.991 321.8875,-140.991"/>
<polygon fill="#000000" stroke="#000000" points="318.3875,-140.9909 321.8875,-150.991 325.3875,-140.991 318.3875,-140.9909"/>
</g>
<!-- BlogDetailsPageRoutingModule -->
<g id="node3" class="node">
<title>BlogDetailsPageRoutingModule</title>
<polygon fill="#8dd3c7" stroke="#000000" points="280.2589,-122 277.2589,-126 256.2589,-126 253.2589,-122 81.7411,-122 81.7411,-86 280.2589,-86 280.2589,-122"/>
<text text-anchor="middle" x="181" y="-99.8" font-family="Times,serif" font-size="14.00" fill="#000000">BlogDetailsPageRoutingModule</text>
</g>
<!-- BlogDetailsPageRoutingModule&#45;&gt;BlogDetailsPageModule -->
<g id="edge2" class="edge">
<title>BlogDetailsPageRoutingModule&#45;&gt;BlogDetailsPageModule</title>
<path fill="none" stroke="#000000" d="M233.2795,-122.1061C233.2795,-122.1061 233.2795,-140.991 233.2795,-140.991"/>
<polygon fill="#000000" stroke="#000000" points="229.7795,-140.9909 233.2795,-150.991 236.7795,-140.991 229.7795,-140.9909"/>
</g>
</g>
</svg>
