<?xml version="1.0" encoding="UTF-8" standalone="no"?>
<!DOCTYPE svg PUBLIC "-//W3C//DTD SVG 1.1//EN"
 "http://www.w3.org/Graphics/SVG/1.1/DTD/svg11.dtd">
<!-- Generated by graphviz version 2.40.1 (20161225.0304)
 -->
<!-- Title: dependencies Pages: 1 -->
<svg width="504pt" height="211pt"
 viewBox="0.00 0.00 504.00 211.00" xmlns="http://www.w3.org/2000/svg" xmlns:xlink="http://www.w3.org/1999/xlink">
<g id="graph0" class="graph" transform="scale(1 1) rotate(0) translate(4 207)">
<title>dependencies</title>
<polygon fill="#ffffff" stroke="transparent" points="-4,4 -4,-207 500,-207 500,4 -4,4"/>
<text text-anchor="start" x="227.0091" y="-42.4" font-family="sans-serif" font-weight="bold" font-size="14.00" fill="#000000">Legend</text>
<polygon fill="#ffffb3" stroke="transparent" points="14,-10 14,-30 34,-30 34,-10 14,-10"/>
<text text-anchor="start" x="37.629" y="-15.4" font-family="sans-serif" font-size="14.00" fill="#000000"> &#160;Declarations</text>
<polygon fill="#8dd3c7" stroke="transparent" points="127,-10 127,-30 147,-30 147,-10 127,-10"/>
<text text-anchor="start" x="150.7251" y="-15.4" font-family="sans-serif" font-size="14.00" fill="#000000"> &#160;Module</text>
<polygon fill="#80b1d3" stroke="transparent" points="213,-10 213,-30 233,-30 233,-10 213,-10"/>
<text text-anchor="start" x="236.7812" y="-15.4" font-family="sans-serif" font-size="14.00" fill="#000000"> &#160;Bootstrap</text>
<polygon fill="#fdb462" stroke="transparent" points="310,-10 310,-30 330,-30 330,-10 310,-10"/>
<text text-anchor="start" x="333.6732" y="-15.4" font-family="sans-serif" font-size="14.00" fill="#000000"> &#160;Providers</text>
<polygon fill="#fb8072" stroke="transparent" points="406,-10 406,-30 426,-30 426,-10 406,-10"/>
<text text-anchor="start" x="429.7258" y="-15.4" font-family="sans-serif" font-size="14.00" fill="#000000"> &#160;Exports</text>
<g id="clust1" class="cluster">
<title>cluster_TagEditDetailsPageModule</title>
<polygon fill="none" stroke="#000000" stroke-dasharray="1,5" points="48,-70 48,-195 448,-195 448,-70 48,-70"/>
</g>
<g id="clust2" class="cluster">
<title>cluster_TagEditDetailsPageModule_declarations</title>
<polygon fill="none" stroke="#000000" points="296,-78 296,-130 440,-130 440,-78 296,-78"/>
</g>
<g id="clust4" class="cluster">
<title>cluster_TagEditDetailsPageModule_imports</title>
<polygon fill="none" stroke="#000000" points="56,-78 56,-130 288,-130 288,-78 56,-78"/>
</g>
<!-- TagEditDetailsPage -->
<g id="node1" class="node">
<title>TagEditDetailsPage</title>
<polygon fill="#ffffb3" stroke="#000000" points="431.965,-122 304.035,-122 304.035,-86 431.965,-86 431.965,-122"/>
<text text-anchor="middle" x="368" y="-99.8" font-family="Times,serif" font-size="14.00" fill="#000000">TagEditDetailsPage</text>
</g>
<!-- TagEditDetailsPageModule -->
<g id="node2" class="node">
<title>TagEditDetailsPageModule</title>
<polygon fill="#8dd3c7" stroke="#000000" points="348.5155,-187 345.5155,-191 324.5155,-191 321.5155,-187 177.4845,-187 177.4845,-151 348.5155,-151 348.5155,-187"/>
<text text-anchor="middle" x="263" y="-164.8" font-family="Times,serif" font-size="14.00" fill="#000000">TagEditDetailsPageModule</text>
</g>
<!-- TagEditDetailsPage&#45;&gt;TagEditDetailsPageModule -->
<g id="edge1" class="edge">
<title>TagEditDetailsPage&#45;&gt;TagEditDetailsPageModule</title>
<path fill="none" stroke="#000000" d="M326.3875,-122.1061C326.3875,-122.1061 326.3875,-140.991 326.3875,-140.991"/>
<polygon fill="#000000" stroke="#000000" points="322.8875,-140.9909 326.3875,-150.991 329.8875,-140.991 322.8875,-140.9909"/>
</g>
<!-- TagEditDetailsPageRoutingModule -->
<g id="node3" class="node">
<title>TagEditDetailsPageRoutingModule</title>
<polygon fill="#8dd3c7" stroke="#000000" points="280.1329,-122 277.1329,-126 256.1329,-126 253.1329,-122 63.8671,-122 63.8671,-86 280.1329,-86 280.1329,-122"/>
<text text-anchor="middle" x="172" y="-99.8" font-family="Times,serif" font-size="14.00" fill="#000000">TagEditDetailsPageRoutingModule</text>
</g>
<!-- TagEditDetailsPageRoutingModule&#45;&gt;TagEditDetailsPageModule -->
<g id="edge2" class="edge">
<title>TagEditDetailsPageRoutingModule&#45;&gt;TagEditDetailsPageModule</title>
<path fill="none" stroke="#000000" d="M228.7795,-122.1061C228.7795,-122.1061 228.7795,-140.991 228.7795,-140.991"/>
<polygon fill="#000000" stroke="#000000" points="225.2795,-140.9909 228.7795,-150.991 232.2795,-140.991 225.2795,-140.9909"/>
</g>
</g>
</svg>
