<?xml version="1.0" encoding="UTF-8" standalone="no"?>
<!DOCTYPE svg PUBLIC "-//W3C//DTD SVG 1.1//EN"
 "http://www.w3.org/Graphics/SVG/1.1/DTD/svg11.dtd">
<!-- Generated by graphviz version 2.40.1 (20161225.0304)
 -->
<!-- Title: dependencies Pages: 1 -->
<svg width="504pt" height="211pt"
 viewBox="0.00 0.00 504.00 211.00" xmlns="http://www.w3.org/2000/svg" xmlns:xlink="http://www.w3.org/1999/xlink">
<g id="graph0" class="graph" transform="scale(1 1) rotate(0) translate(4 207)">
<title>dependencies</title>
<polygon fill="#ffffff" stroke="transparent" points="-4,4 -4,-207 500,-207 500,4 -4,4"/>
<text text-anchor="start" x="227.0091" y="-42.4" font-family="sans-serif" font-weight="bold" font-size="14.00" fill="#000000">Legend</text>
<polygon fill="#ffffb3" stroke="transparent" points="14,-10 14,-30 34,-30 34,-10 14,-10"/>
<text text-anchor="start" x="37.629" y="-15.4" font-family="sans-serif" font-size="14.00" fill="#000000"> &#160;Declarations</text>
<polygon fill="#8dd3c7" stroke="transparent" points="127,-10 127,-30 147,-30 147,-10 127,-10"/>
<text text-anchor="start" x="150.7251" y="-15.4" font-family="sans-serif" font-size="14.00" fill="#000000"> &#160;Module</text>
<polygon fill="#80b1d3" stroke="transparent" points="213,-10 213,-30 233,-30 233,-10 213,-10"/>
<text text-anchor="start" x="236.7812" y="-15.4" font-family="sans-serif" font-size="14.00" fill="#000000"> &#160;Bootstrap</text>
<polygon fill="#fdb462" stroke="transparent" points="310,-10 310,-30 330,-30 330,-10 310,-10"/>
<text text-anchor="start" x="333.6732" y="-15.4" font-family="sans-serif" font-size="14.00" fill="#000000"> &#160;Providers</text>
<polygon fill="#fb8072" stroke="transparent" points="406,-10 406,-30 426,-30 426,-10 406,-10"/>
<text text-anchor="start" x="429.7258" y="-15.4" font-family="sans-serif" font-size="14.00" fill="#000000"> &#160;Exports</text>
<g id="clust1" class="cluster">
<title>cluster_HelpDetailsPageModule</title>
<polygon fill="none" stroke="#000000" stroke-dasharray="1,5" points="66,-70 66,-195 430,-195 430,-70 66,-70"/>
</g>
<g id="clust2" class="cluster">
<title>cluster_HelpDetailsPageModule_declarations</title>
<polygon fill="none" stroke="#000000" points="296,-78 296,-130 422,-130 422,-78 296,-78"/>
</g>
<g id="clust4" class="cluster">
<title>cluster_HelpDetailsPageModule_imports</title>
<polygon fill="none" stroke="#000000" points="74,-78 74,-130 288,-130 288,-78 74,-78"/>
</g>
<!-- HelpDetailsPage -->
<g id="node1" class="node">
<title>HelpDetailsPage</title>
<polygon fill="#ffffb3" stroke="#000000" points="414.0758,-122 303.9242,-122 303.9242,-86 414.0758,-86 414.0758,-122"/>
<text text-anchor="middle" x="359" y="-99.8" font-family="Times,serif" font-size="14.00" fill="#000000">HelpDetailsPage</text>
</g>
<!-- HelpDetailsPageModule -->
<g id="node2" class="node">
<title>HelpDetailsPageModule</title>
<polygon fill="#8dd3c7" stroke="#000000" points="339.6261,-187 336.6261,-191 315.6261,-191 312.6261,-187 186.3739,-187 186.3739,-151 339.6261,-151 339.6261,-187"/>
<text text-anchor="middle" x="263" y="-164.8" font-family="Times,serif" font-size="14.00" fill="#000000">HelpDetailsPageModule</text>
</g>
<!-- HelpDetailsPage&#45;&gt;HelpDetailsPageModule -->
<g id="edge1" class="edge">
<title>HelpDetailsPage&#45;&gt;HelpDetailsPageModule</title>
<path fill="none" stroke="#000000" d="M321.8875,-122.1061C321.8875,-122.1061 321.8875,-140.991 321.8875,-140.991"/>
<polygon fill="#000000" stroke="#000000" points="318.3875,-140.9909 321.8875,-150.991 325.3875,-140.991 318.3875,-140.9909"/>
</g>
<!-- HelpDetailsPageRoutingModule -->
<g id="node3" class="node">
<title>HelpDetailsPageRoutingModule</title>
<polygon fill="#8dd3c7" stroke="#000000" points="280.2436,-122 277.2436,-126 256.2436,-126 253.2436,-122 81.7564,-122 81.7564,-86 280.2436,-86 280.2436,-122"/>
<text text-anchor="middle" x="181" y="-99.8" font-family="Times,serif" font-size="14.00" fill="#000000">HelpDetailsPageRoutingModule</text>
</g>
<!-- HelpDetailsPageRoutingModule&#45;&gt;HelpDetailsPageModule -->
<g id="edge2" class="edge">
<title>HelpDetailsPageRoutingModule&#45;&gt;HelpDetailsPageModule</title>
<path fill="none" stroke="#000000" d="M233.2795,-122.1061C233.2795,-122.1061 233.2795,-140.991 233.2795,-140.991"/>
<polygon fill="#000000" stroke="#000000" points="229.7795,-140.9909 233.2795,-150.991 236.7795,-140.991 229.7795,-140.9909"/>
</g>
</g>
</svg>
