<?xml version="1.0" encoding="UTF-8" standalone="no"?>
<!DOCTYPE svg PUBLIC "-//W3C//DTD SVG 1.1//EN"
 "http://www.w3.org/Graphics/SVG/1.1/DTD/svg11.dtd">
<!-- Generated by graphviz version 2.40.1 (20161225.0304)
 -->
<!-- Title: dependencies Pages: 1 -->
<svg width="504pt" height="211pt"
 viewBox="0.00 0.00 504.00 211.00" xmlns="http://www.w3.org/2000/svg" xmlns:xlink="http://www.w3.org/1999/xlink">
<g id="graph0" class="graph" transform="scale(1 1) rotate(0) translate(4 207)">
<title>dependencies</title>
<polygon fill="#ffffff" stroke="transparent" points="-4,4 -4,-207 500,-207 500,4 -4,4"/>
<text text-anchor="start" x="227.0091" y="-42.4" font-family="sans-serif" font-weight="bold" font-size="14.00" fill="#000000">Legend</text>
<polygon fill="#ffffb3" stroke="transparent" points="14,-10 14,-30 34,-30 34,-10 14,-10"/>
<text text-anchor="start" x="37.629" y="-15.4" font-family="sans-serif" font-size="14.00" fill="#000000"> &#160;Declarations</text>
<polygon fill="#8dd3c7" stroke="transparent" points="127,-10 127,-30 147,-30 147,-10 127,-10"/>
<text text-anchor="start" x="150.7251" y="-15.4" font-family="sans-serif" font-size="14.00" fill="#000000"> &#160;Module</text>
<polygon fill="#80b1d3" stroke="transparent" points="213,-10 213,-30 233,-30 233,-10 213,-10"/>
<text text-anchor="start" x="236.7812" y="-15.4" font-family="sans-serif" font-size="14.00" fill="#000000"> &#160;Bootstrap</text>
<polygon fill="#fdb462" stroke="transparent" points="310,-10 310,-30 330,-30 330,-10 310,-10"/>
<text text-anchor="start" x="333.6732" y="-15.4" font-family="sans-serif" font-size="14.00" fill="#000000"> &#160;Providers</text>
<polygon fill="#fb8072" stroke="transparent" points="406,-10 406,-30 426,-30 426,-10 406,-10"/>
<text text-anchor="start" x="429.7258" y="-15.4" font-family="sans-serif" font-size="14.00" fill="#000000"> &#160;Exports</text>
<g id="clust1" class="cluster">
<title>cluster_IntentionEditPageModule</title>
<polygon fill="none" stroke="#000000" stroke-dasharray="1,5" points="53,-70 53,-195 443,-195 443,-70 53,-70"/>
</g>
<g id="clust2" class="cluster">
<title>cluster_IntentionEditPageModule_declarations</title>
<polygon fill="none" stroke="#000000" points="297,-78 297,-130 435,-130 435,-78 297,-78"/>
</g>
<g id="clust4" class="cluster">
<title>cluster_IntentionEditPageModule_imports</title>
<polygon fill="none" stroke="#000000" points="61,-78 61,-130 289,-130 289,-78 61,-78"/>
</g>
<!-- IntentionsEditPage -->
<g id="node1" class="node">
<title>IntentionsEditPage</title>
<polygon fill="#ffffb3" stroke="#000000" points="427.0381,-122 304.9619,-122 304.9619,-86 427.0381,-86 427.0381,-122"/>
<text text-anchor="middle" x="366" y="-99.8" font-family="Times,serif" font-size="14.00" fill="#000000">IntentionsEditPage</text>
</g>
<!-- IntentionEditPageModule -->
<g id="node2" class="node">
<title>IntentionEditPageModule</title>
<polygon fill="#8dd3c7" stroke="#000000" points="345.1428,-187 342.1428,-191 321.1428,-191 318.1428,-187 184.8572,-187 184.8572,-151 345.1428,-151 345.1428,-187"/>
<text text-anchor="middle" x="265" y="-164.8" font-family="Times,serif" font-size="14.00" fill="#000000">IntentionEditPageModule</text>
</g>
<!-- IntentionsEditPage&#45;&gt;IntentionEditPageModule -->
<g id="edge1" class="edge">
<title>IntentionsEditPage&#45;&gt;IntentionEditPageModule</title>
<path fill="none" stroke="#000000" d="M325.0263,-122.1061C325.0263,-122.1061 325.0263,-140.991 325.0263,-140.991"/>
<polygon fill="#000000" stroke="#000000" points="321.5264,-140.9909 325.0263,-150.991 328.5264,-140.991 321.5264,-140.9909"/>
</g>
<!-- IntentionsEditPageRoutingModule -->
<g id="node3" class="node">
<title>IntentionsEditPageRoutingModule</title>
<polygon fill="#8dd3c7" stroke="#000000" points="280.7049,-122 277.7049,-126 256.7049,-126 253.7049,-122 69.2951,-122 69.2951,-86 280.7049,-86 280.7049,-122"/>
<text text-anchor="middle" x="175" y="-99.8" font-family="Times,serif" font-size="14.00" fill="#000000">IntentionsEditPageRoutingModule</text>
</g>
<!-- IntentionsEditPageRoutingModule&#45;&gt;IntentionEditPageModule -->
<g id="edge2" class="edge">
<title>IntentionsEditPageRoutingModule&#45;&gt;IntentionEditPageModule</title>
<path fill="none" stroke="#000000" d="M232.6406,-122.1061C232.6406,-122.1061 232.6406,-140.991 232.6406,-140.991"/>
<polygon fill="#000000" stroke="#000000" points="229.1407,-140.9909 232.6406,-150.991 236.1407,-140.991 229.1407,-140.9909"/>
</g>
</g>
</svg>
