<?xml version="1.0" encoding="UTF-8" standalone="no"?>
<!DOCTYPE svg PUBLIC "-//W3C//DTD SVG 1.1//EN"
 "http://www.w3.org/Graphics/SVG/1.1/DTD/svg11.dtd">
<!-- Generated by graphviz version 2.40.1 (20161225.0304)
 -->
<!-- Title: dependencies Pages: 1 -->
<svg width="504pt" height="211pt"
 viewBox="0.00 0.00 504.00 211.00" xmlns="http://www.w3.org/2000/svg" xmlns:xlink="http://www.w3.org/1999/xlink">
<g id="graph0" class="graph" transform="scale(1 1) rotate(0) translate(4 207)">
<title>dependencies</title>
<polygon fill="#ffffff" stroke="transparent" points="-4,4 -4,-207 500,-207 500,4 -4,4"/>
<text text-anchor="start" x="227.0091" y="-42.4" font-family="sans-serif" font-weight="bold" font-size="14.00" fill="#000000">Legend</text>
<polygon fill="#ffffb3" stroke="transparent" points="14,-10 14,-30 34,-30 34,-10 14,-10"/>
<text text-anchor="start" x="37.629" y="-15.4" font-family="sans-serif" font-size="14.00" fill="#000000"> &#160;Declarations</text>
<polygon fill="#8dd3c7" stroke="transparent" points="127,-10 127,-30 147,-30 147,-10 127,-10"/>
<text text-anchor="start" x="150.7251" y="-15.4" font-family="sans-serif" font-size="14.00" fill="#000000"> &#160;Module</text>
<polygon fill="#80b1d3" stroke="transparent" points="213,-10 213,-30 233,-30 233,-10 213,-10"/>
<text text-anchor="start" x="236.7812" y="-15.4" font-family="sans-serif" font-size="14.00" fill="#000000"> &#160;Bootstrap</text>
<polygon fill="#fdb462" stroke="transparent" points="310,-10 310,-30 330,-30 330,-10 310,-10"/>
<text text-anchor="start" x="333.6732" y="-15.4" font-family="sans-serif" font-size="14.00" fill="#000000"> &#160;Providers</text>
<polygon fill="#fb8072" stroke="transparent" points="406,-10 406,-30 426,-30 426,-10 406,-10"/>
<text text-anchor="start" x="429.7258" y="-15.4" font-family="sans-serif" font-size="14.00" fill="#000000"> &#160;Exports</text>
<g id="clust1" class="cluster">
<title>cluster_TestimonyDetailsPageModule</title>
<polygon fill="none" stroke="#000000" stroke-dasharray="1,5" points="33,-70 33,-195 463,-195 463,-70 33,-70"/>
</g>
<g id="clust2" class="cluster">
<title>cluster_TestimonyDetailsPageModule_declarations</title>
<polygon fill="none" stroke="#000000" points="297,-78 297,-130 455,-130 455,-78 297,-78"/>
</g>
<g id="clust4" class="cluster">
<title>cluster_TestimonyDetailsPageModule_imports</title>
<polygon fill="none" stroke="#000000" points="41,-78 41,-130 289,-130 289,-78 41,-78"/>
</g>
<!-- TestimonyDetailsPage -->
<g id="node1" class="node">
<title>TestimonyDetailsPage</title>
<polygon fill="#ffffb3" stroke="#000000" points="447.2478,-122 304.7522,-122 304.7522,-86 447.2478,-86 447.2478,-122"/>
<text text-anchor="middle" x="376" y="-99.8" font-family="Times,serif" font-size="14.00" fill="#000000">TestimonyDetailsPage</text>
</g>
<!-- TestimonyDetailsPageModule -->
<g id="node2" class="node">
<title>TestimonyDetailsPageModule</title>
<polygon fill="#8dd3c7" stroke="#000000" points="356.2976,-187 353.2976,-191 332.2976,-191 329.2976,-187 169.7024,-187 169.7024,-151 356.2976,-151 356.2976,-187"/>
<text text-anchor="middle" x="263" y="-164.8" font-family="Times,serif" font-size="14.00" fill="#000000">TestimonyDetailsPageModule</text>
</g>
<!-- TestimonyDetailsPage&#45;&gt;TestimonyDetailsPageModule -->
<g id="edge1" class="edge">
<title>TestimonyDetailsPage&#45;&gt;TestimonyDetailsPageModule</title>
<path fill="none" stroke="#000000" d="M330.3874,-122.1061C330.3874,-122.1061 330.3874,-140.991 330.3874,-140.991"/>
<polygon fill="#000000" stroke="#000000" points="326.8875,-140.9909 330.3874,-150.991 333.8875,-140.991 326.8875,-140.9909"/>
</g>
<!-- TestimonyDetailsPageRoutingModule -->
<g id="node3" class="node">
<title>TestimonyDetailsPageRoutingModule</title>
<polygon fill="#8dd3c7" stroke="#000000" points="280.9156,-122 277.9156,-126 256.9156,-126 253.9156,-122 49.0844,-122 49.0844,-86 280.9156,-86 280.9156,-122"/>
<text text-anchor="middle" x="165" y="-99.8" font-family="Times,serif" font-size="14.00" fill="#000000">TestimonyDetailsPageRoutingModule</text>
</g>
<!-- TestimonyDetailsPageRoutingModule&#45;&gt;TestimonyDetailsPageModule -->
<g id="edge2" class="edge">
<title>TestimonyDetailsPageRoutingModule&#45;&gt;TestimonyDetailsPageModule</title>
<path fill="none" stroke="#000000" d="M225.2795,-122.1061C225.2795,-122.1061 225.2795,-140.991 225.2795,-140.991"/>
<polygon fill="#000000" stroke="#000000" points="221.7795,-140.9909 225.2795,-150.991 228.7795,-140.991 221.7795,-140.9909"/>
</g>
</g>
</svg>
