<?xml version="1.0" encoding="UTF-8" standalone="no"?>
<!DOCTYPE svg PUBLIC "-//W3C//DTD SVG 1.1//EN"
 "http://www.w3.org/Graphics/SVG/1.1/DTD/svg11.dtd">
<!-- Generated by graphviz version 2.40.1 (20161225.0304)
 -->
<!-- Title: dependencies Pages: 1 -->
<svg width="504pt" height="211pt"
 viewBox="0.00 0.00 504.00 211.00" xmlns="http://www.w3.org/2000/svg" xmlns:xlink="http://www.w3.org/1999/xlink">
<g id="graph0" class="graph" transform="scale(1 1) rotate(0) translate(4 207)">
<title>dependencies</title>
<polygon fill="#ffffff" stroke="transparent" points="-4,4 -4,-207 500,-207 500,4 -4,4"/>
<text text-anchor="start" x="227.0091" y="-42.4" font-family="sans-serif" font-weight="bold" font-size="14.00" fill="#000000">Legend</text>
<polygon fill="#ffffb3" stroke="transparent" points="14,-10 14,-30 34,-30 34,-10 14,-10"/>
<text text-anchor="start" x="37.629" y="-15.4" font-family="sans-serif" font-size="14.00" fill="#000000"> &#160;Declarations</text>
<polygon fill="#8dd3c7" stroke="transparent" points="127,-10 127,-30 147,-30 147,-10 127,-10"/>
<text text-anchor="start" x="150.7251" y="-15.4" font-family="sans-serif" font-size="14.00" fill="#000000"> &#160;Module</text>
<polygon fill="#80b1d3" stroke="transparent" points="213,-10 213,-30 233,-30 233,-10 213,-10"/>
<text text-anchor="start" x="236.7812" y="-15.4" font-family="sans-serif" font-size="14.00" fill="#000000"> &#160;Bootstrap</text>
<polygon fill="#fdb462" stroke="transparent" points="310,-10 310,-30 330,-30 330,-10 310,-10"/>
<text text-anchor="start" x="333.6732" y="-15.4" font-family="sans-serif" font-size="14.00" fill="#000000"> &#160;Providers</text>
<polygon fill="#fb8072" stroke="transparent" points="406,-10 406,-30 426,-30 426,-10 406,-10"/>
<text text-anchor="start" x="429.7258" y="-15.4" font-family="sans-serif" font-size="14.00" fill="#000000"> &#160;Exports</text>
<g id="clust1" class="cluster">
<title>cluster_IntentionCreatePageModule</title>
<polygon fill="none" stroke="#000000" stroke-dasharray="1,5" points="46,-70 46,-195 450,-195 450,-70 46,-70"/>
</g>
<g id="clust2" class="cluster">
<title>cluster_IntentionCreatePageModule_declarations</title>
<polygon fill="none" stroke="#000000" points="296,-78 296,-130 442,-130 442,-78 296,-78"/>
</g>
<g id="clust4" class="cluster">
<title>cluster_IntentionCreatePageModule_imports</title>
<polygon fill="none" stroke="#000000" points="54,-78 54,-130 288,-130 288,-78 54,-78"/>
</g>
<!-- IntentionCreatePage -->
<g id="node1" class="node">
<title>IntentionCreatePage</title>
<polygon fill="#ffffb3" stroke="#000000" points="434.2907,-122 303.7093,-122 303.7093,-86 434.2907,-86 434.2907,-122"/>
<text text-anchor="middle" x="369" y="-99.8" font-family="Times,serif" font-size="14.00" fill="#000000">IntentionCreatePage</text>
</g>
<!-- IntentionCreatePageModule -->
<g id="node2" class="node">
<title>IntentionCreatePageModule</title>
<polygon fill="#8dd3c7" stroke="#000000" points="349.8403,-187 346.8403,-191 325.8403,-191 322.8403,-187 176.1597,-187 176.1597,-151 349.8403,-151 349.8403,-187"/>
<text text-anchor="middle" x="263" y="-164.8" font-family="Times,serif" font-size="14.00" fill="#000000">IntentionCreatePageModule</text>
</g>
<!-- IntentionCreatePage&#45;&gt;IntentionCreatePageModule -->
<g id="edge1" class="edge">
<title>IntentionCreatePage&#45;&gt;IntentionCreatePageModule</title>
<path fill="none" stroke="#000000" d="M326.8875,-122.1061C326.8875,-122.1061 326.8875,-140.991 326.8875,-140.991"/>
<polygon fill="#000000" stroke="#000000" points="323.3875,-140.9909 326.8875,-150.991 330.3875,-140.991 323.3875,-140.9909"/>
</g>
<!-- IntentionCreatePageRoutingModule -->
<g id="node3" class="node">
<title>IntentionCreatePageRoutingModule</title>
<polygon fill="#8dd3c7" stroke="#000000" points="280.458,-122 277.458,-126 256.458,-126 253.458,-122 61.542,-122 61.542,-86 280.458,-86 280.458,-122"/>
<text text-anchor="middle" x="171" y="-99.8" font-family="Times,serif" font-size="14.00" fill="#000000">IntentionCreatePageRoutingModule</text>
</g>
<!-- IntentionCreatePageRoutingModule&#45;&gt;IntentionCreatePageModule -->
<g id="edge2" class="edge">
<title>IntentionCreatePageRoutingModule&#45;&gt;IntentionCreatePageModule</title>
<path fill="none" stroke="#000000" d="M228.2795,-122.1061C228.2795,-122.1061 228.2795,-140.991 228.2795,-140.991"/>
<polygon fill="#000000" stroke="#000000" points="224.7795,-140.9909 228.2795,-150.991 231.7795,-140.991 224.7795,-140.9909"/>
</g>
</g>
</svg>
