<?xml version="1.0" encoding="UTF-8" standalone="no"?>
<!DOCTYPE svg PUBLIC "-//W3C//DTD SVG 1.1//EN"
 "http://www.w3.org/Graphics/SVG/1.1/DTD/svg11.dtd">
<!-- Generated by graphviz version 2.40.1 (20161225.0304)
 -->
<!-- Title: dependencies Pages: 1 -->
<svg width="504pt" height="211pt"
 viewBox="0.00 0.00 504.00 211.00" xmlns="http://www.w3.org/2000/svg" xmlns:xlink="http://www.w3.org/1999/xlink">
<g id="graph0" class="graph" transform="scale(1 1) rotate(0) translate(4 207)">
<title>dependencies</title>
<polygon fill="#ffffff" stroke="transparent" points="-4,4 -4,-207 500,-207 500,4 -4,4"/>
<text text-anchor="start" x="227.0091" y="-42.4" font-family="sans-serif" font-weight="bold" font-size="14.00" fill="#000000">Legend</text>
<polygon fill="#ffffb3" stroke="transparent" points="14,-10 14,-30 34,-30 34,-10 14,-10"/>
<text text-anchor="start" x="37.629" y="-15.4" font-family="sans-serif" font-size="14.00" fill="#000000"> &#160;Declarations</text>
<polygon fill="#8dd3c7" stroke="transparent" points="127,-10 127,-30 147,-30 147,-10 127,-10"/>
<text text-anchor="start" x="150.7251" y="-15.4" font-family="sans-serif" font-size="14.00" fill="#000000"> &#160;Module</text>
<polygon fill="#80b1d3" stroke="transparent" points="213,-10 213,-30 233,-30 233,-10 213,-10"/>
<text text-anchor="start" x="236.7812" y="-15.4" font-family="sans-serif" font-size="14.00" fill="#000000"> &#160;Bootstrap</text>
<polygon fill="#fdb462" stroke="transparent" points="310,-10 310,-30 330,-30 330,-10 310,-10"/>
<text text-anchor="start" x="333.6732" y="-15.4" font-family="sans-serif" font-size="14.00" fill="#000000"> &#160;Providers</text>
<polygon fill="#fb8072" stroke="transparent" points="406,-10 406,-30 426,-30 426,-10 406,-10"/>
<text text-anchor="start" x="429.7258" y="-15.4" font-family="sans-serif" font-size="14.00" fill="#000000"> &#160;Exports</text>
<g id="clust1" class="cluster">
<title>cluster_SettingsRemindersPageModule</title>
<polygon fill="none" stroke="#000000" stroke-dasharray="1,5" points="27,-70 27,-195 469,-195 469,-70 27,-70"/>
</g>
<g id="clust2" class="cluster">
<title>cluster_SettingsRemindersPageModule_declarations</title>
<polygon fill="none" stroke="#000000" points="297,-78 297,-130 461,-130 461,-78 297,-78"/>
</g>
<g id="clust4" class="cluster">
<title>cluster_SettingsRemindersPageModule_imports</title>
<polygon fill="none" stroke="#000000" points="35,-78 35,-130 289,-130 289,-78 35,-78"/>
</g>
<!-- SettingsRemindersPage -->
<g id="node1" class="node">
<title>SettingsRemindersPage</title>
<polygon fill="#ffffb3" stroke="#000000" points="453.4776,-122 304.5224,-122 304.5224,-86 453.4776,-86 453.4776,-122"/>
<text text-anchor="middle" x="379" y="-99.8" font-family="Times,serif" font-size="14.00" fill="#000000">SettingsRemindersPage</text>
</g>
<!-- SettingsRemindersPageModule -->
<g id="node2" class="node">
<title>SettingsRemindersPageModule</title>
<polygon fill="#8dd3c7" stroke="#000000" points="359.028,-187 356.028,-191 335.028,-191 332.028,-187 166.972,-187 166.972,-151 359.028,-151 359.028,-187"/>
<text text-anchor="middle" x="263" y="-164.8" font-family="Times,serif" font-size="14.00" fill="#000000">SettingsRemindersPageModule</text>
</g>
<!-- SettingsRemindersPage&#45;&gt;SettingsRemindersPageModule -->
<g id="edge1" class="edge">
<title>SettingsRemindersPage&#45;&gt;SettingsRemindersPageModule</title>
<path fill="none" stroke="#000000" d="M331.8875,-122.1061C331.8875,-122.1061 331.8875,-140.991 331.8875,-140.991"/>
<polygon fill="#000000" stroke="#000000" points="328.3875,-140.9909 331.8875,-150.991 335.3875,-140.991 328.3875,-140.9909"/>
</g>
<!-- SettingsRemindersPageRoutingModule -->
<g id="node3" class="node">
<title>SettingsRemindersPageRoutingModule</title>
<polygon fill="#8dd3c7" stroke="#000000" points="280.6455,-122 277.6455,-126 256.6455,-126 253.6455,-122 43.3545,-122 43.3545,-86 280.6455,-86 280.6455,-122"/>
<text text-anchor="middle" x="162" y="-99.8" font-family="Times,serif" font-size="14.00" fill="#000000">SettingsRemindersPageRoutingModule</text>
</g>
<!-- SettingsRemindersPageRoutingModule&#45;&gt;SettingsRemindersPageModule -->
<g id="edge2" class="edge">
<title>SettingsRemindersPageRoutingModule&#45;&gt;SettingsRemindersPageModule</title>
<path fill="none" stroke="#000000" d="M223.7795,-122.1061C223.7795,-122.1061 223.7795,-140.991 223.7795,-140.991"/>
<polygon fill="#000000" stroke="#000000" points="220.2795,-140.9909 223.7795,-150.991 227.2795,-140.991 220.2795,-140.9909"/>
</g>
</g>
</svg>
