<?xml version="1.0" encoding="UTF-8" standalone="no"?>
<!DOCTYPE svg PUBLIC "-//W3C//DTD SVG 1.1//EN"
 "http://www.w3.org/Graphics/SVG/1.1/DTD/svg11.dtd">
<!-- Generated by graphviz version 2.40.1 (20161225.0304)
 -->
<!-- Title: dependencies Pages: 1 -->
<svg width="3513pt" height="284pt"
 viewBox="0.00 0.00 3513.00 284.00" xmlns="http://www.w3.org/2000/svg" xmlns:xlink="http://www.w3.org/1999/xlink">
<g id="graph0" class="graph" transform="scale(1 1) rotate(0) translate(4 280)">
<title>dependencies</title>
<polygon fill="#ffffff" stroke="transparent" points="-4,4 -4,-280 3509,-280 3509,4 -4,4"/>
<text text-anchor="start" x="1731.5091" y="-42.4" font-family="sans-serif" font-weight="bold" font-size="14.00" fill="#000000">Legend</text>
<polygon fill="#ffffb3" stroke="transparent" points="1518.5,-10 1518.5,-30 1538.5,-30 1538.5,-10 1518.5,-10"/>
<text text-anchor="start" x="1542.129" y="-15.4" font-family="sans-serif" font-size="14.00" fill="#000000"> &#160;Declarations</text>
<polygon fill="#8dd3c7" stroke="transparent" points="1631.5,-10 1631.5,-30 1651.5,-30 1651.5,-10 1631.5,-10"/>
<text text-anchor="start" x="1655.2251" y="-15.4" font-family="sans-serif" font-size="14.00" fill="#000000"> &#160;Module</text>
<polygon fill="#80b1d3" stroke="transparent" points="1717.5,-10 1717.5,-30 1737.5,-30 1737.5,-10 1717.5,-10"/>
<text text-anchor="start" x="1741.2812" y="-15.4" font-family="sans-serif" font-size="14.00" fill="#000000"> &#160;Bootstrap</text>
<polygon fill="#fdb462" stroke="transparent" points="1814.5,-10 1814.5,-30 1834.5,-30 1834.5,-10 1814.5,-10"/>
<text text-anchor="start" x="1838.1732" y="-15.4" font-family="sans-serif" font-size="14.00" fill="#000000"> &#160;Providers</text>
<polygon fill="#fb8072" stroke="transparent" points="1910.5,-10 1910.5,-30 1930.5,-30 1930.5,-10 1910.5,-10"/>
<text text-anchor="start" x="1934.2258" y="-15.4" font-family="sans-serif" font-size="14.00" fill="#000000"> &#160;Exports</text>
<g id="clust1" class="cluster">
<title>cluster_ComponentsModule</title>
<polygon fill="none" stroke="#000000" stroke-dasharray="1,5" points="8,-70 8,-268 3497,-268 3497,-70 8,-70"/>
</g>
<g id="clust2" class="cluster">
<title>cluster_ComponentsModule_declarations</title>
<polygon fill="none" stroke="#000000" points="158,-78 158,-130 3489,-130 3489,-78 158,-78"/>
</g>
<g id="clust22" class="cluster">
<title>cluster_ComponentsModule_imports</title>
<polygon fill="none" stroke="#000000" points="16,-78 16,-130 150,-130 150,-78 16,-78"/>
</g>
<g id="clust23" class="cluster">
<title>cluster_ComponentsModule_exports</title>
<polygon fill="none" stroke="#000000" points="218,-208 218,-260 3185,-260 3185,-208 218,-208"/>
</g>
<!-- ArticleCardComponent -->
<g id="node1" class="node">
<title>ArticleCardComponent</title>
<polygon fill="#ffffb3" stroke="#000000" points="3480.913,-122 3333.087,-122 3333.087,-86 3480.913,-86 3480.913,-122"/>
<text text-anchor="middle" x="3407" y="-99.8" font-family="Times,serif" font-size="14.00" fill="#000000">ArticleCardComponent</text>
</g>
<!-- ComponentsModule -->
<g id="node20" class="node">
<title>ComponentsModule</title>
<polygon fill="#8dd3c7" stroke="#000000" points="1731.3272,-187 1728.3272,-191 1707.3272,-191 1704.3272,-187 1600.6728,-187 1600.6728,-151 1731.3272,-151 1731.3272,-187"/>
<text text-anchor="middle" x="1666" y="-164.8" font-family="Times,serif" font-size="14.00" fill="#000000">ComponentsModule</text>
</g>
<!-- ArticleCardComponent&#45;&gt;ComponentsModule -->
<g id="edge1" class="edge">
<title>ArticleCardComponent&#45;&gt;ComponentsModule</title>
<path fill="none" stroke="#000000" d="M3407,-122.1061C3407,-141.3391 3407,-169 3407,-169 3407,-169 1741.3339,-169 1741.3339,-169"/>
<polygon fill="#000000" stroke="#000000" points="1741.334,-165.5001 1731.3339,-169 1741.3339,-172.5001 1741.334,-165.5001"/>
</g>
<!-- ChangeAvatarComponent -->
<g id="node2" class="node">
<title>ChangeAvatarComponent</title>
<polygon fill="#ffffb3" stroke="#000000" points="3315.1853,-122 3152.8147,-122 3152.8147,-86 3315.1853,-86 3315.1853,-122"/>
<text text-anchor="middle" x="3234" y="-99.8" font-family="Times,serif" font-size="14.00" fill="#000000">ChangeAvatarComponent</text>
</g>
<!-- ChangeAvatarComponent&#45;&gt;ComponentsModule -->
<g id="edge2" class="edge">
<title>ChangeAvatarComponent&#45;&gt;ComponentsModule</title>
<path fill="none" stroke="#000000" d="M3165.1818,-122.2222C3165.1818,-140.8285 3165.1818,-167 3165.1818,-167 3165.1818,-167 1741.382,-167 1741.382,-167"/>
<polygon fill="#000000" stroke="#000000" points="1741.382,-163.5001 1731.382,-167 1741.3819,-170.5001 1741.382,-163.5001"/>
</g>
<!-- IntentionAddCommentDialog -->
<g id="node3" class="node">
<title>IntentionAddCommentDialog</title>
<polygon fill="#ffffb3" stroke="#000000" points="3134.979,-122 2951.021,-122 2951.021,-86 3134.979,-86 3134.979,-122"/>
<text text-anchor="middle" x="3043" y="-99.8" font-family="Times,serif" font-size="14.00" fill="#000000">IntentionAddCommentDialog</text>
</g>
<!-- IntentionAddCommentDialog&#45;&gt;ComponentsModule -->
<g id="edge3" class="edge">
<title>IntentionAddCommentDialog&#45;&gt;ComponentsModule</title>
<path fill="none" stroke="#000000" d="M2979.9266,-122.302C2979.9266,-140.2699 2979.9266,-165 2979.9266,-165 2979.9266,-165 1741.6074,-165 1741.6074,-165"/>
<polygon fill="#000000" stroke="#000000" points="1741.6074,-161.5001 1731.6074,-165 1741.6073,-168.5001 1741.6074,-161.5001"/>
</g>
<!-- IntentionCardComponent -->
<g id="node4" class="node">
<title>IntentionCardComponent</title>
<polygon fill="#ffffb3" stroke="#000000" points="2932.5912,-122 2773.4088,-122 2773.4088,-86 2932.5912,-86 2932.5912,-122"/>
<text text-anchor="middle" x="2853" y="-99.8" font-family="Times,serif" font-size="14.00" fill="#000000">IntentionCardComponent</text>
</g>
<!-- IntentionCardComponent&#45;&gt;ComponentsModule -->
<g id="edge4" class="edge">
<title>IntentionCardComponent&#45;&gt;ComponentsModule</title>
<path fill="none" stroke="#000000" d="M2799.3715,-122.0225C2799.3715,-139.3734 2799.3715,-163 2799.3715,-163 2799.3715,-163 1741.4191,-163 1741.4191,-163"/>
<polygon fill="#000000" stroke="#000000" points="1741.4192,-159.5001 1731.4191,-163 1741.4191,-166.5001 1741.4192,-159.5001"/>
</g>
<!-- IntentionChangeStatusDialog -->
<g id="node5" class="node">
<title>IntentionChangeStatusDialog</title>
<polygon fill="#ffffb3" stroke="#000000" points="2755.6386,-122 2574.3614,-122 2574.3614,-86 2755.6386,-86 2755.6386,-122"/>
<text text-anchor="middle" x="2665" y="-99.8" font-family="Times,serif" font-size="14.00" fill="#000000">IntentionChangeStatusDialog</text>
</g>
<!-- IntentionChangeStatusDialog&#45;&gt;ComponentsModule -->
<g id="edge5" class="edge">
<title>IntentionChangeStatusDialog&#45;&gt;ComponentsModule</title>
<path fill="none" stroke="#000000" d="M2630.2383,-122.0352C2630.2383,-138.7344 2630.2383,-161 2630.2383,-161 2630.2383,-161 1741.5179,-161 1741.5179,-161"/>
<polygon fill="#000000" stroke="#000000" points="1741.518,-157.5001 1731.5179,-161 1741.5179,-164.5001 1741.518,-157.5001"/>
</g>
<!-- IntentionDeleteDialog -->
<g id="node6" class="node">
<title>IntentionDeleteDialog</title>
<polygon fill="#ffffb3" stroke="#000000" points="2556.6811,-122 2415.3189,-122 2415.3189,-86 2556.6811,-86 2556.6811,-122"/>
<text text-anchor="middle" x="2486" y="-99.8" font-family="Times,serif" font-size="14.00" fill="#000000">IntentionDeleteDialog</text>
</g>
<!-- IntentionDeleteDialog&#45;&gt;ComponentsModule -->
<g id="edge6" class="edge">
<title>IntentionDeleteDialog&#45;&gt;ComponentsModule</title>
<path fill="none" stroke="#000000" d="M2460.5135,-122.0091C2460.5135,-138.0494 2460.5135,-159 2460.5135,-159 2460.5135,-159 1741.356,-159 1741.356,-159"/>
<polygon fill="#000000" stroke="#000000" points="1741.356,-155.5001 1731.356,-159 1741.3559,-162.5001 1741.356,-155.5001"/>
</g>
<!-- IntentionsHeaderComponent -->
<g id="node7" class="node">
<title>IntentionsHeaderComponent</title>
<polygon fill="#ffffb3" stroke="#000000" points="2397.7352,-122 2220.2648,-122 2220.2648,-86 2397.7352,-86 2397.7352,-122"/>
<text text-anchor="middle" x="2309" y="-99.8" font-family="Times,serif" font-size="14.00" fill="#000000">IntentionsHeaderComponent</text>
</g>
<!-- IntentionsHeaderComponent&#45;&gt;ComponentsModule -->
<g id="edge7" class="edge">
<title>IntentionsHeaderComponent&#45;&gt;ComponentsModule</title>
<path fill="none" stroke="#000000" d="M2263.2358,-122.2396C2263.2358,-137.5706 2263.2358,-157 2263.2358,-157 2263.2358,-157 1741.3371,-157 1741.3371,-157"/>
<polygon fill="#000000" stroke="#000000" points="1741.3371,-153.5001 1731.3371,-157 1741.3371,-160.5001 1741.3371,-153.5001"/>
</g>
<!-- LoadNewestItemsComponent -->
<g id="node8" class="node">
<title>LoadNewestItemsComponent</title>
<polygon fill="#ffffb3" stroke="#000000" points="2202.6783,-122 2019.3217,-122 2019.3217,-86 2202.6783,-86 2202.6783,-122"/>
<text text-anchor="middle" x="2111" y="-99.8" font-family="Times,serif" font-size="14.00" fill="#000000">LoadNewestItemsComponent</text>
</g>
<!-- LoadNewestItemsComponent&#45;&gt;ComponentsModule -->
<g id="edge8" class="edge">
<title>LoadNewestItemsComponent&#45;&gt;ComponentsModule</title>
<path fill="none" stroke="#000000" d="M2060.7733,-122.1243C2060.7733,-136.7832 2060.7733,-155 2060.7733,-155 2060.7733,-155 1741.1888,-155 1741.1888,-155"/>
<polygon fill="#000000" stroke="#000000" points="1741.1888,-151.5001 1731.1888,-155 1741.1887,-158.5001 1741.1888,-151.5001"/>
</g>
<!-- NoContentComponent -->
<g id="node9" class="node">
<title>NoContentComponent</title>
<polygon fill="#ffffb3" stroke="#000000" points="2001.2716,-122 1858.7284,-122 1858.7284,-86 2001.2716,-86 2001.2716,-122"/>
<text text-anchor="middle" x="1930" y="-99.8" font-family="Times,serif" font-size="14.00" fill="#000000">NoContentComponent</text>
</g>
<!-- NoContentComponent&#45;&gt;ComponentsModule -->
<g id="edge9" class="edge">
<title>NoContentComponent&#45;&gt;ComponentsModule</title>
<path fill="none" stroke="#000000" d="M1898.0111,-122.2458C1898.0111,-136.1772 1898.0111,-153 1898.0111,-153 1898.0111,-153 1741.2454,-153 1741.2454,-153"/>
<polygon fill="#000000" stroke="#000000" points="1741.2455,-149.5001 1731.2454,-153 1741.2454,-156.5001 1741.2455,-149.5001"/>
</g>
<!-- PatronListItemComponent -->
<g id="node10" class="node">
<title>PatronListItemComponent</title>
<polygon fill="#ffffb3" stroke="#000000" points="1840.8159,-122 1675.1841,-122 1675.1841,-86 1840.8159,-86 1840.8159,-122"/>
<text text-anchor="middle" x="1758" y="-99.8" font-family="Times,serif" font-size="14.00" fill="#000000">PatronListItemComponent</text>
</g>
<!-- PatronListItemComponent&#45;&gt;ComponentsModule -->
<g id="edge10" class="edge">
<title>PatronListItemComponent&#45;&gt;ComponentsModule</title>
<path fill="none" stroke="#000000" d="M1703.2528,-122.1061C1703.2528,-122.1061 1703.2528,-140.991 1703.2528,-140.991"/>
<polygon fill="#000000" stroke="#000000" points="1699.7529,-140.9909 1703.2528,-150.991 1706.7529,-140.991 1699.7529,-140.9909"/>
</g>
<!-- PrayerListItemComponent -->
<g id="node11" class="node">
<title>PrayerListItemComponent</title>
<polygon fill="#ffffb3" stroke="#000000" points="1657.8005,-122 1492.1995,-122 1492.1995,-86 1657.8005,-86 1657.8005,-122"/>
<text text-anchor="middle" x="1575" y="-99.8" font-family="Times,serif" font-size="14.00" fill="#000000">PrayerListItemComponent</text>
</g>
<!-- PrayerListItemComponent&#45;&gt;ComponentsModule -->
<g id="edge11" class="edge">
<title>PrayerListItemComponent&#45;&gt;ComponentsModule</title>
<path fill="none" stroke="#000000" d="M1629.2434,-122.1061C1629.2434,-122.1061 1629.2434,-140.991 1629.2434,-140.991"/>
<polygon fill="#000000" stroke="#000000" points="1625.7434,-140.9909 1629.2434,-150.991 1632.7434,-140.991 1625.7434,-140.9909"/>
</g>
<!-- PrayersHeaderComponent -->
<g id="node12" class="node">
<title>PrayersHeaderComponent</title>
<polygon fill="#ffffb3" stroke="#000000" points="1473.7212,-122 1310.2788,-122 1310.2788,-86 1473.7212,-86 1473.7212,-122"/>
<text text-anchor="middle" x="1392" y="-99.8" font-family="Times,serif" font-size="14.00" fill="#000000">PrayersHeaderComponent</text>
</g>
<!-- PrayersHeaderComponent&#45;&gt;ComponentsModule -->
<g id="edge12" class="edge">
<title>PrayersHeaderComponent&#45;&gt;ComponentsModule</title>
<path fill="none" stroke="#000000" d="M1435.125,-122.2458C1435.125,-136.1772 1435.125,-153 1435.125,-153 1435.125,-153 1590.7662,-153 1590.7662,-153"/>
<polygon fill="#000000" stroke="#000000" points="1590.7663,-156.5001 1600.7662,-153 1590.7662,-149.5001 1590.7663,-156.5001"/>
</g>
<!-- PrayingListItemComponent -->
<g id="node13" class="node">
<title>PrayingListItemComponent</title>
<polygon fill="#ffffb3" stroke="#000000" points="1292.3159,-122 1119.6841,-122 1119.6841,-86 1292.3159,-86 1292.3159,-122"/>
<text text-anchor="middle" x="1206" y="-99.8" font-family="Times,serif" font-size="14.00" fill="#000000">PrayingListItemComponent</text>
</g>
<!-- PrayingListItemComponent&#45;&gt;ComponentsModule -->
<g id="edge13" class="edge">
<title>PrayingListItemComponent&#45;&gt;ComponentsModule</title>
<path fill="none" stroke="#000000" d="M1247.125,-122.1243C1247.125,-136.7832 1247.125,-155 1247.125,-155 1247.125,-155 1590.5508,-155 1590.5508,-155"/>
<polygon fill="#000000" stroke="#000000" points="1590.5508,-158.5001 1600.5508,-155 1590.5507,-151.5001 1590.5508,-158.5001"/>
</g>
<!-- SeoStuffComponent -->
<g id="node14" class="node">
<title>SeoStuffComponent</title>
<polygon fill="#ffffb3" stroke="#000000" points="1102.3244,-122 971.6756,-122 971.6756,-86 1102.3244,-86 1102.3244,-122"/>
<text text-anchor="middle" x="1037" y="-99.8" font-family="Times,serif" font-size="14.00" fill="#000000">SeoStuffComponent</text>
</g>
<!-- SeoStuffComponent&#45;&gt;ComponentsModule -->
<g id="edge14" class="edge">
<title>SeoStuffComponent&#45;&gt;ComponentsModule</title>
<path fill="none" stroke="#000000" d="M1076.125,-122.2396C1076.125,-137.5706 1076.125,-157 1076.125,-157 1076.125,-157 1590.6193,-157 1590.6193,-157"/>
<polygon fill="#000000" stroke="#000000" points="1590.6193,-160.5001 1600.6193,-157 1590.6192,-153.5001 1590.6193,-160.5001"/>
</g>
<!-- TabsComponent -->
<g id="node15" class="node">
<title>TabsComponent</title>
<polygon fill="#ffffb3" stroke="#000000" points="954.0452,-122 845.9548,-122 845.9548,-86 954.0452,-86 954.0452,-122"/>
<text text-anchor="middle" x="900" y="-99.8" font-family="Times,serif" font-size="14.00" fill="#000000">TabsComponent</text>
</g>
<!-- TabsComponent&#45;&gt;ComponentsModule -->
<g id="edge15" class="edge">
<title>TabsComponent&#45;&gt;ComponentsModule</title>
<path fill="none" stroke="#000000" d="M937.125,-122.0091C937.125,-138.0494 937.125,-159 937.125,-159 937.125,-159 1590.6758,-159 1590.6758,-159"/>
<polygon fill="#000000" stroke="#000000" points="1590.6758,-162.5001 1600.6758,-159 1590.6757,-155.5001 1590.6758,-162.5001"/>
</g>
<!-- TagListItemComponent -->
<g id="node16" class="node">
<title>TagListItemComponent</title>
<polygon fill="#ffffb3" stroke="#000000" points="827.0351,-122 676.9649,-122 676.9649,-86 827.0351,-86 827.0351,-122"/>
<text text-anchor="middle" x="752" y="-99.8" font-family="Times,serif" font-size="14.00" fill="#000000">TagListItemComponent</text>
</g>
<!-- TagListItemComponent&#45;&gt;ComponentsModule -->
<g id="edge16" class="edge">
<title>TagListItemComponent&#45;&gt;ComponentsModule</title>
<path fill="none" stroke="#000000" d="M787.625,-122.0352C787.625,-138.7344 787.625,-161 787.625,-161 787.625,-161 1590.6967,-161 1590.6967,-161"/>
<polygon fill="#000000" stroke="#000000" points="1590.6968,-164.5001 1600.6967,-161 1590.6967,-157.5001 1590.6968,-164.5001"/>
</g>
<!-- TestimonyCardComponent -->
<g id="node17" class="node">
<title>TestimonyCardComponent</title>
<polygon fill="#ffffb3" stroke="#000000" points="659.4283,-122 490.5717,-122 490.5717,-86 659.4283,-86 659.4283,-122"/>
<text text-anchor="middle" x="575" y="-99.8" font-family="Times,serif" font-size="14.00" fill="#000000">TestimonyCardComponent</text>
</g>
<!-- TestimonyCardComponent&#45;&gt;ComponentsModule -->
<g id="edge17" class="edge">
<title>TestimonyCardComponent&#45;&gt;ComponentsModule</title>
<path fill="none" stroke="#000000" d="M608.625,-122.0225C608.625,-139.3734 608.625,-163 608.625,-163 608.625,-163 1590.6544,-163 1590.6544,-163"/>
<polygon fill="#000000" stroke="#000000" points="1590.6545,-166.5001 1600.6544,-163 1590.6544,-159.5001 1590.6545,-166.5001"/>
</g>
<!-- UserCardComponent -->
<g id="node18" class="node">
<title>UserCardComponent</title>
<polygon fill="#ffffb3" stroke="#000000" points="472.4706,-122 337.5294,-122 337.5294,-86 472.4706,-86 472.4706,-122"/>
<text text-anchor="middle" x="405" y="-99.8" font-family="Times,serif" font-size="14.00" fill="#000000">UserCardComponent</text>
</g>
<!-- UserCardComponent&#45;&gt;ComponentsModule -->
<g id="edge18" class="edge">
<title>UserCardComponent&#45;&gt;ComponentsModule</title>
<path fill="none" stroke="#000000" d="M437.125,-122.302C437.125,-140.2699 437.125,-165 437.125,-165 437.125,-165 1590.798,-165 1590.798,-165"/>
<polygon fill="#000000" stroke="#000000" points="1590.798,-168.5001 1600.798,-165 1590.7979,-161.5001 1590.798,-168.5001"/>
</g>
<!-- UsersHeaderComponent -->
<g id="node19" class="node">
<title>UsersHeaderComponent</title>
<polygon fill="#ffffb3" stroke="#000000" points="319.6149,-122 166.3851,-122 166.3851,-86 319.6149,-86 319.6149,-122"/>
<text text-anchor="middle" x="243" y="-99.8" font-family="Times,serif" font-size="14.00" fill="#000000">UsersHeaderComponent</text>
</g>
<!-- UsersHeaderComponent&#45;&gt;ComponentsModule -->
<g id="edge19" class="edge">
<title>UsersHeaderComponent&#45;&gt;ComponentsModule</title>
<path fill="none" stroke="#000000" d="M273.125,-122.2222C273.125,-140.8285 273.125,-167 273.125,-167 273.125,-167 1590.687,-167 1590.687,-167"/>
<polygon fill="#000000" stroke="#000000" points="1590.687,-170.5001 1600.687,-167 1590.6869,-163.5001 1590.687,-170.5001"/>
</g>
<!-- ArticleCardComponent  -->
<g id="node22" class="node">
<title>ArticleCardComponent </title>
<polygon fill="#fb8072" stroke="#000000" points="3177.4124,-252 3026.5876,-252 3026.5876,-216 3177.4124,-216 3177.4124,-252"/>
<text text-anchor="middle" x="3102" y="-229.8" font-family="Times,serif" font-size="14.00" fill="#000000">ArticleCardComponent </text>
</g>
<!-- ComponentsModule&#45;&gt;ArticleCardComponent  -->
<g id="edge21" class="edge">
<title>ComponentsModule&#45;&gt;ArticleCardComponent </title>
<path fill="none" stroke="#000000" stroke-dasharray="5,2" d="M1731.3997,-171C2009.6413,-171 3080.7667,-171 3080.7667,-171 3080.7667,-171 3080.7667,-205.7778 3080.7667,-205.7778"/>
<polygon fill="#000000" stroke="#000000" points="3077.2667,-205.7778 3080.7667,-215.7778 3084.2667,-205.7778 3077.2667,-205.7778"/>
</g>
<!-- ChangeAvatarComponent  -->
<g id="node23" class="node">
<title>ChangeAvatarComponent </title>
<polygon fill="#fb8072" stroke="#000000" points="3008.6855,-252 2843.3145,-252 2843.3145,-216 3008.6855,-216 3008.6855,-252"/>
<text text-anchor="middle" x="2926" y="-229.8" font-family="Times,serif" font-size="14.00" fill="#000000">ChangeAvatarComponent </text>
</g>
<!-- ComponentsModule&#45;&gt;ChangeAvatarComponent  -->
<g id="edge22" class="edge">
<title>ComponentsModule&#45;&gt;ChangeAvatarComponent </title>
<path fill="none" stroke="#000000" stroke-dasharray="5,2" d="M1731.2601,-173C1984.4574,-173 2887.8515,-173 2887.8515,-173 2887.8515,-173 2887.8515,-205.698 2887.8515,-205.698"/>
<polygon fill="#000000" stroke="#000000" points="2884.3516,-205.698 2887.8515,-215.698 2891.3516,-205.698 2884.3516,-205.698"/>
</g>
<!-- DirectivesModule  -->
<g id="node24" class="node">
<title>DirectivesModule </title>
<polygon fill="#fb8072" stroke="#000000" points="2825.0779,-252 2704.9221,-252 2704.9221,-216 2825.0779,-216 2825.0779,-252"/>
<text text-anchor="middle" x="2765" y="-229.8" font-family="Times,serif" font-size="14.00" fill="#000000">DirectivesModule </text>
</g>
<!-- ComponentsModule&#45;&gt;DirectivesModule  -->
<g id="edge23" class="edge">
<title>ComponentsModule&#45;&gt;DirectivesModule </title>
<path fill="none" stroke="#000000" stroke-dasharray="5,2" d="M1731.3714,-175C1962.9229,-175 2730.2653,-175 2730.2653,-175 2730.2653,-175 2730.2653,-205.9775 2730.2653,-205.9775"/>
<polygon fill="#000000" stroke="#000000" points="2726.7653,-205.9774 2730.2653,-215.9775 2733.7653,-205.9775 2726.7653,-205.9774"/>
</g>
<!-- IntentionCardComponent  -->
<g id="node25" class="node">
<title>IntentionCardComponent </title>
<polygon fill="#fb8072" stroke="#000000" points="2686.0917,-252 2523.9083,-252 2523.9083,-216 2686.0917,-216 2686.0917,-252"/>
<text text-anchor="middle" x="2605" y="-229.8" font-family="Times,serif" font-size="14.00" fill="#000000">IntentionCardComponent </text>
</g>
<!-- ComponentsModule&#45;&gt;IntentionCardComponent  -->
<g id="edge24" class="edge">
<title>ComponentsModule&#45;&gt;IntentionCardComponent </title>
<path fill="none" stroke="#000000" stroke-dasharray="5,2" d="M1731.3456,-177C1934.2857,-177 2540.1475,-177 2540.1475,-177 2540.1475,-177 2540.1475,-205.9648 2540.1475,-205.9648"/>
<polygon fill="#000000" stroke="#000000" points="2536.6475,-205.9648 2540.1475,-215.9648 2543.6475,-205.9649 2536.6475,-205.9648"/>
</g>
<!-- IntentionsHeaderComponent  -->
<g id="node26" class="node">
<title>IntentionsHeaderComponent </title>
<polygon fill="#fb8072" stroke="#000000" points="2505.7352,-252 2324.2648,-252 2324.2648,-216 2505.7352,-216 2505.7352,-252"/>
<text text-anchor="middle" x="2415" y="-229.8" font-family="Times,serif" font-size="14.00" fill="#000000">IntentionsHeaderComponent </text>
</g>
<!-- ComponentsModule&#45;&gt;IntentionsHeaderComponent  -->
<g id="edge25" class="edge">
<title>ComponentsModule&#45;&gt;IntentionsHeaderComponent </title>
<path fill="none" stroke="#000000" stroke-dasharray="5,2" d="M1731.3957,-179C1904.4374,-179 2361.125,-179 2361.125,-179 2361.125,-179 2361.125,-205.9909 2361.125,-205.9909"/>
<polygon fill="#000000" stroke="#000000" points="2357.6251,-205.9909 2361.125,-215.9909 2364.6251,-205.991 2357.6251,-205.9909"/>
</g>
<!-- LoadNewestItemsComponent  -->
<g id="node27" class="node">
<title>LoadNewestItemsComponent </title>
<polygon fill="#fb8072" stroke="#000000" points="2306.1785,-252 2119.8215,-252 2119.8215,-216 2306.1785,-216 2306.1785,-252"/>
<text text-anchor="middle" x="2213" y="-229.8" font-family="Times,serif" font-size="14.00" fill="#000000">LoadNewestItemsComponent </text>
</g>
<!-- ComponentsModule&#45;&gt;LoadNewestItemsComponent  -->
<g id="edge26" class="edge">
<title>ComponentsModule&#45;&gt;LoadNewestItemsComponent </title>
<path fill="none" stroke="#000000" stroke-dasharray="5,2" d="M1731.2381,-181C1865.6859,-181 2161.125,-181 2161.125,-181 2161.125,-181 2161.125,-205.7604 2161.125,-205.7604"/>
<polygon fill="#000000" stroke="#000000" points="2157.6251,-205.7604 2161.125,-215.7604 2164.6251,-205.7604 2157.6251,-205.7604"/>
</g>
<!-- NoContentComponent  -->
<g id="node28" class="node">
<title>NoContentComponent </title>
<polygon fill="#fb8072" stroke="#000000" points="2102.2717,-252 1955.7283,-252 1955.7283,-216 2102.2717,-216 2102.2717,-252"/>
<text text-anchor="middle" x="2029" y="-229.8" font-family="Times,serif" font-size="14.00" fill="#000000">NoContentComponent </text>
</g>
<!-- ComponentsModule&#45;&gt;NoContentComponent  -->
<g id="edge27" class="edge">
<title>ComponentsModule&#45;&gt;NoContentComponent </title>
<path fill="none" stroke="#000000" stroke-dasharray="5,2" d="M1731.5364,-183C1823.2081,-183 1978.625,-183 1978.625,-183 1978.625,-183 1978.625,-205.8757 1978.625,-205.8757"/>
<polygon fill="#000000" stroke="#000000" points="1975.1251,-205.8757 1978.625,-215.8757 1982.1251,-205.8757 1975.1251,-205.8757"/>
</g>
<!-- PatronListItemComponent  -->
<g id="node29" class="node">
<title>PatronListItemComponent </title>
<polygon fill="#fb8072" stroke="#000000" points="1937.3157,-252 1768.6843,-252 1768.6843,-216 1937.3157,-216 1937.3157,-252"/>
<text text-anchor="middle" x="1853" y="-229.8" font-family="Times,serif" font-size="14.00" fill="#000000">PatronListItemComponent </text>
</g>
<!-- ComponentsModule&#45;&gt;PatronListItemComponent  -->
<g id="edge28" class="edge">
<title>ComponentsModule&#45;&gt;PatronListItemComponent </title>
<path fill="none" stroke="#000000" stroke-dasharray="5,2" d="M1731.2533,-185C1767.2083,-185 1804.625,-185 1804.625,-185 1804.625,-185 1804.625,-205.7542 1804.625,-205.7542"/>
<polygon fill="#000000" stroke="#000000" points="1801.1251,-205.7542 1804.625,-215.7542 1808.1251,-205.7542 1801.1251,-205.7542"/>
</g>
<!-- PrayerListItemComponent  -->
<g id="node30" class="node">
<title>PrayerListItemComponent </title>
<polygon fill="#fb8072" stroke="#000000" points="1750.3003,-252 1581.6997,-252 1581.6997,-216 1750.3003,-216 1750.3003,-252"/>
<text text-anchor="middle" x="1666" y="-229.8" font-family="Times,serif" font-size="14.00" fill="#000000">PrayerListItemComponent </text>
</g>
<!-- ComponentsModule&#45;&gt;PrayerListItemComponent  -->
<g id="edge29" class="edge">
<title>ComponentsModule&#45;&gt;PrayerListItemComponent </title>
<path fill="none" stroke="#000000" stroke-dasharray="5,2" d="M1666,-187.1061C1666,-187.1061 1666,-205.991 1666,-205.991"/>
<polygon fill="#000000" stroke="#000000" points="1662.5001,-205.9909 1666,-215.991 1669.5001,-205.991 1662.5001,-205.9909"/>
</g>
<!-- PrayersHeaderComponent  -->
<g id="node31" class="node">
<title>PrayersHeaderComponent </title>
<polygon fill="#fb8072" stroke="#000000" points="1563.7211,-252 1396.2789,-252 1396.2789,-216 1563.7211,-216 1563.7211,-252"/>
<text text-anchor="middle" x="1480" y="-229.8" font-family="Times,serif" font-size="14.00" fill="#000000">PrayersHeaderComponent </text>
</g>
<!-- ComponentsModule&#45;&gt;PrayersHeaderComponent  -->
<g id="edge30" class="edge">
<title>ComponentsModule&#45;&gt;PrayersHeaderComponent </title>
<path fill="none" stroke="#000000" stroke-dasharray="5,2" d="M1600.6278,-185C1564.9539,-185 1527.9802,-185 1527.9802,-185 1527.9802,-185 1527.9802,-205.7542 1527.9802,-205.7542"/>
<polygon fill="#000000" stroke="#000000" points="1524.4803,-205.7542 1527.9802,-215.7542 1531.4803,-205.7542 1524.4803,-205.7542"/>
</g>
<!-- PrayingListItemComponent  -->
<g id="node32" class="node">
<title>PrayingListItemComponent </title>
<polygon fill="#fb8072" stroke="#000000" points="1377.8157,-252 1202.1843,-252 1202.1843,-216 1377.8157,-216 1377.8157,-252"/>
<text text-anchor="middle" x="1290" y="-229.8" font-family="Times,serif" font-size="14.00" fill="#000000">PrayingListItemComponent </text>
</g>
<!-- ComponentsModule&#45;&gt;PrayingListItemComponent  -->
<g id="edge31" class="edge">
<title>ComponentsModule&#45;&gt;PrayingListItemComponent </title>
<path fill="none" stroke="#000000" stroke-dasharray="5,2" d="M1600.4552,-183C1506.3141,-183 1344.0237,-183 1344.0237,-183 1344.0237,-183 1344.0237,-205.8757 1344.0237,-205.8757"/>
<polygon fill="#000000" stroke="#000000" points="1340.5237,-205.8757 1344.0237,-215.8757 1347.5237,-205.8757 1340.5237,-205.8757"/>
</g>
<!-- SeoStuffComponent  -->
<g id="node33" class="node">
<title>SeoStuffComponent </title>
<polygon fill="#fb8072" stroke="#000000" points="1183.8241,-252 1050.1759,-252 1050.1759,-216 1183.8241,-216 1183.8241,-252"/>
<text text-anchor="middle" x="1117" y="-229.8" font-family="Times,serif" font-size="14.00" fill="#000000">SeoStuffComponent </text>
</g>
<!-- ComponentsModule&#45;&gt;SeoStuffComponent  -->
<g id="edge32" class="edge">
<title>ComponentsModule&#45;&gt;SeoStuffComponent </title>
<path fill="none" stroke="#000000" stroke-dasharray="5,2" d="M1600.6251,-181C1462.1525,-181 1151.8771,-181 1151.8771,-181 1151.8771,-181 1151.8771,-205.7604 1151.8771,-205.7604"/>
<polygon fill="#000000" stroke="#000000" points="1148.3772,-205.7604 1151.8771,-215.7604 1155.3772,-205.7604 1148.3772,-205.7604"/>
</g>
<!-- TabsComponent  -->
<g id="node34" class="node">
<title>TabsComponent </title>
<polygon fill="#fb8072" stroke="#000000" points="1032.0442,-252 919.9558,-252 919.9558,-216 1032.0442,-216 1032.0442,-252"/>
<text text-anchor="middle" x="976" y="-229.8" font-family="Times,serif" font-size="14.00" fill="#000000">TabsComponent </text>
</g>
<!-- ComponentsModule&#45;&gt;TabsComponent  -->
<g id="edge33" class="edge">
<title>ComponentsModule&#45;&gt;TabsComponent </title>
<path fill="none" stroke="#000000" stroke-dasharray="5,2" d="M1600.8133,-179C1433.4969,-179 1001.9301,-179 1001.9301,-179 1001.9301,-179 1001.9301,-205.9909 1001.9301,-205.9909"/>
<polygon fill="#000000" stroke="#000000" points="998.4301,-205.9909 1001.9301,-215.9909 1005.4301,-205.991 998.4301,-205.9909"/>
</g>
<!-- TagListItemComponent  -->
<g id="node35" class="node">
<title>TagListItemComponent </title>
<polygon fill="#fb8072" stroke="#000000" points="902.0344,-252 747.9656,-252 747.9656,-216 902.0344,-216 902.0344,-252"/>
<text text-anchor="middle" x="825" y="-229.8" font-family="Times,serif" font-size="14.00" fill="#000000">TagListItemComponent </text>
</g>
<!-- ComponentsModule&#45;&gt;TagListItemComponent  -->
<g id="edge34" class="edge">
<title>ComponentsModule&#45;&gt;TagListItemComponent </title>
<path fill="none" stroke="#000000" stroke-dasharray="5,2" d="M1600.503,-177C1410.7193,-177 873.8726,-177 873.8726,-177 873.8726,-177 873.8726,-205.9648 873.8726,-205.9648"/>
<polygon fill="#000000" stroke="#000000" points="870.3726,-205.9648 873.8726,-215.9648 877.3726,-205.9649 870.3726,-205.9648"/>
</g>
<!-- TestimonyCardComponent  -->
<g id="node36" class="node">
<title>TestimonyCardComponent </title>
<polygon fill="#fb8072" stroke="#000000" points="729.9278,-252 558.0722,-252 558.0722,-216 729.9278,-216 729.9278,-252"/>
<text text-anchor="middle" x="644" y="-229.8" font-family="Times,serif" font-size="14.00" fill="#000000">TestimonyCardComponent </text>
</g>
<!-- ComponentsModule&#45;&gt;TestimonyCardComponent  -->
<g id="edge35" class="edge">
<title>ComponentsModule&#45;&gt;TestimonyCardComponent </title>
<path fill="none" stroke="#000000" stroke-dasharray="5,2" d="M1600.5899,-175C1383.9227,-175 703.3484,-175 703.3484,-175 703.3484,-175 703.3484,-205.9775 703.3484,-205.9775"/>
<polygon fill="#000000" stroke="#000000" points="699.8484,-205.9774 703.3484,-215.9775 706.8484,-205.9775 699.8484,-205.9774"/>
</g>
<!-- UserCardComponent  -->
<g id="node37" class="node">
<title>UserCardComponent </title>
<polygon fill="#fb8072" stroke="#000000" points="540.4714,-252 401.5286,-252 401.5286,-216 540.4714,-216 540.4714,-252"/>
<text text-anchor="middle" x="471" y="-229.8" font-family="Times,serif" font-size="14.00" fill="#000000">UserCardComponent </text>
</g>
<!-- ComponentsModule&#45;&gt;UserCardComponent  -->
<g id="edge36" class="edge">
<title>ComponentsModule&#45;&gt;UserCardComponent </title>
<path fill="none" stroke="#000000" stroke-dasharray="5,2" d="M1600.431,-173C1356.5087,-173 515.5107,-173 515.5107,-173 515.5107,-173 515.5107,-205.698 515.5107,-205.698"/>
<polygon fill="#000000" stroke="#000000" points="512.0108,-205.698 515.5107,-215.698 519.0108,-205.698 512.0108,-205.698"/>
</g>
<!-- UsersHeaderComponent  -->
<g id="node38" class="node">
<title>UsersHeaderComponent </title>
<polygon fill="#fb8072" stroke="#000000" points="383.6144,-252 226.3856,-252 226.3856,-216 383.6144,-216 383.6144,-252"/>
<text text-anchor="middle" x="305" y="-229.8" font-family="Times,serif" font-size="14.00" fill="#000000">UsersHeaderComponent </text>
</g>
<!-- ComponentsModule&#45;&gt;UsersHeaderComponent  -->
<g id="edge37" class="edge">
<title>ComponentsModule&#45;&gt;UsersHeaderComponent </title>
<path fill="none" stroke="#000000" stroke-dasharray="5,2" d="M1600.8152,-171C1336.7434,-171 360.5359,-171 360.5359,-171 360.5359,-171 360.5359,-205.7778 360.5359,-205.7778"/>
<polygon fill="#000000" stroke="#000000" points="357.036,-205.7778 360.5359,-215.7778 364.036,-205.7778 357.036,-205.7778"/>
</g>
<!-- DirectivesModule -->
<g id="node21" class="node">
<title>DirectivesModule</title>
<polygon fill="#8dd3c7" stroke="#000000" points="141.5772,-122 138.5772,-126 117.5772,-126 114.5772,-122 24.4228,-122 24.4228,-86 141.5772,-86 141.5772,-122"/>
<text text-anchor="middle" x="83" y="-99.8" font-family="Times,serif" font-size="14.00" fill="#000000">DirectivesModule</text>
</g>
<!-- DirectivesModule&#45;&gt;ComponentsModule -->
<g id="edge20" class="edge">
<title>DirectivesModule&#45;&gt;ComponentsModule</title>
<path fill="none" stroke="#000000" d="M83,-122.1061C83,-141.3391 83,-169 83,-169 83,-169 1590.4954,-169 1590.4954,-169"/>
<polygon fill="#000000" stroke="#000000" points="1590.4955,-172.5001 1600.4954,-169 1590.4954,-165.5001 1590.4955,-172.5001"/>
</g>
</g>
</svg>
