<?xml version="1.0" encoding="UTF-8" standalone="no"?>
<!DOCTYPE svg PUBLIC "-//W3C//DTD SVG 1.1//EN"
 "http://www.w3.org/Graphics/SVG/1.1/DTD/svg11.dtd">
<!-- Generated by graphviz version 2.40.1 (20161225.0304)
 -->
<!-- Title: dependencies Pages: 1 -->
<svg width="504pt" height="211pt"
 viewBox="0.00 0.00 504.00 211.00" xmlns="http://www.w3.org/2000/svg" xmlns:xlink="http://www.w3.org/1999/xlink">
<g id="graph0" class="graph" transform="scale(1 1) rotate(0) translate(4 207)">
<title>dependencies</title>
<polygon fill="#ffffff" stroke="transparent" points="-4,4 -4,-207 500,-207 500,4 -4,4"/>
<text text-anchor="start" x="227.0091" y="-42.4" font-family="sans-serif" font-weight="bold" font-size="14.00" fill="#000000">Legend</text>
<polygon fill="#ffffb3" stroke="transparent" points="14,-10 14,-30 34,-30 34,-10 14,-10"/>
<text text-anchor="start" x="37.629" y="-15.4" font-family="sans-serif" font-size="14.00" fill="#000000"> &#160;Declarations</text>
<polygon fill="#8dd3c7" stroke="transparent" points="127,-10 127,-30 147,-30 147,-10 127,-10"/>
<text text-anchor="start" x="150.7251" y="-15.4" font-family="sans-serif" font-size="14.00" fill="#000000"> &#160;Module</text>
<polygon fill="#80b1d3" stroke="transparent" points="213,-10 213,-30 233,-30 233,-10 213,-10"/>
<text text-anchor="start" x="236.7812" y="-15.4" font-family="sans-serif" font-size="14.00" fill="#000000"> &#160;Bootstrap</text>
<polygon fill="#fdb462" stroke="transparent" points="310,-10 310,-30 330,-30 330,-10 310,-10"/>
<text text-anchor="start" x="333.6732" y="-15.4" font-family="sans-serif" font-size="14.00" fill="#000000"> &#160;Providers</text>
<polygon fill="#fb8072" stroke="transparent" points="406,-10 406,-30 426,-30 426,-10 406,-10"/>
<text text-anchor="start" x="429.7258" y="-15.4" font-family="sans-serif" font-size="14.00" fill="#000000"> &#160;Exports</text>
<g id="clust1" class="cluster">
<title>cluster_ThreadPageModule</title>
<polygon fill="none" stroke="#000000" stroke-dasharray="1,5" points="93,-70 93,-195 403,-195 403,-70 93,-70"/>
</g>
<g id="clust2" class="cluster">
<title>cluster_ThreadPageModule_declarations</title>
<polygon fill="none" stroke="#000000" points="297,-78 297,-130 395,-130 395,-78 297,-78"/>
</g>
<g id="clust4" class="cluster">
<title>cluster_ThreadPageModule_imports</title>
<polygon fill="none" stroke="#000000" points="101,-78 101,-130 289,-130 289,-78 101,-78"/>
</g>
<!-- ThreadPage -->
<g id="node1" class="node">
<title>ThreadPage</title>
<polygon fill="#ffffb3" stroke="#000000" points="387.3543,-122 304.6457,-122 304.6457,-86 387.3543,-86 387.3543,-122"/>
<text text-anchor="middle" x="346" y="-99.8" font-family="Times,serif" font-size="14.00" fill="#000000">ThreadPage</text>
</g>
<!-- ThreadPageModule -->
<g id="node2" class="node">
<title>ThreadPageModule</title>
<polygon fill="#8dd3c7" stroke="#000000" points="326.4046,-187 323.4046,-191 302.4046,-191 299.4046,-187 199.5954,-187 199.5954,-151 326.4046,-151 326.4046,-187"/>
<text text-anchor="middle" x="263" y="-164.8" font-family="Times,serif" font-size="14.00" fill="#000000">ThreadPageModule</text>
</g>
<!-- ThreadPage&#45;&gt;ThreadPageModule -->
<g id="edge1" class="edge">
<title>ThreadPage&#45;&gt;ThreadPageModule</title>
<path fill="none" stroke="#000000" d="M315.3875,-122.1061C315.3875,-122.1061 315.3875,-140.991 315.3875,-140.991"/>
<polygon fill="#000000" stroke="#000000" points="311.8875,-140.9909 315.3875,-150.991 318.8875,-140.991 311.8875,-140.9909"/>
</g>
<!-- ThreadPageRoutingModule -->
<g id="node3" class="node">
<title>ThreadPageRoutingModule</title>
<polygon fill="#8dd3c7" stroke="#000000" points="280.5225,-122 277.5225,-126 256.5225,-126 253.5225,-122 109.4775,-122 109.4775,-86 280.5225,-86 280.5225,-122"/>
<text text-anchor="middle" x="195" y="-99.8" font-family="Times,serif" font-size="14.00" fill="#000000">ThreadPageRoutingModule</text>
</g>
<!-- ThreadPageRoutingModule&#45;&gt;ThreadPageModule -->
<g id="edge2" class="edge">
<title>ThreadPageRoutingModule&#45;&gt;ThreadPageModule</title>
<path fill="none" stroke="#000000" d="M240.2795,-122.1061C240.2795,-122.1061 240.2795,-140.991 240.2795,-140.991"/>
<polygon fill="#000000" stroke="#000000" points="236.7795,-140.9909 240.2795,-150.991 243.7795,-140.991 236.7795,-140.9909"/>
</g>
</g>
</svg>
