<?xml version="1.0" encoding="UTF-8" standalone="no"?>
<!DOCTYPE svg PUBLIC "-//W3C//DTD SVG 1.1//EN"
 "http://www.w3.org/Graphics/SVG/1.1/DTD/svg11.dtd">
<!-- Generated by graphviz version 2.40.1 (20161225.0304)
 -->
<!-- Title: dependencies Pages: 1 -->
<svg width="504pt" height="211pt"
 viewBox="0.00 0.00 504.00 211.00" xmlns="http://www.w3.org/2000/svg" xmlns:xlink="http://www.w3.org/1999/xlink">
<g id="graph0" class="graph" transform="scale(1 1) rotate(0) translate(4 207)">
<title>dependencies</title>
<polygon fill="#ffffff" stroke="transparent" points="-4,4 -4,-207 500,-207 500,4 -4,4"/>
<text text-anchor="start" x="227.0091" y="-42.4" font-family="sans-serif" font-weight="bold" font-size="14.00" fill="#000000">Legend</text>
<polygon fill="#ffffb3" stroke="transparent" points="14,-10 14,-30 34,-30 34,-10 14,-10"/>
<text text-anchor="start" x="37.629" y="-15.4" font-family="sans-serif" font-size="14.00" fill="#000000"> &#160;Declarations</text>
<polygon fill="#8dd3c7" stroke="transparent" points="127,-10 127,-30 147,-30 147,-10 127,-10"/>
<text text-anchor="start" x="150.7251" y="-15.4" font-family="sans-serif" font-size="14.00" fill="#000000"> &#160;Module</text>
<polygon fill="#80b1d3" stroke="transparent" points="213,-10 213,-30 233,-30 233,-10 213,-10"/>
<text text-anchor="start" x="236.7812" y="-15.4" font-family="sans-serif" font-size="14.00" fill="#000000"> &#160;Bootstrap</text>
<polygon fill="#fdb462" stroke="transparent" points="310,-10 310,-30 330,-30 330,-10 310,-10"/>
<text text-anchor="start" x="333.6732" y="-15.4" font-family="sans-serif" font-size="14.00" fill="#000000"> &#160;Providers</text>
<polygon fill="#fb8072" stroke="transparent" points="406,-10 406,-30 426,-30 426,-10 406,-10"/>
<text text-anchor="start" x="429.7258" y="-15.4" font-family="sans-serif" font-size="14.00" fill="#000000"> &#160;Exports</text>
<g id="clust1" class="cluster">
<title>cluster_EditPageModule</title>
<polygon fill="none" stroke="#000000" stroke-dasharray="1,5" points="82,-70 82,-195 414,-195 414,-70 82,-70"/>
</g>
<g id="clust2" class="cluster">
<title>cluster_EditPageModule_declarations</title>
<polygon fill="none" stroke="#000000" points="296,-78 296,-130 406,-130 406,-78 296,-78"/>
</g>
<g id="clust4" class="cluster">
<title>cluster_EditPageModule_imports</title>
<polygon fill="none" stroke="#000000" points="90,-78 90,-130 288,-130 288,-78 90,-78"/>
</g>
<!-- HelpEditPage -->
<g id="node1" class="node">
<title>HelpEditPage</title>
<polygon fill="#ffffb3" stroke="#000000" points="397.7577,-122 304.2423,-122 304.2423,-86 397.7577,-86 397.7577,-122"/>
<text text-anchor="middle" x="351" y="-99.8" font-family="Times,serif" font-size="14.00" fill="#000000">HelpEditPage</text>
</g>
<!-- EditPageModule -->
<g id="node2" class="node">
<title>EditPageModule</title>
<polygon fill="#8dd3c7" stroke="#000000" points="325.0954,-187 322.0954,-191 301.0954,-191 298.0954,-187 214.9046,-187 214.9046,-151 325.0954,-151 325.0954,-187"/>
<text text-anchor="middle" x="270" y="-164.8" font-family="Times,serif" font-size="14.00" fill="#000000">EditPageModule</text>
</g>
<!-- HelpEditPage&#45;&gt;EditPageModule -->
<g id="edge1" class="edge">
<title>HelpEditPage&#45;&gt;EditPageModule</title>
<path fill="none" stroke="#000000" d="M314.5845,-122.1061C314.5845,-122.1061 314.5845,-140.991 314.5845,-140.991"/>
<polygon fill="#000000" stroke="#000000" points="311.0846,-140.9909 314.5845,-150.991 318.0846,-140.991 311.0846,-140.9909"/>
</g>
<!-- HelpEditPageRoutingModule -->
<g id="node3" class="node">
<title>HelpEditPageRoutingModule</title>
<polygon fill="#8dd3c7" stroke="#000000" points="280.4255,-122 277.4255,-126 256.4255,-126 253.4255,-122 97.5745,-122 97.5745,-86 280.4255,-86 280.4255,-122"/>
<text text-anchor="middle" x="189" y="-99.8" font-family="Times,serif" font-size="14.00" fill="#000000">HelpEditPageRoutingModule</text>
</g>
<!-- HelpEditPageRoutingModule&#45;&gt;EditPageModule -->
<g id="edge2" class="edge">
<title>HelpEditPageRoutingModule&#45;&gt;EditPageModule</title>
<path fill="none" stroke="#000000" d="M247.5824,-122.1061C247.5824,-122.1061 247.5824,-140.991 247.5824,-140.991"/>
<polygon fill="#000000" stroke="#000000" points="244.0825,-140.9909 247.5824,-150.991 251.0825,-140.991 244.0825,-140.9909"/>
</g>
</g>
</svg>
