<?xml version="1.0" encoding="UTF-8" standalone="no"?>
<!DOCTYPE svg PUBLIC "-//W3C//DTD SVG 1.1//EN"
 "http://www.w3.org/Graphics/SVG/1.1/DTD/svg11.dtd">
<!-- Generated by graphviz version 2.40.1 (20161225.0304)
 -->
<!-- Title: dependencies Pages: 1 -->
<svg width="504pt" height="211pt"
 viewBox="0.00 0.00 504.00 211.00" xmlns="http://www.w3.org/2000/svg" xmlns:xlink="http://www.w3.org/1999/xlink">
<g id="graph0" class="graph" transform="scale(1 1) rotate(0) translate(4 207)">
<title>dependencies</title>
<polygon fill="#ffffff" stroke="transparent" points="-4,4 -4,-207 500,-207 500,4 -4,4"/>
<text text-anchor="start" x="227.0091" y="-42.4" font-family="sans-serif" font-weight="bold" font-size="14.00" fill="#000000">Legend</text>
<polygon fill="#ffffb3" stroke="transparent" points="14,-10 14,-30 34,-30 34,-10 14,-10"/>
<text text-anchor="start" x="37.629" y="-15.4" font-family="sans-serif" font-size="14.00" fill="#000000"> &#160;Declarations</text>
<polygon fill="#8dd3c7" stroke="transparent" points="127,-10 127,-30 147,-30 147,-10 127,-10"/>
<text text-anchor="start" x="150.7251" y="-15.4" font-family="sans-serif" font-size="14.00" fill="#000000"> &#160;Module</text>
<polygon fill="#80b1d3" stroke="transparent" points="213,-10 213,-30 233,-30 233,-10 213,-10"/>
<text text-anchor="start" x="236.7812" y="-15.4" font-family="sans-serif" font-size="14.00" fill="#000000"> &#160;Bootstrap</text>
<polygon fill="#fdb462" stroke="transparent" points="310,-10 310,-30 330,-30 330,-10 310,-10"/>
<text text-anchor="start" x="333.6732" y="-15.4" font-family="sans-serif" font-size="14.00" fill="#000000"> &#160;Providers</text>
<polygon fill="#fb8072" stroke="transparent" points="406,-10 406,-30 426,-30 426,-10 406,-10"/>
<text text-anchor="start" x="429.7258" y="-15.4" font-family="sans-serif" font-size="14.00" fill="#000000"> &#160;Exports</text>
<g id="clust1" class="cluster">
<title>cluster_MessagesPageModule</title>
<polygon fill="none" stroke="#000000" stroke-dasharray="1,5" points="78,-70 78,-195 418,-195 418,-70 78,-70"/>
</g>
<g id="clust2" class="cluster">
<title>cluster_MessagesPageModule_declarations</title>
<polygon fill="none" stroke="#000000" points="296,-78 296,-130 410,-130 410,-78 296,-78"/>
</g>
<g id="clust4" class="cluster">
<title>cluster_MessagesPageModule_imports</title>
<polygon fill="none" stroke="#000000" points="86,-78 86,-130 288,-130 288,-78 86,-78"/>
</g>
<!-- MessagesPage -->
<g id="node1" class="node">
<title>MessagesPage</title>
<polygon fill="#ffffb3" stroke="#000000" points="401.6347,-122 304.3653,-122 304.3653,-86 401.6347,-86 401.6347,-122"/>
<text text-anchor="middle" x="353" y="-99.8" font-family="Times,serif" font-size="14.00" fill="#000000">MessagesPage</text>
</g>
<!-- MessagesPageModule -->
<g id="node2" class="node">
<title>MessagesPageModule</title>
<polygon fill="#8dd3c7" stroke="#000000" points="333.6839,-187 330.6839,-191 309.6839,-191 306.6839,-187 192.3161,-187 192.3161,-151 333.6839,-151 333.6839,-187"/>
<text text-anchor="middle" x="263" y="-164.8" font-family="Times,serif" font-size="14.00" fill="#000000">MessagesPageModule</text>
</g>
<!-- MessagesPage&#45;&gt;MessagesPageModule -->
<g id="edge1" class="edge">
<title>MessagesPage&#45;&gt;MessagesPageModule</title>
<path fill="none" stroke="#000000" d="M318.8875,-122.1061C318.8875,-122.1061 318.8875,-140.991 318.8875,-140.991"/>
<polygon fill="#000000" stroke="#000000" points="315.3875,-140.9909 318.8875,-150.991 322.3875,-140.991 315.3875,-140.9909"/>
</g>
<!-- MessagesPageRoutingModule -->
<g id="node3" class="node">
<title>MessagesPageRoutingModule</title>
<polygon fill="#8dd3c7" stroke="#000000" points="280.3018,-122 277.3018,-126 256.3018,-126 253.3018,-122 93.6982,-122 93.6982,-86 280.3018,-86 280.3018,-122"/>
<text text-anchor="middle" x="187" y="-99.8" font-family="Times,serif" font-size="14.00" fill="#000000">MessagesPageRoutingModule</text>
</g>
<!-- MessagesPageRoutingModule&#45;&gt;MessagesPageModule -->
<g id="edge2" class="edge">
<title>MessagesPageRoutingModule&#45;&gt;MessagesPageModule</title>
<path fill="none" stroke="#000000" d="M236.2795,-122.1061C236.2795,-122.1061 236.2795,-140.991 236.2795,-140.991"/>
<polygon fill="#000000" stroke="#000000" points="232.7795,-140.9909 236.2795,-150.991 239.7795,-140.991 232.7795,-140.9909"/>
</g>
</g>
</svg>
