<?xml version="1.0" encoding="UTF-8" standalone="no"?>
<!DOCTYPE svg PUBLIC "-//W3C//DTD SVG 1.1//EN"
 "http://www.w3.org/Graphics/SVG/1.1/DTD/svg11.dtd">
<!-- Generated by graphviz version 2.40.1 (20161225.0304)
 -->
<!-- Title: dependencies Pages: 1 -->
<svg width="504pt" height="211pt"
 viewBox="0.00 0.00 504.00 211.00" xmlns="http://www.w3.org/2000/svg" xmlns:xlink="http://www.w3.org/1999/xlink">
<g id="graph0" class="graph" transform="scale(1 1) rotate(0) translate(4 207)">
<title>dependencies</title>
<polygon fill="#ffffff" stroke="transparent" points="-4,4 -4,-207 500,-207 500,4 -4,4"/>
<text text-anchor="start" x="227.0091" y="-42.4" font-family="sans-serif" font-weight="bold" font-size="14.00" fill="#000000">Legend</text>
<polygon fill="#ffffb3" stroke="transparent" points="14,-10 14,-30 34,-30 34,-10 14,-10"/>
<text text-anchor="start" x="37.629" y="-15.4" font-family="sans-serif" font-size="14.00" fill="#000000"> &#160;Declarations</text>
<polygon fill="#8dd3c7" stroke="transparent" points="127,-10 127,-30 147,-30 147,-10 127,-10"/>
<text text-anchor="start" x="150.7251" y="-15.4" font-family="sans-serif" font-size="14.00" fill="#000000"> &#160;Module</text>
<polygon fill="#80b1d3" stroke="transparent" points="213,-10 213,-30 233,-30 233,-10 213,-10"/>
<text text-anchor="start" x="236.7812" y="-15.4" font-family="sans-serif" font-size="14.00" fill="#000000"> &#160;Bootstrap</text>
<polygon fill="#fdb462" stroke="transparent" points="310,-10 310,-30 330,-30 330,-10 310,-10"/>
<text text-anchor="start" x="333.6732" y="-15.4" font-family="sans-serif" font-size="14.00" fill="#000000"> &#160;Providers</text>
<polygon fill="#fb8072" stroke="transparent" points="406,-10 406,-30 426,-30 426,-10 406,-10"/>
<text text-anchor="start" x="429.7258" y="-15.4" font-family="sans-serif" font-size="14.00" fill="#000000"> &#160;Exports</text>
<g id="clust1" class="cluster">
<title>cluster_PrayersNovenaPageModule</title>
<polygon fill="none" stroke="#000000" stroke-dasharray="1,5" points="47,-70 47,-195 449,-195 449,-70 47,-70"/>
</g>
<g id="clust2" class="cluster">
<title>cluster_PrayersNovenaPageModule_declarations</title>
<polygon fill="none" stroke="#000000" points="297,-78 297,-130 441,-130 441,-78 297,-78"/>
</g>
<g id="clust4" class="cluster">
<title>cluster_PrayersNovenaPageModule_imports</title>
<polygon fill="none" stroke="#000000" points="55,-78 55,-130 289,-130 289,-78 55,-78"/>
</g>
<!-- PrayersNovenaPage -->
<g id="node1" class="node">
<title>PrayersNovenaPage</title>
<polygon fill="#ffffb3" stroke="#000000" points="433.2255,-122 304.7745,-122 304.7745,-86 433.2255,-86 433.2255,-122"/>
<text text-anchor="middle" x="369" y="-99.8" font-family="Times,serif" font-size="14.00" fill="#000000">PrayersNovenaPage</text>
</g>
<!-- PrayersNovenaPageModule -->
<g id="node2" class="node">
<title>PrayersNovenaPageModule</title>
<polygon fill="#8dd3c7" stroke="#000000" points="349.2752,-187 346.2752,-191 325.2752,-191 322.2752,-187 176.7248,-187 176.7248,-151 349.2752,-151 349.2752,-187"/>
<text text-anchor="middle" x="263" y="-164.8" font-family="Times,serif" font-size="14.00" fill="#000000">PrayersNovenaPageModule</text>
</g>
<!-- PrayersNovenaPage&#45;&gt;PrayersNovenaPageModule -->
<g id="edge1" class="edge">
<title>PrayersNovenaPage&#45;&gt;PrayersNovenaPageModule</title>
<path fill="none" stroke="#000000" d="M326.8875,-122.1061C326.8875,-122.1061 326.8875,-140.991 326.8875,-140.991"/>
<polygon fill="#000000" stroke="#000000" points="323.3875,-140.9909 326.8875,-150.991 330.3875,-140.991 323.3875,-140.9909"/>
</g>
<!-- PrayersNovenaPageRoutingModule -->
<g id="node3" class="node">
<title>PrayersNovenaPageRoutingModule</title>
<polygon fill="#8dd3c7" stroke="#000000" points="280.8932,-122 277.8932,-126 256.8932,-126 253.8932,-122 63.1068,-122 63.1068,-86 280.8932,-86 280.8932,-122"/>
<text text-anchor="middle" x="172" y="-99.8" font-family="Times,serif" font-size="14.00" fill="#000000">PrayersNovenaPageRoutingModule</text>
</g>
<!-- PrayersNovenaPageRoutingModule&#45;&gt;PrayersNovenaPageModule -->
<g id="edge2" class="edge">
<title>PrayersNovenaPageRoutingModule&#45;&gt;PrayersNovenaPageModule</title>
<path fill="none" stroke="#000000" d="M228.7795,-122.1061C228.7795,-122.1061 228.7795,-140.991 228.7795,-140.991"/>
<polygon fill="#000000" stroke="#000000" points="225.2795,-140.9909 228.7795,-150.991 232.2795,-140.991 225.2795,-140.9909"/>
</g>
</g>
</svg>
