<?xml version="1.0" encoding="UTF-8" standalone="no"?>
<!DOCTYPE svg PUBLIC "-//W3C//DTD SVG 1.1//EN"
 "http://www.w3.org/Graphics/SVG/1.1/DTD/svg11.dtd">
<!-- Generated by graphviz version 2.40.1 (20161225.0304)
 -->
<!-- Title: dependencies Pages: 1 -->
<svg width="1863pt" height="284pt"
 viewBox="0.00 0.00 1863.00 284.00" xmlns="http://www.w3.org/2000/svg" xmlns:xlink="http://www.w3.org/1999/xlink">
<g id="graph0" class="graph" transform="scale(1 1) rotate(0) translate(4 280)">
<title>dependencies</title>
<polygon fill="#ffffff" stroke="transparent" points="-4,4 -4,-280 1859,-280 1859,4 -4,4"/>
<text text-anchor="start" x="906.5091" y="-42.4" font-family="sans-serif" font-weight="bold" font-size="14.00" fill="#000000">Legend</text>
<polygon fill="#ffffb3" stroke="transparent" points="693.5,-10 693.5,-30 713.5,-30 713.5,-10 693.5,-10"/>
<text text-anchor="start" x="717.129" y="-15.4" font-family="sans-serif" font-size="14.00" fill="#000000"> &#160;Declarations</text>
<polygon fill="#8dd3c7" stroke="transparent" points="806.5,-10 806.5,-30 826.5,-30 826.5,-10 806.5,-10"/>
<text text-anchor="start" x="830.2251" y="-15.4" font-family="sans-serif" font-size="14.00" fill="#000000"> &#160;Module</text>
<polygon fill="#80b1d3" stroke="transparent" points="892.5,-10 892.5,-30 912.5,-30 912.5,-10 892.5,-10"/>
<text text-anchor="start" x="916.2812" y="-15.4" font-family="sans-serif" font-size="14.00" fill="#000000"> &#160;Bootstrap</text>
<polygon fill="#fdb462" stroke="transparent" points="989.5,-10 989.5,-30 1009.5,-30 1009.5,-10 989.5,-10"/>
<text text-anchor="start" x="1013.1732" y="-15.4" font-family="sans-serif" font-size="14.00" fill="#000000"> &#160;Providers</text>
<polygon fill="#fb8072" stroke="transparent" points="1085.5,-10 1085.5,-30 1105.5,-30 1105.5,-10 1085.5,-10"/>
<text text-anchor="start" x="1109.2258" y="-15.4" font-family="sans-serif" font-size="14.00" fill="#000000"> &#160;Exports</text>
<g id="clust1" class="cluster">
<title>cluster_DirectivesModule</title>
<polygon fill="none" stroke="#000000" stroke-dasharray="1,5" points="8,-70 8,-268 1847,-268 1847,-70 8,-70"/>
</g>
<g id="clust2" class="cluster">
<title>cluster_DirectivesModule_declarations</title>
<polygon fill="none" stroke="#000000" points="38,-78 38,-130 1826,-130 1826,-78 38,-78"/>
</g>
<g id="clust14" class="cluster">
<title>cluster_DirectivesModule_exports</title>
<polygon fill="none" stroke="#000000" points="16,-208 16,-260 1839,-260 1839,-208 16,-208"/>
</g>
<!-- AddSeoStuffDirective -->
<g id="node1" class="node">
<title>AddSeoStuffDirective</title>
<polygon fill="#ffffb3" stroke="#000000" points="1817.6811,-122 1676.3189,-122 1676.3189,-86 1817.6811,-86 1817.6811,-122"/>
<text text-anchor="middle" x="1747" y="-99.8" font-family="Times,serif" font-size="14.00" fill="#000000">AddSeoStuffDirective</text>
</g>
<!-- DirectivesModule -->
<g id="node11" class="node">
<title>DirectivesModule</title>
<polygon fill="#8dd3c7" stroke="#000000" points="972.5772,-187 969.5772,-191 948.5772,-191 945.5772,-187 855.4228,-187 855.4228,-151 972.5772,-151 972.5772,-187"/>
<text text-anchor="middle" x="914" y="-164.8" font-family="Times,serif" font-size="14.00" fill="#000000">DirectivesModule</text>
</g>
<!-- AddSeoStuffDirective&#45;&gt;DirectivesModule -->
<g id="edge1" class="edge">
<title>AddSeoStuffDirective&#45;&gt;DirectivesModule</title>
<path fill="none" stroke="#000000" d="M1681.5345,-122.1686C1681.5345,-141.0898 1681.5345,-168 1681.5345,-168 1681.5345,-168 982.6359,-168 982.6359,-168"/>
<polygon fill="#000000" stroke="#000000" points="982.6359,-164.5001 972.6359,-168 982.6359,-171.5001 982.6359,-164.5001"/>
</g>
<!-- HasRoleDirective -->
<g id="node2" class="node">
<title>HasRoleDirective</title>
<polygon fill="#ffffb3" stroke="#000000" points="1658.2908,-122 1541.7092,-122 1541.7092,-86 1658.2908,-86 1658.2908,-122"/>
<text text-anchor="middle" x="1600" y="-99.8" font-family="Times,serif" font-size="14.00" fill="#000000">HasRoleDirective</text>
</g>
<!-- HasRoleDirective&#45;&gt;DirectivesModule -->
<g id="edge2" class="edge">
<title>HasRoleDirective&#45;&gt;DirectivesModule</title>
<path fill="none" stroke="#000000" d="M1545.4798,-122.302C1545.4798,-140.2699 1545.4798,-165 1545.4798,-165 1545.4798,-165 982.5583,-165 982.5583,-165"/>
<polygon fill="#000000" stroke="#000000" points="982.5584,-161.5001 972.5583,-165 982.5583,-168.5001 982.5584,-161.5001"/>
</g>
<!-- ScrollerDirective -->
<g id="node3" class="node">
<title>ScrollerDirective</title>
<polygon fill="#ffffb3" stroke="#000000" points="1524.3977,-122 1411.6023,-122 1411.6023,-86 1524.3977,-86 1524.3977,-122"/>
<text text-anchor="middle" x="1468" y="-99.8" font-family="Times,serif" font-size="14.00" fill="#000000">ScrollerDirective</text>
</g>
<!-- ScrollerDirective&#45;&gt;DirectivesModule -->
<g id="edge3" class="edge">
<title>ScrollerDirective&#45;&gt;DirectivesModule</title>
<path fill="none" stroke="#000000" d="M1487.8162,-122.0352C1487.8162,-138.7344 1487.8162,-161 1487.8162,-161 1487.8162,-161 982.7118,-161 982.7118,-161"/>
<polygon fill="#000000" stroke="#000000" points="982.7118,-157.5001 972.7118,-161 982.7117,-164.5001 982.7118,-157.5001"/>
</g>
<!-- ShowActivityDetailsDirective -->
<g id="node4" class="node">
<title>ShowActivityDetailsDirective</title>
<polygon fill="#ffffb3" stroke="#000000" points="1393.5085,-122 1208.4915,-122 1208.4915,-86 1393.5085,-86 1393.5085,-122"/>
<text text-anchor="middle" x="1301" y="-99.8" font-family="Times,serif" font-size="14.00" fill="#000000">ShowActivityDetailsDirective</text>
</g>
<!-- ShowActivityDetailsDirective&#45;&gt;DirectivesModule -->
<g id="edge4" class="edge">
<title>ShowActivityDetailsDirective&#45;&gt;DirectivesModule</title>
<path fill="none" stroke="#000000" d="M1332.0013,-122.2819C1332.0013,-137.9478 1332.0013,-158 1332.0013,-158 1332.0013,-158 982.5614,-158 982.5614,-158"/>
<polygon fill="#000000" stroke="#000000" points="982.5615,-154.5001 972.5614,-158 982.5614,-161.5001 982.5615,-154.5001"/>
</g>
<!-- ShowArticleDetailsDirective -->
<g id="node5" class="node">
<title>ShowArticleDetailsDirective</title>
<polygon fill="#ffffb3" stroke="#000000" points="1190.4931,-122 1011.5069,-122 1011.5069,-86 1190.4931,-86 1190.4931,-122"/>
<text text-anchor="middle" x="1101" y="-99.8" font-family="Times,serif" font-size="14.00" fill="#000000">ShowArticleDetailsDirective</text>
</g>
<!-- ShowArticleDetailsDirective&#45;&gt;DirectivesModule -->
<g id="edge5" class="edge">
<title>ShowArticleDetailsDirective&#45;&gt;DirectivesModule</title>
<path fill="none" stroke="#000000" d="M1071.1679,-122.1243C1071.1679,-136.7832 1071.1679,-155 1071.1679,-155 1071.1679,-155 982.9707,-155 982.9707,-155"/>
<polygon fill="#000000" stroke="#000000" points="982.9707,-151.5001 972.9707,-155 982.9707,-158.5001 982.9707,-151.5001"/>
</g>
<!-- ShowPatronProfileDirective -->
<g id="node6" class="node">
<title>ShowPatronProfileDirective</title>
<polygon fill="#ffffb3" stroke="#000000" points="993.1204,-122 818.8796,-122 818.8796,-86 993.1204,-86 993.1204,-122"/>
<text text-anchor="middle" x="906" y="-99.8" font-family="Times,serif" font-size="14.00" fill="#000000">ShowPatronProfileDirective</text>
</g>
<!-- ShowPatronProfileDirective&#45;&gt;DirectivesModule -->
<g id="edge6" class="edge">
<title>ShowPatronProfileDirective&#45;&gt;DirectivesModule</title>
<path fill="none" stroke="#000000" d="M914,-122.1061C914,-122.1061 914,-140.991 914,-140.991"/>
<polygon fill="#000000" stroke="#000000" points="910.5001,-140.9909 914,-150.991 917.5001,-140.991 910.5001,-140.9909"/>
</g>
<!-- ShowPrayerDetailsDirective -->
<g id="node7" class="node">
<title>ShowPrayerDetailsDirective</title>
<polygon fill="#ffffb3" stroke="#000000" points="801.1573,-122 624.8427,-122 624.8427,-86 801.1573,-86 801.1573,-122"/>
<text text-anchor="middle" x="713" y="-99.8" font-family="Times,serif" font-size="14.00" fill="#000000">ShowPrayerDetailsDirective</text>
</g>
<!-- ShowPrayerDetailsDirective&#45;&gt;DirectivesModule -->
<g id="edge7" class="edge">
<title>ShowPrayerDetailsDirective&#45;&gt;DirectivesModule</title>
<path fill="none" stroke="#000000" d="M797.4536,-122.1243C797.4536,-136.7832 797.4536,-155 797.4536,-155 797.4536,-155 845.3854,-155 845.3854,-155"/>
<polygon fill="#000000" stroke="#000000" points="845.3854,-158.5001 855.3854,-155 845.3853,-151.5001 845.3854,-158.5001"/>
</g>
<!-- ShowTagDetailsDirective -->
<g id="node8" class="node">
<title>ShowTagDetailsDirective</title>
<polygon fill="#ffffb3" stroke="#000000" points="606.8919,-122 445.1081,-122 445.1081,-86 606.8919,-86 606.8919,-122"/>
<text text-anchor="middle" x="526" y="-99.8" font-family="Times,serif" font-size="14.00" fill="#000000">ShowTagDetailsDirective</text>
</g>
<!-- ShowTagDetailsDirective&#45;&gt;DirectivesModule -->
<g id="edge8" class="edge">
<title>ShowTagDetailsDirective&#45;&gt;DirectivesModule</title>
<path fill="none" stroke="#000000" d="M601.5707,-122.0091C601.5707,-138.0494 601.5707,-159 601.5707,-159 601.5707,-159 845.2344,-159 845.2344,-159"/>
<polygon fill="#000000" stroke="#000000" points="845.2345,-162.5001 855.2344,-159 845.2344,-155.5001 845.2345,-162.5001"/>
</g>
<!-- ShowTestimonyDetailsDirective -->
<g id="node9" class="node">
<title>ShowTestimonyDetailsDirective</title>
<polygon fill="#ffffb3" stroke="#000000" points="427.5084,-122 228.4916,-122 228.4916,-86 427.5084,-86 427.5084,-122"/>
<text text-anchor="middle" x="328" y="-99.8" font-family="Times,serif" font-size="14.00" fill="#000000">ShowTestimonyDetailsDirective</text>
</g>
<!-- ShowTestimonyDetailsDirective&#45;&gt;DirectivesModule -->
<g id="edge9" class="edge">
<title>ShowTestimonyDetailsDirective&#45;&gt;DirectivesModule</title>
<path fill="none" stroke="#000000" d="M420.6289,-122.0225C420.6289,-139.3734 420.6289,-163 420.6289,-163 420.6289,-163 844.978,-163 844.978,-163"/>
<polygon fill="#000000" stroke="#000000" points="844.978,-166.5001 854.978,-163 844.9779,-159.5001 844.978,-166.5001"/>
</g>
<!-- ShowUserProfileDirective -->
<g id="node10" class="node">
<title>ShowUserProfileDirective</title>
<polygon fill="#ffffb3" stroke="#000000" points="210.4988,-122 45.5012,-122 45.5012,-86 210.4988,-86 210.4988,-122"/>
<text text-anchor="middle" x="128" y="-99.8" font-family="Times,serif" font-size="14.00" fill="#000000">ShowUserProfileDirective</text>
</g>
<!-- ShowUserProfileDirective&#45;&gt;DirectivesModule -->
<g id="edge10" class="edge">
<title>ShowUserProfileDirective&#45;&gt;DirectivesModule</title>
<path fill="none" stroke="#000000" d="M201.124,-122.2222C201.124,-140.8285 201.124,-167 201.124,-167 201.124,-167 845.3594,-167 845.3594,-167"/>
<polygon fill="#000000" stroke="#000000" points="845.3595,-170.5001 855.3594,-167 845.3594,-163.5001 845.3595,-170.5001"/>
</g>
<!-- AddSeoStuffDirective  -->
<g id="node12" class="node">
<title>AddSeoStuffDirective </title>
<polygon fill="#fb8072" stroke="#000000" points="1831.1814,-252 1686.8186,-252 1686.8186,-216 1831.1814,-216 1831.1814,-252"/>
<text text-anchor="middle" x="1759" y="-229.8" font-family="Times,serif" font-size="14.00" fill="#000000">AddSeoStuffDirective </text>
</g>
<!-- DirectivesModule&#45;&gt;AddSeoStuffDirective  -->
<g id="edge11" class="edge">
<title>DirectivesModule&#45;&gt;AddSeoStuffDirective </title>
<path fill="none" stroke="#000000" stroke-dasharray="5,2" d="M972.6022,-171C1163.0244,-171 1752.125,-171 1752.125,-171 1752.125,-171 1752.125,-205.7778 1752.125,-205.7778"/>
<polygon fill="#000000" stroke="#000000" points="1748.6251,-205.7778 1752.125,-215.7778 1755.6251,-205.7778 1748.6251,-205.7778"/>
</g>
<!-- HasRoleDirective  -->
<g id="node13" class="node">
<title>HasRoleDirective </title>
<polygon fill="#fb8072" stroke="#000000" points="1668.7906,-252 1549.2094,-252 1549.2094,-216 1668.7906,-216 1668.7906,-252"/>
<text text-anchor="middle" x="1609" y="-229.8" font-family="Times,serif" font-size="14.00" fill="#000000">HasRoleDirective </text>
</g>
<!-- DirectivesModule&#45;&gt;HasRoleDirective  -->
<g id="edge12" class="edge">
<title>DirectivesModule&#45;&gt;HasRoleDirective </title>
<path fill="none" stroke="#000000" stroke-dasharray="5,2" d="M972.797,-174C1139.5676,-174 1603.625,-174 1603.625,-174 1603.625,-174 1603.625,-205.998 1603.625,-205.998"/>
<polygon fill="#000000" stroke="#000000" points="1600.1251,-205.998 1603.625,-215.998 1607.1251,-205.9981 1600.1251,-205.998"/>
</g>
<!-- ScrollerDirective  -->
<g id="node14" class="node">
<title>ScrollerDirective </title>
<polygon fill="#fb8072" stroke="#000000" points="1530.897,-252 1415.103,-252 1415.103,-216 1530.897,-216 1530.897,-252"/>
<text text-anchor="middle" x="1473" y="-229.8" font-family="Times,serif" font-size="14.00" fill="#000000">ScrollerDirective </text>
</g>
<!-- DirectivesModule&#45;&gt;ScrollerDirective  -->
<g id="edge13" class="edge">
<title>DirectivesModule&#45;&gt;ScrollerDirective </title>
<path fill="none" stroke="#000000" stroke-dasharray="5,2" d="M972.7948,-178C1112.246,-178 1451.4338,-178 1451.4338,-178 1451.4338,-178 1451.4338,-205.973 1451.4338,-205.973"/>
<polygon fill="#000000" stroke="#000000" points="1447.9339,-205.973 1451.4338,-215.973 1454.9339,-205.973 1447.9339,-205.973"/>
</g>
<!-- ShowActivityDetailsDirective  -->
<g id="node15" class="node">
<title>ShowActivityDetailsDirective </title>
<polygon fill="#fb8072" stroke="#000000" points="1397.5078,-252 1208.4922,-252 1208.4922,-216 1397.5078,-216 1397.5078,-252"/>
<text text-anchor="middle" x="1303" y="-229.8" font-family="Times,serif" font-size="14.00" fill="#000000">ShowActivityDetailsDirective </text>
</g>
<!-- DirectivesModule&#45;&gt;ShowActivityDetailsDirective  -->
<g id="edge14" class="edge">
<title>DirectivesModule&#45;&gt;ShowActivityDetailsDirective </title>
<path fill="none" stroke="#000000" stroke-dasharray="5,2" d="M972.8272,-181C1074.0119,-181 1270.2487,-181 1270.2487,-181 1270.2487,-181 1270.2487,-205.7604 1270.2487,-205.7604"/>
<polygon fill="#000000" stroke="#000000" points="1266.7488,-205.7604 1270.2487,-215.7604 1273.7488,-205.7604 1266.7488,-205.7604"/>
</g>
<!-- ShowArticleDetailsDirective  -->
<g id="node16" class="node">
<title>ShowArticleDetailsDirective </title>
<polygon fill="#fb8072" stroke="#000000" points="1189.9924,-252 1008.0076,-252 1008.0076,-216 1189.9924,-216 1189.9924,-252"/>
<text text-anchor="middle" x="1099" y="-229.8" font-family="Times,serif" font-size="14.00" fill="#000000">ShowArticleDetailsDirective </text>
</g>
<!-- DirectivesModule&#45;&gt;ShowArticleDetailsDirective  -->
<g id="edge15" class="edge">
<title>DirectivesModule&#45;&gt;ShowArticleDetailsDirective </title>
<path fill="none" stroke="#000000" stroke-dasharray="5,2" d="M972.6102,-184C1036.7519,-184 1130.5821,-184 1130.5821,-184 1130.5821,-184 1130.5821,-205.9489 1130.5821,-205.9489"/>
<polygon fill="#000000" stroke="#000000" points="1127.0822,-205.9488 1130.5821,-215.9489 1134.0822,-205.9489 1127.0822,-205.9488"/>
</g>
<!-- ShowPatronProfileDirective  -->
<g id="node17" class="node">
<title>ShowPatronProfileDirective </title>
<polygon fill="#fb8072" stroke="#000000" points="990.12,-252 811.88,-252 811.88,-216 990.12,-216 990.12,-252"/>
<text text-anchor="middle" x="901" y="-229.8" font-family="Times,serif" font-size="14.00" fill="#000000">ShowPatronProfileDirective </text>
</g>
<!-- DirectivesModule&#45;&gt;ShowPatronProfileDirective  -->
<g id="edge16" class="edge">
<title>DirectivesModule&#45;&gt;ShowPatronProfileDirective </title>
<path fill="none" stroke="#000000" stroke-dasharray="5,2" d="M914,-187.1061C914,-187.1061 914,-205.991 914,-205.991"/>
<polygon fill="#000000" stroke="#000000" points="910.5001,-205.9909 914,-215.991 917.5001,-205.991 910.5001,-205.9909"/>
</g>
<!-- ShowPrayerDetailsDirective  -->
<g id="node18" class="node">
<title>ShowPrayerDetailsDirective </title>
<polygon fill="#fb8072" stroke="#000000" points="793.6575,-252 614.3425,-252 614.3425,-216 793.6575,-216 793.6575,-252"/>
<text text-anchor="middle" x="704" y="-229.8" font-family="Times,serif" font-size="14.00" fill="#000000">ShowPrayerDetailsDirective </text>
</g>
<!-- DirectivesModule&#45;&gt;ShowPrayerDetailsDirective  -->
<g id="edge17" class="edge">
<title>DirectivesModule&#45;&gt;ShowPrayerDetailsDirective </title>
<path fill="none" stroke="#000000" stroke-dasharray="5,2" d="M855.3627,-183C794.8964,-183 709.375,-183 709.375,-183 709.375,-183 709.375,-205.8757 709.375,-205.8757"/>
<polygon fill="#000000" stroke="#000000" points="705.8751,-205.8757 709.375,-215.8757 712.8751,-205.8757 705.8751,-205.8757"/>
</g>
<!-- ShowTagDetailsDirective  -->
<g id="node19" class="node">
<title>ShowTagDetailsDirective </title>
<polygon fill="#fb8072" stroke="#000000" points="596.3914,-252 431.6086,-252 431.6086,-216 596.3914,-216 596.3914,-252"/>
<text text-anchor="middle" x="514" y="-229.8" font-family="Times,serif" font-size="14.00" fill="#000000">ShowTagDetailsDirective </text>
</g>
<!-- DirectivesModule&#45;&gt;ShowTagDetailsDirective  -->
<g id="edge18" class="edge">
<title>DirectivesModule&#45;&gt;ShowTagDetailsDirective </title>
<path fill="none" stroke="#000000" stroke-dasharray="5,2" d="M855.1452,-179C745.4765,-179 520.875,-179 520.875,-179 520.875,-179 520.875,-205.9909 520.875,-205.9909"/>
<polygon fill="#000000" stroke="#000000" points="517.3751,-205.9909 520.875,-215.9909 524.3751,-205.991 517.3751,-205.9909"/>
</g>
<!-- ShowTestimonyDetailsDirective  -->
<g id="node20" class="node">
<title>ShowTestimonyDetailsDirective </title>
<polygon fill="#fb8072" stroke="#000000" points="413.5078,-252 210.4922,-252 210.4922,-216 413.5078,-216 413.5078,-252"/>
<text text-anchor="middle" x="312" y="-229.8" font-family="Times,serif" font-size="14.00" fill="#000000">ShowTestimonyDetailsDirective </text>
</g>
<!-- DirectivesModule&#45;&gt;ShowTestimonyDetailsDirective  -->
<g id="edge19" class="edge">
<title>DirectivesModule&#45;&gt;ShowTestimonyDetailsDirective </title>
<path fill="none" stroke="#000000" stroke-dasharray="5,2" d="M855.2333,-175C705.4027,-175 320.875,-175 320.875,-175 320.875,-175 320.875,-205.9775 320.875,-205.9775"/>
<polygon fill="#000000" stroke="#000000" points="317.3751,-205.9774 320.875,-215.9775 324.3751,-205.9775 317.3751,-205.9774"/>
</g>
<!-- ShowUserProfileDirective  -->
<g id="node21" class="node">
<title>ShowUserProfileDirective </title>
<polygon fill="#fb8072" stroke="#000000" points="191.998,-252 24.002,-252 24.002,-216 191.998,-216 191.998,-252"/>
<text text-anchor="middle" x="108" y="-229.8" font-family="Times,serif" font-size="14.00" fill="#000000">ShowUserProfileDirective </text>
</g>
<!-- DirectivesModule&#45;&gt;ShowUserProfileDirective  -->
<g id="edge20" class="edge">
<title>DirectivesModule&#45;&gt;ShowUserProfileDirective </title>
<path fill="none" stroke="#000000" stroke-dasharray="5,2" d="M855.2097,-171C671.2609,-171 118.875,-171 118.875,-171 118.875,-171 118.875,-205.7778 118.875,-205.7778"/>
<polygon fill="#000000" stroke="#000000" points="115.3751,-205.7778 118.875,-215.7778 122.3751,-205.7778 115.3751,-205.7778"/>
</g>
</g>
</svg>
