<?xml version="1.0" encoding="UTF-8" standalone="no"?>
<!DOCTYPE svg PUBLIC "-//W3C//DTD SVG 1.1//EN"
 "http://www.w3.org/Graphics/SVG/1.1/DTD/svg11.dtd">
<!-- Generated by graphviz version 2.40.1 (20161225.0304)
 -->
<!-- Title: dependencies Pages: 1 -->
<svg width="504pt" height="211pt"
 viewBox="0.00 0.00 504.00 211.00" xmlns="http://www.w3.org/2000/svg" xmlns:xlink="http://www.w3.org/1999/xlink">
<g id="graph0" class="graph" transform="scale(1 1) rotate(0) translate(4 207)">
<title>dependencies</title>
<polygon fill="#ffffff" stroke="transparent" points="-4,4 -4,-207 500,-207 500,4 -4,4"/>
<text text-anchor="start" x="227.0091" y="-42.4" font-family="sans-serif" font-weight="bold" font-size="14.00" fill="#000000">Legend</text>
<polygon fill="#ffffb3" stroke="transparent" points="14,-10 14,-30 34,-30 34,-10 14,-10"/>
<text text-anchor="start" x="37.629" y="-15.4" font-family="sans-serif" font-size="14.00" fill="#000000"> &#160;Declarations</text>
<polygon fill="#8dd3c7" stroke="transparent" points="127,-10 127,-30 147,-30 147,-10 127,-10"/>
<text text-anchor="start" x="150.7251" y="-15.4" font-family="sans-serif" font-size="14.00" fill="#000000"> &#160;Module</text>
<polygon fill="#80b1d3" stroke="transparent" points="213,-10 213,-30 233,-30 233,-10 213,-10"/>
<text text-anchor="start" x="236.7812" y="-15.4" font-family="sans-serif" font-size="14.00" fill="#000000"> &#160;Bootstrap</text>
<polygon fill="#fdb462" stroke="transparent" points="310,-10 310,-30 330,-30 330,-10 310,-10"/>
<text text-anchor="start" x="333.6732" y="-15.4" font-family="sans-serif" font-size="14.00" fill="#000000"> &#160;Providers</text>
<polygon fill="#fb8072" stroke="transparent" points="406,-10 406,-30 426,-30 426,-10 406,-10"/>
<text text-anchor="start" x="429.7258" y="-15.4" font-family="sans-serif" font-size="14.00" fill="#000000"> &#160;Exports</text>
<g id="clust1" class="cluster">
<title>cluster_UserDetailsPageModule</title>
<polygon fill="none" stroke="#000000" stroke-dasharray="1,5" points="66,-70 66,-195 430,-195 430,-70 66,-70"/>
</g>
<g id="clust2" class="cluster">
<title>cluster_UserDetailsPageModule_declarations</title>
<polygon fill="none" stroke="#000000" points="296,-78 296,-130 422,-130 422,-78 296,-78"/>
</g>
<g id="clust4" class="cluster">
<title>cluster_UserDetailsPageModule_imports</title>
<polygon fill="none" stroke="#000000" points="74,-78 74,-130 288,-130 288,-78 74,-78"/>
</g>
<!-- UserDetailsPage -->
<g id="node1" class="node">
<title>UserDetailsPage</title>
<polygon fill="#ffffb3" stroke="#000000" points="413.7908,-122 304.2092,-122 304.2092,-86 413.7908,-86 413.7908,-122"/>
<text text-anchor="middle" x="359" y="-99.8" font-family="Times,serif" font-size="14.00" fill="#000000">UserDetailsPage</text>
</g>
<!-- UserDetailsPageModule -->
<g id="node2" class="node">
<title>UserDetailsPageModule</title>
<polygon fill="#8dd3c7" stroke="#000000" points="339.3403,-187 336.3403,-191 315.3403,-191 312.3403,-187 186.6597,-187 186.6597,-151 339.3403,-151 339.3403,-187"/>
<text text-anchor="middle" x="263" y="-164.8" font-family="Times,serif" font-size="14.00" fill="#000000">UserDetailsPageModule</text>
</g>
<!-- UserDetailsPage&#45;&gt;UserDetailsPageModule -->
<g id="edge1" class="edge">
<title>UserDetailsPage&#45;&gt;UserDetailsPageModule</title>
<path fill="none" stroke="#000000" d="M321.8875,-122.1061C321.8875,-122.1061 321.8875,-140.991 321.8875,-140.991"/>
<polygon fill="#000000" stroke="#000000" points="318.3875,-140.9909 321.8875,-150.991 325.3875,-140.991 318.3875,-140.9909"/>
</g>
<!-- UserDetailsPageRoutingModule -->
<g id="node3" class="node">
<title>UserDetailsPageRoutingModule</title>
<polygon fill="#8dd3c7" stroke="#000000" points="279.958,-122 276.958,-126 255.958,-126 252.958,-122 82.042,-122 82.042,-86 279.958,-86 279.958,-122"/>
<text text-anchor="middle" x="181" y="-99.8" font-family="Times,serif" font-size="14.00" fill="#000000">UserDetailsPageRoutingModule</text>
</g>
<!-- UserDetailsPageRoutingModule&#45;&gt;UserDetailsPageModule -->
<g id="edge2" class="edge">
<title>UserDetailsPageRoutingModule&#45;&gt;UserDetailsPageModule</title>
<path fill="none" stroke="#000000" d="M233.2795,-122.1061C233.2795,-122.1061 233.2795,-140.991 233.2795,-140.991"/>
<polygon fill="#000000" stroke="#000000" points="229.7795,-140.9909 233.2795,-150.991 236.7795,-140.991 229.7795,-140.9909"/>
</g>
</g>
</svg>
