<?xml version="1.0" encoding="UTF-8" standalone="no"?>
<!DOCTYPE svg PUBLIC "-//W3C//DTD SVG 1.1//EN"
 "http://www.w3.org/Graphics/SVG/1.1/DTD/svg11.dtd">
<!-- Generated by graphviz version 2.40.1 (20161225.0304)
 -->
<!-- Title: dependencies Pages: 1 -->
<svg width="504pt" height="211pt"
 viewBox="0.00 0.00 504.00 211.00" xmlns="http://www.w3.org/2000/svg" xmlns:xlink="http://www.w3.org/1999/xlink">
<g id="graph0" class="graph" transform="scale(1 1) rotate(0) translate(4 207)">
<title>dependencies</title>
<polygon fill="#ffffff" stroke="transparent" points="-4,4 -4,-207 500,-207 500,4 -4,4"/>
<text text-anchor="start" x="227.0091" y="-42.4" font-family="sans-serif" font-weight="bold" font-size="14.00" fill="#000000">Legend</text>
<polygon fill="#ffffb3" stroke="transparent" points="14,-10 14,-30 34,-30 34,-10 14,-10"/>
<text text-anchor="start" x="37.629" y="-15.4" font-family="sans-serif" font-size="14.00" fill="#000000"> &#160;Declarations</text>
<polygon fill="#8dd3c7" stroke="transparent" points="127,-10 127,-30 147,-30 147,-10 127,-10"/>
<text text-anchor="start" x="150.7251" y="-15.4" font-family="sans-serif" font-size="14.00" fill="#000000"> &#160;Module</text>
<polygon fill="#80b1d3" stroke="transparent" points="213,-10 213,-30 233,-30 233,-10 213,-10"/>
<text text-anchor="start" x="236.7812" y="-15.4" font-family="sans-serif" font-size="14.00" fill="#000000"> &#160;Bootstrap</text>
<polygon fill="#fdb462" stroke="transparent" points="310,-10 310,-30 330,-30 330,-10 310,-10"/>
<text text-anchor="start" x="333.6732" y="-15.4" font-family="sans-serif" font-size="14.00" fill="#000000"> &#160;Providers</text>
<polygon fill="#fb8072" stroke="transparent" points="406,-10 406,-30 426,-30 426,-10 406,-10"/>
<text text-anchor="start" x="429.7258" y="-15.4" font-family="sans-serif" font-size="14.00" fill="#000000"> &#160;Exports</text>
<g id="clust1" class="cluster">
<title>cluster_ParishesPageModule</title>
<polygon fill="none" stroke="#000000" stroke-dasharray="1,5" points="86,-70 86,-195 410,-195 410,-70 86,-70"/>
</g>
<g id="clust2" class="cluster">
<title>cluster_ParishesPageModule_declarations</title>
<polygon fill="none" stroke="#000000" points="296,-78 296,-130 402,-130 402,-78 296,-78"/>
</g>
<g id="clust4" class="cluster">
<title>cluster_ParishesPageModule_imports</title>
<polygon fill="none" stroke="#000000" points="94,-78 94,-130 288,-130 288,-78 94,-78"/>
</g>
<!-- ParishesPage -->
<g id="node1" class="node">
<title>ParishesPage</title>
<polygon fill="#ffffb3" stroke="#000000" points="393.8641,-122 304.1359,-122 304.1359,-86 393.8641,-86 393.8641,-122"/>
<text text-anchor="middle" x="349" y="-99.8" font-family="Times,serif" font-size="14.00" fill="#000000">ParishesPage</text>
</g>
<!-- ParishesPageModule -->
<g id="node2" class="node">
<title>ParishesPageModule</title>
<polygon fill="#8dd3c7" stroke="#000000" points="329.9144,-187 326.9144,-191 305.9144,-191 302.9144,-187 196.0856,-187 196.0856,-151 329.9144,-151 329.9144,-187"/>
<text text-anchor="middle" x="263" y="-164.8" font-family="Times,serif" font-size="14.00" fill="#000000">ParishesPageModule</text>
</g>
<!-- ParishesPage&#45;&gt;ParishesPageModule -->
<g id="edge1" class="edge">
<title>ParishesPage&#45;&gt;ParishesPageModule</title>
<path fill="none" stroke="#000000" d="M316.8875,-122.1061C316.8875,-122.1061 316.8875,-140.991 316.8875,-140.991"/>
<polygon fill="#000000" stroke="#000000" points="313.3875,-140.9909 316.8875,-150.991 320.3875,-140.991 313.3875,-140.9909"/>
</g>
<!-- ParishesPageRoutingModule -->
<g id="node3" class="node">
<title>ParishesPageRoutingModule</title>
<polygon fill="#8dd3c7" stroke="#000000" points="280.0322,-122 277.0322,-126 256.0322,-126 253.0322,-122 101.9678,-122 101.9678,-86 280.0322,-86 280.0322,-122"/>
<text text-anchor="middle" x="191" y="-99.8" font-family="Times,serif" font-size="14.00" fill="#000000">ParishesPageRoutingModule</text>
</g>
<!-- ParishesPageRoutingModule&#45;&gt;ParishesPageModule -->
<g id="edge2" class="edge">
<title>ParishesPageRoutingModule&#45;&gt;ParishesPageModule</title>
<path fill="none" stroke="#000000" d="M238.2795,-122.1061C238.2795,-122.1061 238.2795,-140.991 238.2795,-140.991"/>
<polygon fill="#000000" stroke="#000000" points="234.7795,-140.9909 238.2795,-150.991 241.7795,-140.991 234.7795,-140.9909"/>
</g>
</g>
</svg>
