<?xml version="1.0" encoding="UTF-8" standalone="no"?>
<!DOCTYPE svg PUBLIC "-//W3C//DTD SVG 1.1//EN"
 "http://www.w3.org/Graphics/SVG/1.1/DTD/svg11.dtd">
<!-- Generated by graphviz version 2.40.1 (20161225.0304)
 -->
<!-- Title: dependencies Pages: 1 -->
<svg width="504pt" height="211pt"
 viewBox="0.00 0.00 504.00 211.00" xmlns="http://www.w3.org/2000/svg" xmlns:xlink="http://www.w3.org/1999/xlink">
<g id="graph0" class="graph" transform="scale(1 1) rotate(0) translate(4 207)">
<title>dependencies</title>
<polygon fill="#ffffff" stroke="transparent" points="-4,4 -4,-207 500,-207 500,4 -4,4"/>
<text text-anchor="start" x="227.0091" y="-42.4" font-family="sans-serif" font-weight="bold" font-size="14.00" fill="#000000">Legend</text>
<polygon fill="#ffffb3" stroke="transparent" points="14,-10 14,-30 34,-30 34,-10 14,-10"/>
<text text-anchor="start" x="37.629" y="-15.4" font-family="sans-serif" font-size="14.00" fill="#000000"> &#160;Declarations</text>
<polygon fill="#8dd3c7" stroke="transparent" points="127,-10 127,-30 147,-30 147,-10 127,-10"/>
<text text-anchor="start" x="150.7251" y="-15.4" font-family="sans-serif" font-size="14.00" fill="#000000"> &#160;Module</text>
<polygon fill="#80b1d3" stroke="transparent" points="213,-10 213,-30 233,-30 233,-10 213,-10"/>
<text text-anchor="start" x="236.7812" y="-15.4" font-family="sans-serif" font-size="14.00" fill="#000000"> &#160;Bootstrap</text>
<polygon fill="#fdb462" stroke="transparent" points="310,-10 310,-30 330,-30 330,-10 310,-10"/>
<text text-anchor="start" x="333.6732" y="-15.4" font-family="sans-serif" font-size="14.00" fill="#000000"> &#160;Providers</text>
<polygon fill="#fb8072" stroke="transparent" points="406,-10 406,-30 426,-30 426,-10 406,-10"/>
<text text-anchor="start" x="429.7258" y="-15.4" font-family="sans-serif" font-size="14.00" fill="#000000"> &#160;Exports</text>
<g id="clust1" class="cluster">
<title>cluster_IntentionEditDetailsPageModule</title>
<polygon fill="none" stroke="#000000" stroke-dasharray="1,5" points="19,-70 19,-195 477,-195 477,-70 19,-70"/>
</g>
<g id="clust2" class="cluster">
<title>cluster_IntentionEditDetailsPageModule_declarations</title>
<polygon fill="none" stroke="#000000" points="297,-78 297,-130 469,-130 469,-78 297,-78"/>
</g>
<g id="clust4" class="cluster">
<title>cluster_IntentionEditDetailsPageModule_imports</title>
<polygon fill="none" stroke="#000000" points="27,-78 27,-130 289,-130 289,-78 27,-78"/>
</g>
<!-- IntentionEditDetailsPage -->
<g id="node1" class="node">
<title>IntentionEditDetailsPage</title>
<polygon fill="#ffffb3" stroke="#000000" points="461.245,-122 304.755,-122 304.755,-86 461.245,-86 461.245,-122"/>
<text text-anchor="middle" x="383" y="-99.8" font-family="Times,serif" font-size="14.00" fill="#000000">IntentionEditDetailsPage</text>
</g>
<!-- IntentionEditDetailsPageModule -->
<g id="node2" class="node">
<title>IntentionEditDetailsPageModule</title>
<polygon fill="#8dd3c7" stroke="#000000" points="363.2948,-187 360.2948,-191 339.2948,-191 336.2948,-187 162.7052,-187 162.7052,-151 363.2948,-151 363.2948,-187"/>
<text text-anchor="middle" x="263" y="-164.8" font-family="Times,serif" font-size="14.00" fill="#000000">IntentionEditDetailsPageModule</text>
</g>
<!-- IntentionEditDetailsPage&#45;&gt;IntentionEditDetailsPageModule -->
<g id="edge1" class="edge">
<title>IntentionEditDetailsPage&#45;&gt;IntentionEditDetailsPageModule</title>
<path fill="none" stroke="#000000" d="M333.8875,-122.1061C333.8875,-122.1061 333.8875,-140.991 333.8875,-140.991"/>
<polygon fill="#000000" stroke="#000000" points="330.3875,-140.9909 333.8875,-150.991 337.3875,-140.991 330.3875,-140.9909"/>
</g>
<!-- IntentionEditDetailsPageRoutingModule -->
<g id="node3" class="node">
<title>IntentionEditDetailsPageRoutingModule</title>
<polygon fill="#8dd3c7" stroke="#000000" points="280.9127,-122 277.9127,-126 256.9127,-126 253.9127,-122 35.0873,-122 35.0873,-86 280.9127,-86 280.9127,-122"/>
<text text-anchor="middle" x="158" y="-99.8" font-family="Times,serif" font-size="14.00" fill="#000000">IntentionEditDetailsPageRoutingModule</text>
</g>
<!-- IntentionEditDetailsPageRoutingModule&#45;&gt;IntentionEditDetailsPageModule -->
<g id="edge2" class="edge">
<title>IntentionEditDetailsPageRoutingModule&#45;&gt;IntentionEditDetailsPageModule</title>
<path fill="none" stroke="#000000" d="M221.7795,-122.1061C221.7795,-122.1061 221.7795,-140.991 221.7795,-140.991"/>
<polygon fill="#000000" stroke="#000000" points="218.2795,-140.9909 221.7795,-150.991 225.2795,-140.991 218.2795,-140.9909"/>
</g>
</g>
</svg>
