<?xml version="1.0" encoding="UTF-8" standalone="no"?>
<!DOCTYPE svg PUBLIC "-//W3C//DTD SVG 1.1//EN"
 "http://www.w3.org/Graphics/SVG/1.1/DTD/svg11.dtd">
<!-- Generated by graphviz version 2.40.1 (20161225.0304)
 -->
<!-- Title: dependencies Pages: 1 -->
<svg width="504pt" height="211pt"
 viewBox="0.00 0.00 504.00 211.00" xmlns="http://www.w3.org/2000/svg" xmlns:xlink="http://www.w3.org/1999/xlink">
<g id="graph0" class="graph" transform="scale(1 1) rotate(0) translate(4 207)">
<title>dependencies</title>
<polygon fill="#ffffff" stroke="transparent" points="-4,4 -4,-207 500,-207 500,4 -4,4"/>
<text text-anchor="start" x="227.0091" y="-42.4" font-family="sans-serif" font-weight="bold" font-size="14.00" fill="#000000">Legend</text>
<polygon fill="#ffffb3" stroke="transparent" points="14,-10 14,-30 34,-30 34,-10 14,-10"/>
<text text-anchor="start" x="37.629" y="-15.4" font-family="sans-serif" font-size="14.00" fill="#000000"> &#160;Declarations</text>
<polygon fill="#8dd3c7" stroke="transparent" points="127,-10 127,-30 147,-30 147,-10 127,-10"/>
<text text-anchor="start" x="150.7251" y="-15.4" font-family="sans-serif" font-size="14.00" fill="#000000"> &#160;Module</text>
<polygon fill="#80b1d3" stroke="transparent" points="213,-10 213,-30 233,-30 233,-10 213,-10"/>
<text text-anchor="start" x="236.7812" y="-15.4" font-family="sans-serif" font-size="14.00" fill="#000000"> &#160;Bootstrap</text>
<polygon fill="#fdb462" stroke="transparent" points="310,-10 310,-30 330,-30 330,-10 310,-10"/>
<text text-anchor="start" x="333.6732" y="-15.4" font-family="sans-serif" font-size="14.00" fill="#000000"> &#160;Providers</text>
<polygon fill="#fb8072" stroke="transparent" points="406,-10 406,-30 426,-30 426,-10 406,-10"/>
<text text-anchor="start" x="429.7258" y="-15.4" font-family="sans-serif" font-size="14.00" fill="#000000"> &#160;Exports</text>
<g id="clust1" class="cluster">
<title>cluster_BlessednessOfGodPageModule</title>
<polygon fill="none" stroke="#000000" stroke-dasharray="1,5" points="26,-70 26,-195 470,-195 470,-70 26,-70"/>
</g>
<g id="clust2" class="cluster">
<title>cluster_BlessednessOfGodPageModule_declarations</title>
<polygon fill="none" stroke="#000000" points="296,-78 296,-130 462,-130 462,-78 296,-78"/>
</g>
<g id="clust4" class="cluster">
<title>cluster_BlessednessOfGodPageModule_imports</title>
<polygon fill="none" stroke="#000000" points="34,-78 34,-130 288,-130 288,-78 34,-78"/>
</g>
<!-- BlessednessOfGodPage -->
<g id="node1" class="node">
<title>BlessednessOfGodPage</title>
<polygon fill="#ffffb3" stroke="#000000" points="453.7352,-122 304.2648,-122 304.2648,-86 453.7352,-86 453.7352,-122"/>
<text text-anchor="middle" x="379" y="-99.8" font-family="Times,serif" font-size="14.00" fill="#000000">BlessednessOfGodPage</text>
</g>
<!-- BlessednessOfGodPageModule -->
<g id="node2" class="node">
<title>BlessednessOfGodPageModule</title>
<polygon fill="#8dd3c7" stroke="#000000" points="359.785,-187 356.785,-191 335.785,-191 332.785,-187 166.215,-187 166.215,-151 359.785,-151 359.785,-187"/>
<text text-anchor="middle" x="263" y="-164.8" font-family="Times,serif" font-size="14.00" fill="#000000">BlessednessOfGodPageModule</text>
</g>
<!-- BlessednessOfGodPage&#45;&gt;BlessednessOfGodPageModule -->
<g id="edge1" class="edge">
<title>BlessednessOfGodPage&#45;&gt;BlessednessOfGodPageModule</title>
<path fill="none" stroke="#000000" d="M331.8875,-122.1061C331.8875,-122.1061 331.8875,-140.991 331.8875,-140.991"/>
<polygon fill="#000000" stroke="#000000" points="328.3875,-140.9909 331.8875,-150.991 335.3875,-140.991 328.3875,-140.9909"/>
</g>
<!-- BlessednessOfGodPageRoutingModule -->
<g id="node3" class="node">
<title>BlessednessOfGodPageRoutingModule</title>
<polygon fill="#8dd3c7" stroke="#000000" points="280.4029,-122 277.4029,-126 256.4029,-126 253.4029,-122 41.5971,-122 41.5971,-86 280.4029,-86 280.4029,-122"/>
<text text-anchor="middle" x="161" y="-99.8" font-family="Times,serif" font-size="14.00" fill="#000000">BlessednessOfGodPageRoutingModule</text>
</g>
<!-- BlessednessOfGodPageRoutingModule&#45;&gt;BlessednessOfGodPageModule -->
<g id="edge2" class="edge">
<title>BlessednessOfGodPageRoutingModule&#45;&gt;BlessednessOfGodPageModule</title>
<path fill="none" stroke="#000000" d="M223.2795,-122.1061C223.2795,-122.1061 223.2795,-140.991 223.2795,-140.991"/>
<polygon fill="#000000" stroke="#000000" points="219.7795,-140.9909 223.2795,-150.991 226.7795,-140.991 219.7795,-140.9909"/>
</g>
</g>
</svg>
