<?xml version="1.0" encoding="UTF-8" standalone="no"?>
<!DOCTYPE svg PUBLIC "-//W3C//DTD SVG 1.1//EN"
 "http://www.w3.org/Graphics/SVG/1.1/DTD/svg11.dtd">
<!-- Generated by graphviz version 2.40.1 (20161225.0304)
 -->
<!-- Title: dependencies Pages: 1 -->
<svg width="504pt" height="211pt"
 viewBox="0.00 0.00 504.00 211.00" xmlns="http://www.w3.org/2000/svg" xmlns:xlink="http://www.w3.org/1999/xlink">
<g id="graph0" class="graph" transform="scale(1 1) rotate(0) translate(4 207)">
<title>dependencies</title>
<polygon fill="#ffffff" stroke="transparent" points="-4,4 -4,-207 500,-207 500,4 -4,4"/>
<text text-anchor="start" x="227.0091" y="-42.4" font-family="sans-serif" font-weight="bold" font-size="14.00" fill="#000000">Legend</text>
<polygon fill="#ffffb3" stroke="transparent" points="14,-10 14,-30 34,-30 34,-10 14,-10"/>
<text text-anchor="start" x="37.629" y="-15.4" font-family="sans-serif" font-size="14.00" fill="#000000"> &#160;Declarations</text>
<polygon fill="#8dd3c7" stroke="transparent" points="127,-10 127,-30 147,-30 147,-10 127,-10"/>
<text text-anchor="start" x="150.7251" y="-15.4" font-family="sans-serif" font-size="14.00" fill="#000000"> &#160;Module</text>
<polygon fill="#80b1d3" stroke="transparent" points="213,-10 213,-30 233,-30 233,-10 213,-10"/>
<text text-anchor="start" x="236.7812" y="-15.4" font-family="sans-serif" font-size="14.00" fill="#000000"> &#160;Bootstrap</text>
<polygon fill="#fdb462" stroke="transparent" points="310,-10 310,-30 330,-30 330,-10 310,-10"/>
<text text-anchor="start" x="333.6732" y="-15.4" font-family="sans-serif" font-size="14.00" fill="#000000"> &#160;Providers</text>
<polygon fill="#fb8072" stroke="transparent" points="406,-10 406,-30 426,-30 426,-10 406,-10"/>
<text text-anchor="start" x="429.7258" y="-15.4" font-family="sans-serif" font-size="14.00" fill="#000000"> &#160;Exports</text>
<g id="clust1" class="cluster">
<title>cluster_ArticleCreatePageModule</title>
<polygon fill="none" stroke="#000000" stroke-dasharray="1,5" points="77,-70 77,-195 419,-195 419,-70 77,-70"/>
</g>
<g id="clust2" class="cluster">
<title>cluster_ArticleCreatePageModule_declarations</title>
<polygon fill="none" stroke="#000000" points="277,-78 277,-130 411,-130 411,-78 277,-78"/>
</g>
<g id="clust4" class="cluster">
<title>cluster_ArticleCreatePageModule_imports</title>
<polygon fill="none" stroke="#000000" points="85,-78 85,-130 269,-130 269,-78 85,-78"/>
</g>
<!-- ArticleCreatePage -->
<g id="node1" class="node">
<title>ArticleCreatePage</title>
<polygon fill="#ffffb3" stroke="#000000" points="403.1122,-122 284.8878,-122 284.8878,-86 403.1122,-86 403.1122,-122"/>
<text text-anchor="middle" x="344" y="-99.8" font-family="Times,serif" font-size="14.00" fill="#000000">ArticleCreatePage</text>
</g>
<!-- ArticleCreatePageModule -->
<g id="node2" class="node">
<title>ArticleCreatePageModule</title>
<polygon fill="#8dd3c7" stroke="#000000" points="334.1615,-187 331.1615,-191 310.1615,-191 307.1615,-187 171.8385,-187 171.8385,-151 334.1615,-151 334.1615,-187"/>
<text text-anchor="middle" x="253" y="-164.8" font-family="Times,serif" font-size="14.00" fill="#000000">ArticleCreatePageModule</text>
</g>
<!-- ArticleCreatePage&#45;&gt;ArticleCreatePageModule -->
<g id="edge1" class="edge">
<title>ArticleCreatePage&#45;&gt;ArticleCreatePageModule</title>
<path fill="none" stroke="#000000" d="M309.3875,-122.1061C309.3875,-122.1061 309.3875,-140.991 309.3875,-140.991"/>
<polygon fill="#000000" stroke="#000000" points="305.8875,-140.9909 309.3875,-150.991 312.8875,-140.991 305.8875,-140.9909"/>
</g>
<!-- CreatePageRoutingModule -->
<g id="node3" class="node">
<title>CreatePageRoutingModule</title>
<polygon fill="#8dd3c7" stroke="#000000" points="261.4115,-122 258.4115,-126 237.4115,-126 234.4115,-122 92.5885,-122 92.5885,-86 261.4115,-86 261.4115,-122"/>
<text text-anchor="middle" x="177" y="-99.8" font-family="Times,serif" font-size="14.00" fill="#000000">CreatePageRoutingModule</text>
</g>
<!-- CreatePageRoutingModule&#45;&gt;ArticleCreatePageModule -->
<g id="edge2" class="edge">
<title>CreatePageRoutingModule&#45;&gt;ArticleCreatePageModule</title>
<path fill="none" stroke="#000000" d="M216.5624,-122.1061C216.5624,-122.1061 216.5624,-140.991 216.5624,-140.991"/>
<polygon fill="#000000" stroke="#000000" points="213.0625,-140.9909 216.5624,-150.991 220.0625,-140.991 213.0625,-140.9909"/>
</g>
</g>
</svg>
